<svg width="25" height="24" viewBox="0 0 25 24" fill="none" xmlns="http://www.w3.org/2000/svg">
<path d="M12.4502 2C6.9402 2 2.4502 6.49 2.4502 12C2.4502 17.51 6.9402 22 12.4502 22C17.9602 22 22.4502 17.51 22.4502 12C22.4502 6.49 17.9602 2 12.4502 2ZM17.2302 9.7L11.5602 15.37C11.4202 15.51 11.2302 15.59 11.0302 15.59C10.8302 15.59 10.6402 15.51 10.5002 15.37L7.6702 12.54C7.3802 12.25 7.3802 11.77 7.6702 11.48C7.9602 11.19 8.4402 11.19 8.7302 11.48L11.0302 13.78L16.1702 8.64C16.4602 8.35 16.9402 8.35 17.2302 8.64C17.5202 8.93 17.5202 9.4 17.2302 9.7Z" fill="#008A05"/>
</svg>
