<svg width="18" height="18" viewBox="0 0 18 18" fill="none" xmlns="http://www.w3.org/2000/svg">
<g clip-path="url(#clip0_758_2047)">
<path d="M11.8543 0C11.8941 0 11.934 0 11.9761 0C12.0738 1.20734 11.613 2.10946 11.0529 2.76275C10.5033 3.41152 9.75083 4.04075 8.53372 3.94528C8.45253 2.75523 8.91411 1.92001 9.47343 1.26823C9.99215 0.660804 10.9431 0.120283 11.8543 0Z" fill="black"/>
<path d="M15.5389 12.5665C15.5389 12.5785 15.5389 12.5891 15.5389 12.6003C15.1968 13.6363 14.7089 14.5241 14.1135 15.3481C13.57 16.0961 12.9039 17.1027 11.7146 17.1027C10.687 17.1027 10.0043 16.4419 8.95112 16.4238C7.837 16.4058 7.22431 16.9764 6.20566 17.12C6.08914 17.12 5.97262 17.12 5.85835 17.12C5.11034 17.0117 4.50667 16.4193 4.06689 15.8856C2.77009 14.3084 1.76798 12.2711 1.58154 9.66394C1.58154 9.40834 1.58154 9.15349 1.58154 8.89789C1.66048 7.032 2.56711 5.51493 3.77219 4.7797C4.40819 4.38878 5.28249 4.05575 6.25603 4.2046C6.67326 4.26925 7.09952 4.41209 7.47314 4.55342C7.82723 4.68949 8.27002 4.93081 8.6895 4.91803C8.97367 4.90976 9.25634 4.76166 9.54276 4.65717C10.3817 4.3542 11.2042 4.00689 12.2882 4.17002C13.591 4.36698 14.5157 4.94584 15.087 5.83894C13.985 6.54034 13.1137 7.59733 13.2625 9.40232C13.3948 11.0419 14.3481 12.0012 15.5389 12.5665Z" fill="black"/>
</g>
<defs>
<clipPath id="clip0_758_2047">
<rect width="17.12" height="17.12" fill="white"/>
</clipPath>
</defs>
</svg>
