<svg width="19" height="16" viewBox="0 0 19 16" fill="none" xmlns="http://www.w3.org/2000/svg">
<g clip-path="url(#clip0_1619_11552)">
<path d="M18.4805 6.88806L18.4634 3.85294C18.4598 3.21949 17.9332 2.70485 17.2926 2.70792L12.5811 2.73455V1.05901C12.5811 0.633471 12.229 0.285767 11.7992 0.285767H7.21715C6.78685 0.285767 6.43526 0.633984 6.43526 1.05901V2.76835L1.68127 2.79498C1.04075 2.79805 0.519832 3.31935 0.523456 3.95229L0.540026 6.88858L8.20823 8.87495V8.62044C8.20823 8.47399 8.32991 8.35416 8.47749 8.35416H10.5389C10.6865 8.35416 10.8076 8.47399 10.8076 8.62044V8.87495L18.4805 6.88806ZM7.50608 1.59516C7.50608 1.43386 7.63968 1.30174 7.80227 1.30174H11.2136C11.3767 1.30174 11.5103 1.43437 11.5103 1.59516V2.74018L7.50608 2.76272V1.59516Z" fill="#0C0C0C"/>
<path d="M18.5229 14.47C18.5265 15.1035 18.0056 15.6243 17.3656 15.6279L1.75372 15.7149C1.11319 15.718 0.586583 15.2033 0.582958 14.5699L0.541016 7.12471L8.20818 9.11005V9.80188C8.20818 9.94833 8.32987 10.0682 8.47744 10.0682H10.5388C10.6864 10.0682 10.8076 9.94833 10.8076 9.80188V9.11005L18.482 7.12317L18.5229 14.47Z" fill="#0C0C0C"/>
</g>
<defs>
<clipPath id="clip0_1619_11552">
<rect width="18" height="15.4286" fill="white" transform="translate(0.523438 0.285767)"/>
</clipPath>
</defs>
</svg>
