<svg width="34" height="34" viewBox="0 0 34 34" fill="none" xmlns="http://www.w3.org/2000/svg">
<g clip-path="url(#clip0_758_1826)">
<path d="M5.24504 4.75732H5.0332C4.76375 4.75732 4.54541 4.97566 4.54541 5.24512C4.54541 5.51457 4.76375 5.73291 5.0332 5.73291H5.24504C5.51449 5.73291 5.73283 5.51457 5.73283 5.24512C5.73283 4.97566 5.51449 4.75732 5.24504 4.75732Z" fill="black"/>
<path d="M33.1572 18.928L33.0939 18.8647C32.8906 18.6615 32.7786 18.3912 32.7786 18.1037V15.6968C32.7786 14.8345 32.3502 14.0341 31.6327 13.5557L31.1716 13.2484C30.8887 10.6085 29.2311 9.03649 27.4521 7.73512C26.5329 7.06275 25.9323 6.37789 25.4024 5.77361C24.615 4.87568 23.935 4.10022 22.6891 4.10022C21.622 4.10022 21.2341 4.78176 20.9508 5.27944C20.6673 5.7779 20.4807 6.10785 19.7182 6.09881C19.1878 6.09308 18.9633 5.75683 18.612 5.16296C18.221 4.50203 17.6854 3.59675 16.3396 3.98939C15.2173 4.31667 14.5893 5.95422 13.862 7.85031C13.3729 9.12533 12.8673 10.4436 12.2221 11.2864C11.9989 11.5778 11.1898 12.5289 10.1491 12.5289H9.87221C8.99126 12.5289 8.27459 11.8122 8.27459 10.9313V5.34864L9.14183 4.62593C9.33024 4.46886 9.37278 4.19628 9.24101 3.98933C9.23242 3.97593 8.53618 2.91521 7.20659 3.14434H5.30654C4.75852 3.14434 4.24321 3.35773 3.85558 3.7453L3.38158 4.21937L1.71449 4.49715C0.721088 4.66281 0 5.51397 0 6.52117V6.76032C0 7.31679 0.452737 7.76946 1.00921 7.76946H4.64886V11.7999C4.64886 13.3883 5.44839 14.9498 6.8425 16.0839C8.29391 17.2646 10.2914 17.9154 12.4669 17.9164C12.4895 17.9164 12.5127 17.9286 12.5127 17.9488V27.6609C11.9358 27.7352 11.4451 28.132 11.2574 28.6949L10.9737 29.546C10.9241 29.6947 10.9491 29.8583 11.0408 29.9855C11.1324 30.1127 11.2797 30.188 11.4365 30.188H14.5647C14.8206 30.188 15.0329 29.9903 15.0512 29.735L15.6392 21.5021C16.4968 24.1362 16.9559 26.6204 17.1282 27.6728C16.5849 27.7709 16.129 28.1571 15.9497 28.6949L15.666 29.546C15.6163 29.6947 15.6413 29.8583 15.733 29.9855C15.8247 30.1127 15.9719 30.188 16.1287 30.188H19.257C19.3933 30.188 19.5234 30.131 19.6157 30.0308C19.7081 29.9305 19.7543 29.7962 19.7431 29.6604L19.2217 23.3063C19.2194 23.2778 19.2146 23.2497 19.2073 23.2222L17.9851 18.5717C19.2763 18.451 20.5107 18.222 21.6739 17.8853C21.9327 17.8105 22.0817 17.5399 22.0068 17.2812C21.932 17.0224 21.6613 16.8732 21.4027 16.9482C19.718 17.4358 17.8727 17.6867 15.9111 17.6964L16.0059 16.369C16.0252 16.1003 15.8229 15.8669 15.5542 15.8477C15.2863 15.8271 15.052 16.0307 15.0329 16.2995L14.1105 29.2125H12.1133L12.183 29.0034C12.2586 28.7765 12.4701 28.624 12.7094 28.624H13.0006C13.2701 28.624 13.4884 28.4056 13.4884 28.1362V17.9487C13.4884 17.3932 13.0304 16.941 12.4673 16.9408C8.18412 16.9389 5.62458 14.3254 5.62458 11.7998V7.28161C5.62458 7.01215 5.40624 6.79381 5.13679 6.79381H1.00921C0.990675 6.79381 0.975586 6.77879 0.975586 6.76025V6.5211C0.975586 5.99279 1.35379 5.54636 1.87495 5.45954L3.69617 5.156C3.79646 5.13922 3.88901 5.09161 3.96088 5.01968L4.54538 4.43511C4.7487 4.23186 5.019 4.11986 5.30647 4.11986H5.92981C5.94125 4.15797 5.95699 4.19537 5.97846 4.23101C6.11731 4.4619 6.41701 4.53637 6.6479 4.39771C7.34811 3.97671 7.819 4.06243 8.10048 4.22373L7.05088 5.09837C6.84393 5.27086 6.81603 5.57843 6.98845 5.78538C7.07001 5.8832 7.18194 5.94057 7.29894 5.95611V10.9311C7.29894 12.35 8.45332 13.5043 9.87215 13.5043H10.1491C11.5962 13.5043 12.6225 12.3679 12.9966 11.8793C13.7276 10.9246 14.259 9.53931 14.7728 8.19957C15.3269 6.75498 15.9549 5.11763 16.6127 4.92583C17.2019 4.75419 17.3705 4.9802 17.7722 5.65947C18.1224 6.25145 18.602 7.0621 19.7076 7.0742C21.0411 7.08928 21.4801 6.32176 21.7987 5.76177C22.0765 5.27372 22.2084 5.07561 22.6889 5.07561C23.4586 5.07561 23.8745 5.51092 24.6687 6.41665C25.2039 7.02698 25.87 7.78657 26.876 8.52242C28.503 9.71257 30.2388 11.2201 30.2388 14.0592V19.6841C30.2388 20.1937 30.3883 20.6873 30.671 21.1114L31.2716 22.0124L30.7916 29.2123H28.7966L28.8662 29.0032C28.9419 28.7762 29.1534 28.6237 29.3927 28.6237H29.6839C29.9534 28.6237 30.1717 28.4054 30.1717 28.1359V23.4436C30.1717 23.362 30.1513 23.2817 30.1121 23.21L27.4777 18.3803C27.172 17.8196 26.9467 17.2194 26.8082 16.5962L26.1793 13.7659C26.1209 13.503 25.8607 13.337 25.5973 13.3956C25.3343 13.454 25.1685 13.7146 25.227 13.9776L25.464 15.0441C25.1603 15.273 24.4752 15.7424 23.406 16.2197C23.16 16.3295 23.0496 16.6179 23.1594 16.8639C23.2403 17.0453 23.4184 17.153 23.6051 17.153C23.6715 17.153 23.7391 17.1393 23.8036 17.1105C23.8939 17.0702 23.9812 17.03 24.0665 16.9899C24.6131 18.2773 25.6393 21.0173 25.5477 22.3679C25.4097 24.4031 24.483 26.8251 24.1462 27.6484C23.4999 27.6621 22.9323 28.079 22.7272 28.6945L22.4435 29.5456C22.3939 29.6944 22.4188 29.858 22.5105 29.9851C22.6022 30.1123 22.7494 30.1877 22.9062 30.1877H25.5131C25.7099 30.1877 25.8876 30.0693 25.9633 29.8876L28.5701 23.6312C28.5975 23.5654 28.6102 23.4944 28.6072 23.4233L28.5562 22.3947L29.1962 23.5679V27.6606C28.6193 27.7348 28.1285 28.1316 27.9408 28.6945L27.6571 29.5456C27.6075 29.6944 27.6324 29.858 27.7241 29.9852C27.8158 30.1123 27.963 30.1877 28.1198 30.1877H31.248C31.5048 30.1877 31.7177 29.9886 31.7347 29.7324L32.2561 21.9119C32.2632 21.8048 32.2349 21.6983 32.1753 21.6089L31.4829 20.5703C31.3073 20.3068 31.2145 20.0004 31.2145 19.684V14.4588C31.5852 14.7606 31.803 15.2126 31.803 15.6965V18.1034C31.803 18.6515 32.0164 19.1668 32.404 19.5543L32.4672 19.6176C32.5625 19.7128 32.6874 19.7605 32.8122 19.7605C32.937 19.7605 33.0619 19.7128 33.1572 19.6176C33.3476 19.4273 33.3476 19.1185 33.1572 18.928ZM15.8413 18.672C16.23 18.6714 16.6147 18.6616 16.995 18.6427L18.2528 23.4287L18.7274 29.2125H16.8054L16.8751 29.0034C16.9507 28.7764 17.1623 28.6239 17.4016 28.6239H17.6928C17.8334 28.6239 17.9672 28.5632 18.0599 28.4573C18.1525 28.3515 18.1949 28.2108 18.1763 28.0713C18.1507 27.8803 17.5316 23.3535 15.8096 19.1165L15.8413 18.672ZM25.1879 29.2125H23.5832L23.6528 29.0033C23.7285 28.7764 23.94 28.6239 24.1792 28.6239H24.4705C24.6635 28.6239 24.8384 28.5101 24.9165 28.3336C24.9746 28.2024 26.3411 25.0903 26.5212 22.4341C26.5797 21.5709 26.3079 20.2657 25.7133 18.5548C25.4085 17.6778 25.0994 16.927 24.9359 16.5432C25.24 16.3723 25.4925 16.2137 25.6938 16.0781L25.856 16.8081C26.0143 17.5205 26.2719 18.2067 26.6215 18.8477L27.508 20.473L27.6281 23.3561L25.1879 29.2125Z" fill="black"/>
</g>
<defs>
<clipPath id="clip0_758_1826">
<rect width="33.3" height="33.3" fill="white"/>
</clipPath>
</defs>
</svg>
