<svg width="16" height="24" viewBox="0 0 16 24" fill="none" xmlns="http://www.w3.org/2000/svg">
<path d="M15.849 3.26209C15.849 1.90022 14.9295 0.596667 13.6128 0.0920762L13.3726 0L13.1297 0.0847157C11.78 0.555129 10.8732 1.83154 10.8732 3.26078V4.27521C9.95144 3.99176 8.94695 3.98834 7.99974 4.29922C7.05254 3.9883 6.04805 3.99172 5.12625 4.27517V3.26078C5.12625 1.83149 4.21946 0.555129 2.86978 0.0847626L2.62688 9.37639e-05L2.38671 0.0921231C1.07003 0.596714 0.150391 1.90022 0.150391 3.26209V4.72373C0.150391 5.57825 0.372986 6.42386 0.784891 7.16872C0.387989 7.64495 0.150391 8.25854 0.150391 8.9304C0.150391 9.71469 0.4833 10.4521 1.05653 10.9692V14.7869C1.05653 16.1728 1.6689 17.4745 2.73654 18.3582L3.4513 18.9497V20.7245C3.4513 22.5306 4.92068 24 6.7268 24H9.27254C11.0787 24 12.548 22.5306 12.548 20.7245V18.9497L13.2628 18.3581C14.3305 17.4745 14.9428 16.1728 14.9428 14.7868V10.9692C15.5161 10.4521 15.849 9.71464 15.849 8.93036C15.849 8.25849 15.6114 7.6449 15.2145 7.16867C15.6264 6.42381 15.849 5.5782 15.849 4.72369V3.26209H15.849ZM1.55685 3.26209C1.55685 2.55357 1.99515 1.86815 2.64906 1.51597C3.2987 1.84598 3.71975 2.51789 3.71975 3.26078V4.97994C3.44563 5.18027 3.19045 5.41182 2.96035 5.6737L2.48488 6.21481C2.2973 6.24266 2.11657 6.28968 1.94395 6.35283C1.69215 5.84932 1.55685 5.28918 1.55685 4.72369V3.26209ZM11.1417 20.7245C11.1417 21.7551 10.3032 22.5935 9.27264 22.5935H6.7269C5.69629 22.5935 4.85786 21.7551 4.85786 20.7245V20.4995C5.38832 20.8695 6.03248 21.0874 6.7269 21.0874H9.27264C9.96705 21.0874 10.6112 20.8695 11.1417 20.4995V20.7245ZM7.99974 16.7582L5.89737 15.1628L6.55039 13.1586C6.7554 12.5293 7.33786 12.1066 7.99979 12.1066C8.66167 12.1066 9.24413 12.5294 9.44919 13.1586L10.1022 15.1628L7.99974 16.7582ZM10.5633 16.5784L11.097 18.2165C10.9116 19.0531 10.1642 19.6809 9.27264 19.6809H8.70302V17.9902L10.5633 16.5784ZM7.29651 17.9902V19.6809H6.72685C5.8352 19.6809 5.0879 19.0531 4.90244 18.2165L5.43614 16.5784L7.29651 17.9902ZM13.9999 9.92486H11.8449V11.3313H13.5365V14.7868C13.5365 15.7523 13.1086 16.692 12.29 17.3377L10.7865 12.723C10.3922 11.513 9.27235 10.7002 7.99979 10.7002C6.72718 10.7002 5.60731 11.5131 5.21313 12.723L3.70958 17.3377C2.87887 16.6817 2.46303 15.7523 2.46303 14.7868V11.3313H4.15463V9.92486H1.99965C1.71981 9.67231 1.5569 9.31291 1.5569 8.93036C1.5569 8.2035 2.12576 7.61546 2.85196 7.59164L3.15623 7.58166L4.01698 6.60201C4.94159 5.5497 6.43862 5.1874 7.74213 5.7008L7.99979 5.80225L8.2575 5.70075C9.56101 5.18744 11.0579 5.54961 11.9826 6.60201L12.8434 7.58166L13.1476 7.59164C13.8738 7.61546 14.4427 8.2035 14.4427 8.93036C14.4426 9.31291 14.2797 9.67231 13.9999 9.92486ZM14.4426 4.72373C14.4426 5.28922 14.3073 5.84932 14.0555 6.35288C13.8829 6.28973 13.7021 6.24271 13.5146 6.21486L13.0391 5.67375C12.809 5.41187 12.5538 5.18036 12.2797 4.97999V3.26083C12.2797 2.51794 12.7007 1.84602 13.3504 1.51597C14.0043 1.8682 14.4426 2.55366 14.4426 3.26214V4.72373Z" fill="black"/>
</svg>
