<svg width="25" height="24" viewBox="0 0 25 24" fill="none" xmlns="http://www.w3.org/2000/svg">
<path d="M12.4502 2C6.9402 2 2.4502 6.49 2.4502 12C2.4502 17.51 6.9402 22 12.4502 22C17.9602 22 22.4502 17.51 22.4502 12C22.4502 6.49 17.9602 2 12.4502 2ZM15.8102 14.3C16.1002 14.59 16.1002 15.07 15.8102 15.36C15.6602 15.51 15.4702 15.58 15.2802 15.58C15.0902 15.58 14.9002 15.51 14.7502 15.36L12.4502 13.06L10.1502 15.36C10.0002 15.51 9.8102 15.58 9.6202 15.58C9.4302 15.58 9.2402 15.51 9.0902 15.36C8.8002 15.07 8.8002 14.59 9.0902 14.3L11.3902 12L9.0902 9.7C8.8002 9.41 8.8002 8.93 9.0902 8.64C9.3802 8.35 9.8602 8.35 10.1502 8.64L12.4502 10.94L14.7502 8.64C15.0402 8.35 15.5202 8.35 15.8102 8.64C16.1002 8.93 16.1002 9.41 15.8102 9.7L13.5102 12L15.8102 14.3Z" fill="#C62626"/>
</svg>
