<svg width="37" height="37" viewBox="0 0 37 37" fill="none" xmlns="http://www.w3.org/2000/svg">
<g clip-path="url(#clip0_758_1837)">
<path d="M35.5294 20.1614L33.1902 19.5068C33.0407 19.465 32.9184 19.3597 32.8543 19.2178L30.8117 14.6898C31.7101 14.5048 32.388 13.7084 32.389 12.7563L32.3933 9.63223C32.3943 8.54309 31.5089 7.65531 30.4191 7.65337L28.3152 7.65078V6.87755C28.3152 6.29748 27.8433 5.82556 27.2633 5.82556H23.094C22.514 5.82556 22.0421 6.29748 22.0421 6.87755V7.64302L19.4157 7.63979C19.4155 7.63979 19.4153 7.63979 19.415 7.63979C19.1177 7.63979 18.8765 7.88067 18.876 8.17811C18.8757 8.47576 19.1167 8.71736 19.4144 8.71772L30.4175 8.73137C30.9131 8.7323 31.3158 9.13595 31.3153 9.63108L31.3143 10.382H1.09726L1.09805 9.73643C1.09827 9.45825 1.20692 9.19682 1.40404 9.00028C1.60072 8.80417 1.86187 8.69616 2.13969 8.69616H2.14149L16.899 8.71484H16.8997C17.1971 8.71484 17.4383 8.47396 17.4387 8.17652C17.439 7.87887 17.1981 7.63727 16.9003 7.63691L2.14299 7.61823C2.14177 7.61823 2.14062 7.61823 2.1394 7.61823C1.57442 7.61823 1.04308 7.83791 0.642806 8.23696C0.2416 8.63702 0.0204813 9.16922 0.0199783 9.73528L0.00718688 19.8475C0.00682757 20.1452 0.247781 20.3868 0.545433 20.3872H0.546151C0.843444 20.3872 1.08468 20.1463 1.08512 19.849L1.09582 11.4598H31.3127L31.311 12.755C31.3105 13.25 30.9076 13.6524 30.4128 13.6523C30.4125 13.6523 30.4122 13.6523 30.412 13.6523L29.9899 13.6518C29.9865 13.6518 29.9831 13.6516 29.9797 13.6518L26.1367 13.6466C26.136 13.6466 26.1355 13.6466 26.1348 13.6466C25.6062 13.6466 25.109 13.8522 24.7347 14.2257C24.36 14.5997 24.1534 15.0972 24.1529 15.6264L24.1399 25.7721C24.1395 26.258 23.7437 26.6529 23.2575 26.6529C23.2572 26.6529 23.257 26.6529 23.2567 26.6529L22.6982 26.6522V15.7685C22.6982 14.8707 21.9678 14.1403 21.0701 14.1403H16.5269C15.6292 14.1403 14.8988 14.8707 14.8988 15.7685V26.6422L10.7883 26.637C10.5299 24.8489 8.98791 23.4705 7.12942 23.4705C5.27402 23.4705 3.73395 24.8442 3.47165 26.6279L2.1195 26.6263C1.54467 26.6253 1.0775 26.1572 1.07793 25.5828L1.08224 22.3641C1.0826 22.0665 0.841647 21.8248 0.543995 21.8245C0.543708 21.8245 0.543492 21.8245 0.543277 21.8245C0.245912 21.8245 0.00467171 22.0653 0.0043124 22.3627L6.88456e-07 25.5817C-0.000933516 26.7501 0.949009 27.7023 2.11792 27.7042L3.47122 27.7058C3.73244 29.4907 5.27308 30.8658 7.12935 30.8658C8.98245 30.8658 10.5212 29.4954 10.7863 27.7149L26.2122 27.7308C26.4843 29.5195 28.0326 30.8946 29.8962 30.8946C31.7598 30.8946 33.3081 29.5196 33.5801 27.7308H34.8581C35.8848 27.7308 36.7201 26.8955 36.7201 25.8689V21.7303C36.72 21.0032 36.2305 20.3581 35.5294 20.1614ZM23.1199 6.90335H27.2372V7.64934L23.1199 7.64424V6.90335ZM35.6421 23.9364L34.5524 23.9363V22.8298H35.6421V23.9364ZM28.0468 14.7271L29.6469 14.7293L31.7941 19.489H28.8207C28.394 19.489 28.0468 19.1414 28.0468 18.7143V14.7271ZM15.9767 15.7685C15.9767 15.4651 16.2235 15.2183 16.5269 15.2183H21.0701C21.3735 15.2183 21.6203 15.4651 21.6203 15.7685V26.6508L15.9767 26.6436V15.7685ZM7.12935 29.7878C5.68478 29.7878 4.50962 28.6126 4.50962 27.1681C4.50962 25.7236 5.68485 24.5484 7.12935 24.5484C8.57385 24.5484 9.74908 25.7236 9.74908 27.1681C9.74908 28.6127 8.57392 29.7878 7.12935 29.7878ZM29.8961 29.8167C28.4358 29.8167 27.2476 28.6286 27.2476 27.1682C27.2476 25.7078 28.4358 24.5196 29.8961 24.5196C31.3565 24.5196 32.5446 25.7078 32.5446 27.1682C32.5446 28.6286 31.3565 29.8167 29.8961 29.8167ZM34.8581 26.6529H33.5861C33.3343 24.8412 31.776 23.4416 29.8961 23.4416C28.0163 23.4416 26.458 24.8412 26.2061 26.6529H25.0074C25.1414 26.3882 25.2175 26.0895 25.2179 25.7733L25.2308 15.6276C25.231 15.3861 25.3252 15.1593 25.4962 14.9887C25.6669 14.8183 25.8937 14.7245 26.1347 14.7245H26.1355L26.9689 14.7257V18.7143C26.9689 19.7358 27.7997 20.5669 28.8208 20.5669H32.9787L35.2386 21.1993C35.4762 21.266 35.6421 21.4843 35.6421 21.7303V21.7519H34.4217C33.8906 21.7519 33.4746 22.1177 33.4746 22.5848V24.1815C33.4746 24.6486 33.8907 25.0144 34.4217 25.0144H35.6421V25.8689C35.6421 26.3012 35.2904 26.6529 34.8581 26.6529Z" fill="black"/>
<path d="M7.1293 25.4017C6.15521 25.4017 5.36279 26.1942 5.36279 27.1682C5.36279 28.1423 6.15521 28.9348 7.1293 28.9348C8.10339 28.9348 8.89581 28.1423 8.89581 27.1682C8.89581 26.1942 8.10339 25.4017 7.1293 25.4017ZM7.1293 27.8568C6.74958 27.8568 6.44072 27.548 6.44072 27.1682C6.44072 26.7885 6.74958 26.4797 7.1293 26.4797C7.50902 26.4797 7.81788 26.7885 7.81788 27.1682C7.81788 27.548 7.50902 27.8568 7.1293 27.8568Z" fill="black"/>
<path d="M12.2552 19.6271C13.1117 19.6271 13.8087 18.9303 13.8087 18.0737V14.0694C13.8087 13.3115 13.192 12.6949 12.4342 12.6949H4.7818C4.02387 12.6949 3.40723 13.3116 3.40723 14.0694V18.2525C3.40723 19.0105 4.02387 19.6271 4.7818 19.6271H12.2552ZM4.48516 18.2525V14.0694C4.48516 13.9059 4.61824 13.7729 4.7818 13.7729H12.4341C12.5976 13.7729 12.7307 13.906 12.7307 14.0694V18.0737C12.7307 18.3358 12.5174 18.5492 12.2552 18.5492H4.7818C4.61824 18.5492 4.48516 18.4162 4.48516 18.2525Z" fill="black"/>
<path d="M29.8964 25.3905C28.9161 25.3905 28.1187 26.188 28.1187 27.1682C28.1187 28.1485 28.9161 28.9459 29.8964 28.9459C30.8766 28.9459 31.6741 28.1485 31.6741 27.1682C31.6741 26.188 30.8766 25.3905 29.8964 25.3905ZM29.8964 27.8679C29.5105 27.8679 29.1966 27.554 29.1966 27.1682C29.1966 26.7823 29.5105 26.4684 29.8964 26.4684C30.2823 26.4684 30.5962 26.7823 30.5962 27.1682C30.5962 27.554 30.2823 27.8679 29.8964 27.8679Z" fill="black"/>
</g>
<defs>
<clipPath id="clip0_758_1837">
<rect width="36.72" height="36.72" fill="white"/>
</clipPath>
</defs>
</svg>
