<svg width="26" height="26" viewBox="0 0 26 26" fill="none" xmlns="http://www.w3.org/2000/svg">
<path d="M9.20866 20.5833H8.66699C4.33366 20.5833 2.16699 19.5 2.16699 14.0833V8.66663C2.16699 4.33329 4.33366 2.16663 8.66699 2.16663H17.3337C21.667 2.16663 23.8337 4.33329 23.8337 8.66663V14.0833C23.8337 18.4166 21.667 20.5833 17.3337 20.5833H16.792C16.4562 20.5833 16.1312 20.7458 15.9253 21.0166L14.3003 23.1833C13.5853 24.1366 12.4153 24.1366 11.7003 23.1833L10.0753 21.0166C9.90199 20.7783 9.50116 20.5833 9.20866 20.5833Z" stroke="#292D32" stroke-width="1.5" stroke-miterlimit="10" stroke-linecap="round" stroke-linejoin="round"/>
<path d="M7.58301 8.66663H18.4163" stroke="#292D32" stroke-width="1.5" stroke-linecap="round" stroke-linejoin="round"/>
<path d="M7.58301 14.0834H14.083" stroke="#292D32" stroke-width="1.5" stroke-linecap="round" stroke-linejoin="round"/>
</svg>
