<svg width="26" height="26" viewBox="0 0 26 26" fill="none" xmlns="http://www.w3.org/2000/svg">
<path d="M18.417 2.16663H7.58366C4.59366 2.16663 2.16699 4.58246 2.16699 7.56163V14.04V15.1233C2.16699 18.1025 4.59366 20.5183 7.58366 20.5183H9.20866C9.50116 20.5183 9.89116 20.7133 10.0753 20.9516L11.7003 23.1075C12.4153 24.0608 13.5853 24.0608 14.3003 23.1075L15.9253 20.9516C16.1312 20.6808 16.4562 20.5183 16.792 20.5183H18.417C21.407 20.5183 23.8337 18.1025 23.8337 15.1233V7.56163C23.8337 4.58246 21.407 2.16663 18.417 2.16663ZM14.0837 14.8958H7.58366C7.13949 14.8958 6.77116 14.5275 6.77116 14.0833C6.77116 13.6391 7.13949 13.2708 7.58366 13.2708H14.0837C14.5278 13.2708 14.8962 13.6391 14.8962 14.0833C14.8962 14.5275 14.5278 14.8958 14.0837 14.8958ZM18.417 9.47913H7.58366C7.13949 9.47913 6.77116 9.11079 6.77116 8.66663C6.77116 8.22246 7.13949 7.85413 7.58366 7.85413H18.417C18.8612 7.85413 19.2295 8.22246 19.2295 8.66663C19.2295 9.11079 18.8612 9.47913 18.417 9.47913Z" fill="#25559D"/>
</svg>
