<svg width="29" height="29" viewBox="0 0 29 29" fill="none" xmlns="http://www.w3.org/2000/svg">
<g clip-path="url(#clip0_758_1843)">
<path d="M8.81319 5.73602C8.56573 5.73602 8.36505 5.93664 8.36505 6.18416C8.36505 6.72777 7.92278 7.17004 7.37917 7.17004C6.83556 7.17004 6.39329 6.72777 6.39329 6.18416C6.39329 5.64055 6.83556 5.19828 7.37917 5.19828C7.62663 5.19828 7.82731 4.99766 7.82731 4.75014C7.82731 4.50262 7.62669 4.302 7.37917 4.302C6.34136 4.302 5.49707 5.14635 5.49707 6.1841C5.49707 7.22186 6.34142 8.0662 7.37917 8.0662C8.41693 8.0662 9.26127 7.22186 9.26127 6.1841C9.26133 5.93664 9.06065 5.73602 8.81319 5.73602Z" fill="black"/>
<path d="M8.81319 10.9938C8.56573 10.9938 8.36505 11.1945 8.36505 11.442C8.36505 11.9856 7.92278 12.4279 7.37917 12.4279C6.83556 12.4279 6.39329 11.9856 6.39329 11.442C6.39329 10.8984 6.83556 10.4561 7.37917 10.4561C7.62663 10.4561 7.82731 10.2555 7.82731 10.008C7.82731 9.76043 7.62669 9.55981 7.37917 9.55981C6.34136 9.55981 5.49707 10.4042 5.49707 11.4419C5.49707 12.4797 6.34142 13.324 7.37917 13.324C8.41693 13.324 9.26127 12.4797 9.26127 11.4419C9.26133 11.1945 9.06065 10.9938 8.81319 10.9938Z" fill="black"/>
<path d="M14.071 11.95H10.725C10.4775 11.95 10.2769 12.1506 10.2769 12.3981C10.2769 12.6456 10.4775 12.8462 10.725 12.8462H14.071C14.3184 12.8462 14.5191 12.6456 14.5191 12.3981C14.5191 12.1506 14.3185 11.95 14.071 11.95Z" fill="black"/>
<path d="M14.071 10.038H10.725C10.4775 10.038 10.2769 10.2386 10.2769 10.4861C10.2769 10.7336 10.4775 10.9342 10.725 10.9342H14.071C14.3184 10.9342 14.5191 10.7336 14.5191 10.4861C14.5191 10.2386 14.3185 10.038 14.071 10.038Z" fill="black"/>
<path d="M13.115 17.2079H10.725C10.4775 17.2079 10.2769 17.4085 10.2769 17.656C10.2769 17.9035 10.4775 18.1042 10.725 18.1042H13.115C13.3624 18.1042 13.5631 17.9035 13.5631 17.656C13.5631 17.4085 13.3624 17.2079 13.115 17.2079Z" fill="black"/>
<path d="M14.071 15.2959H10.725C10.4775 15.2959 10.2769 15.4965 10.2769 15.744C10.2769 15.9916 10.4775 16.1922 10.725 16.1922H14.071C14.3184 16.1922 14.5191 15.9916 14.5191 15.744C14.5191 15.4965 14.3185 15.2959 14.071 15.2959Z" fill="black"/>
<path d="M18.373 6.69189H10.725C10.4775 6.69189 10.2769 6.89251 10.2769 7.14003C10.2769 7.38755 10.4775 7.58817 10.725 7.58817H18.3729C18.6204 7.58817 18.821 7.38755 18.821 7.14003C18.821 6.89251 18.6204 6.69189 18.373 6.69189Z" fill="black"/>
<path d="M16.461 4.77991H10.725C10.4775 4.77991 10.2769 4.98053 10.2769 5.22804C10.2769 5.47556 10.4775 5.67618 10.725 5.67618H16.461C16.7084 5.67618 16.9091 5.47556 16.9091 5.22804C16.9091 4.98053 16.7085 4.77991 16.461 4.77991Z" fill="black"/>
<path d="M8.81319 16.2519C8.56573 16.2519 8.36505 16.4525 8.36505 16.7C8.36505 17.2436 7.92278 17.6859 7.37917 17.6859C6.83556 17.6859 6.39329 17.2436 6.39329 16.7C6.39329 16.1564 6.83556 15.7141 7.37917 15.7141C7.62663 15.7141 7.82731 15.5135 7.82731 15.266C7.82731 15.0185 7.62669 14.8179 7.37917 14.8179C6.34136 14.8179 5.49707 15.6622 5.49707 16.7C5.49707 17.7377 6.34142 18.5821 7.37917 18.5821C8.41693 18.5821 9.26127 17.7377 9.26127 16.7C9.26133 16.4525 9.06065 16.2519 8.81319 16.2519Z" fill="black"/>
<path d="M20.2849 0H4.03302C3.25883 0 2.62891 0.629864 2.62891 1.40411V21.4799C2.62891 22.2542 3.25877 22.884 4.03302 22.884H12.159C12.4064 22.884 12.6071 22.6834 12.6071 22.4359C12.6071 22.1884 12.4065 21.9878 12.159 21.9878H4.03302C3.75297 21.9878 3.52513 21.7599 3.52513 21.4799V1.40411C3.52513 1.12406 3.75297 0.89622 4.03302 0.89622H20.2849C20.5649 0.89622 20.7928 1.12406 20.7928 1.40411V16.2221C20.7928 16.4695 20.9934 16.6702 21.2409 16.6702C21.4884 16.6702 21.689 16.4696 21.689 16.2221V1.40411C21.689 0.629864 21.0591 0 20.2849 0Z" fill="black"/>
<path d="M24.5156 18.1722C24.0991 18.1307 23.6828 18.2487 23.3534 18.4989C23.0909 18.0585 22.6434 17.7461 22.1256 17.6942C21.709 17.6527 21.2928 17.7708 20.9634 18.0209C20.7009 17.5805 20.2534 17.2681 19.7356 17.2162C19.4176 17.1845 19.1 17.2457 18.8209 17.3878V11.681C18.8209 11.2177 18.6238 10.7735 18.2799 10.4624C17.9364 10.1516 17.4735 9.9999 17.0099 10.0463C16.1826 10.1291 15.5346 10.8771 15.5346 11.7492V17.4704L14.2173 18.7877C13.5173 19.4877 13.2348 20.4809 13.4615 21.4446L14.4616 25.695C14.8668 27.4172 16.3855 28.6201 18.1548 28.6201H22.1967C24.2887 28.6201 25.9908 26.9181 25.9908 24.826V19.8752C25.9908 19.003 25.3429 18.255 24.5156 18.1722ZM25.0946 24.8258C25.0946 26.4237 23.7946 27.7237 22.1967 27.7237H18.1549C16.8035 27.7237 15.6435 26.805 15.334 25.4895L14.3339 21.2392C14.1788 20.5799 14.3721 19.9002 14.8511 19.4213L15.5346 18.7377V20.2849C15.5346 20.5323 15.7353 20.733 15.9828 20.733C16.2303 20.733 16.4309 20.5324 16.4309 20.2849V11.7491C16.4309 11.3319 16.7244 10.9756 17.0992 10.9381C17.3145 10.9165 17.5204 10.9837 17.6787 11.127C17.835 11.2685 17.9247 11.4704 17.9247 11.681V19.568C17.9247 19.8154 18.1253 20.0161 18.3728 20.0161C18.6204 20.0161 18.821 19.8155 18.821 19.568V18.851C18.821 18.6403 18.9106 18.4384 19.067 18.2969C19.2254 18.1536 19.4312 18.0863 19.6464 18.108C20.0212 18.1455 20.3147 18.5018 20.3147 18.9191V20.0459C20.3147 20.2933 20.5154 20.494 20.7629 20.494C21.0103 20.494 21.211 20.2934 21.211 20.0459V19.3288C21.211 19.1182 21.3006 18.9163 21.457 18.7748C21.6154 18.6315 21.8213 18.5643 22.0365 18.5859C22.4112 18.6234 22.7048 18.9797 22.7048 19.397V20.5238C22.7048 20.7713 22.9054 20.9719 23.1529 20.9719C23.4004 20.9719 23.6011 20.7713 23.6011 20.5238V19.8068C23.6011 19.5962 23.6907 19.3942 23.8471 19.2527C24.0055 19.1094 24.2111 19.0421 24.4265 19.0639C24.8013 19.1013 25.0948 19.4576 25.0948 19.8749V24.8258H25.0946Z" fill="black"/>
</g>
<defs>
<clipPath id="clip0_758_1843">
<rect width="28.62" height="28.62" fill="white"/>
</clipPath>
</defs>
</svg>
