<svg width="24" height="25" viewBox="0 0 24 25" fill="none" xmlns="http://www.w3.org/2000/svg">
<path d="M9 22.3334H15C20 22.3334 22 20.3334 22 15.3334V9.33337C22 4.33337 20 2.33337 15 2.33337H9C4 2.33337 2 4.33337 2 9.33337V15.3334C2 20.3334 4 22.3334 9 22.3334Z" stroke="#292D32" stroke-width="1.5" stroke-linecap="round" stroke-linejoin="round"/>
<path d="M15.5703 18.8333V14.9333" stroke="#292D32" stroke-width="1.5" stroke-miterlimit="10" stroke-linecap="round" stroke-linejoin="round"/>
<path d="M15.5703 7.78337V5.83337" stroke="#292D32" stroke-width="1.5" stroke-miterlimit="10" stroke-linecap="round" stroke-linejoin="round"/>
<path d="M15.5697 12.9833C17.0057 12.9833 18.1697 11.8193 18.1697 10.3833C18.1697 8.94739 17.0057 7.78333 15.5697 7.78333C14.1338 7.78333 12.9697 8.94739 12.9697 10.3833C12.9697 11.8193 14.1338 12.9833 15.5697 12.9833Z" stroke="#292D32" stroke-width="1.5" stroke-miterlimit="10" stroke-linecap="round" stroke-linejoin="round"/>
<path d="M8.42969 18.8334V16.8834" stroke="#292D32" stroke-width="1.5" stroke-miterlimit="10" stroke-linecap="round" stroke-linejoin="round"/>
<path d="M8.42969 9.73337V5.83337" stroke="#292D32" stroke-width="1.5" stroke-miterlimit="10" stroke-linecap="round" stroke-linejoin="round"/>
<path d="M8.43008 16.8833C9.86602 16.8833 11.0301 15.7193 11.0301 14.2833C11.0301 12.8474 9.86602 11.6833 8.43008 11.6833C6.99414 11.6833 5.83008 12.8474 5.83008 14.2833C5.83008 15.7193 6.99414 16.8833 8.43008 16.8833Z" stroke="#292D32" stroke-width="1.5" stroke-miterlimit="10" stroke-linecap="round" stroke-linejoin="round"/>
</svg>
