<svg width="37" height="37" viewBox="0 0 37 37" fill="none" xmlns="http://www.w3.org/2000/svg">
<path d="M34.514 18.1236C34.2926 13.5652 33.4428 11.2582 31.786 10.7529C31.5268 10.0472 31.0276 9.45531 30.3758 9.08086C30.3703 9.0777 30.3646 9.0757 30.3591 9.07283L30.3408 9.06394C29.3605 8.52246 28.2136 8.53996 27.4519 8.55315C27.3472 8.55487 27.2494 8.55659 27.1596 8.55659C26.465 8.55659 25.635 8.64062 24.6737 8.73785C23.2462 8.9036 21.811 8.99531 20.374 9.0126C20.0683 9.0126 19.7144 9.00686 19.3209 9.00027L18.823 8.99281C17.1544 8.96155 14.4287 8.91136 12.1676 9.24347C12.1484 9.19558 12.1315 9.14567 12.1103 9.10007C12.5825 8.53097 12.9378 7.87434 13.156 7.16776C13.3743 6.46118 13.451 5.71851 13.3819 4.98224C13.3709 4.87985 13.3286 4.78332 13.2609 4.70576C13.1931 4.62819 13.1031 4.57335 13.0032 4.54868C12.9032 4.524 12.798 4.53068 12.7019 4.56782C12.6059 4.60495 12.5236 4.67073 12.4662 4.75625C11.7352 5.74294 10.8478 6.60349 9.83911 7.30386C9.32918 7.2043 8.8097 7.16226 8.2904 7.17853H8.19662C7.67732 7.16216 7.15783 7.2042 6.64792 7.30386C5.63925 6.60349 4.75186 5.74294 4.02086 4.75625C3.96346 4.67073 3.88115 4.60495 3.78509 4.56782C3.68902 4.53068 3.58386 4.524 3.48387 4.54868C3.38388 4.57335 3.29391 4.62819 3.22615 4.70576C3.15839 4.78332 3.11614 4.87985 3.10512 4.98224C3.03617 5.71822 3.11296 6.46057 3.33111 7.16684C3.54927 7.87312 3.90449 8.52946 4.37649 9.09835C4.35039 9.15571 4.32859 9.21909 4.30507 9.27989C3.37499 9.16145 2.1845 9.38601 1.5696 9.83657C1.46249 9.91506 1.39083 10.0328 1.3703 10.164C1.34977 10.2952 1.38204 10.4292 1.46005 10.5366C1.74491 10.9682 2.12165 11.3315 2.56332 11.6005C3.00498 11.8695 3.50065 12.0375 4.01484 12.0925C4.02487 12.2107 4.03118 12.3248 4.04552 12.447C4.51845 16.4667 5.71898 17.5417 7.1392 17.8127C7.66863 18.3223 8.13668 18.8001 8.52902 19.2338C8.92317 19.7058 9.29111 20.1992 9.63118 20.7116C9.93949 22.8279 10.2908 27.0361 9.96042 29.7107C9.95173 29.7813 9.95813 29.8529 9.97919 29.9208C10.0002 29.9888 10.0355 30.0514 10.0826 30.1047C10.1297 30.158 10.1876 30.2006 10.2524 30.2299C10.3172 30.2591 10.3875 30.2743 10.4586 30.2743H12.0991C12.2148 30.2743 12.327 30.2344 12.4167 30.1612C12.5064 30.0881 12.568 29.9862 12.5912 29.8728C12.6216 29.7219 13.1622 27.045 13.5199 25.2327C13.6567 27.9096 13.6395 29.7451 13.6392 29.7681C13.6384 29.8345 13.6509 29.9003 13.6758 29.9618C13.7007 30.0234 13.7375 30.0793 13.7842 30.1265C13.8309 30.1737 13.8865 30.2112 13.9477 30.2367C14.009 30.2623 14.0747 30.2754 14.1411 30.2754H16.1716C16.2901 30.2754 16.4047 30.2335 16.4953 30.1571C16.5858 30.0807 16.6464 29.9747 16.6663 29.8579C16.6741 29.812 17.4498 25.2459 17.6586 22.4952C17.6643 22.4205 17.6531 22.3454 17.626 22.2756C17.5989 22.2057 17.5566 22.1428 17.502 22.0914C17.374 21.9678 17.258 21.8323 17.1556 21.6867C17.3882 21.6919 17.6302 21.6965 17.8792 21.7002C18.2533 21.7058 18.6182 21.7084 18.9736 21.7082H19.0309C19.3106 21.7082 19.5827 21.7062 19.8503 21.7031C19.9123 21.7031 19.9725 21.7011 20.0339 21.7002C20.2675 21.6968 20.4963 21.6921 20.7202 21.6862C20.7902 21.6844 20.8601 21.6827 20.9293 21.6804C21.2014 21.6721 21.4684 21.6626 21.7243 21.6517C22.0558 21.6365 22.3658 21.617 22.6658 21.5944C23.1344 22.2471 23.8792 23.1537 24.6791 23.6131L24.1116 29.7268C24.1051 29.7963 24.1133 29.8664 24.1355 29.9326C24.1577 29.9988 24.1934 30.0597 24.2405 30.1113C24.2875 30.1629 24.3448 30.2041 24.4087 30.2323C24.4726 30.2605 24.5416 30.2751 24.6114 30.2751H26.6434C26.7619 30.2751 26.8765 30.2332 26.9671 30.1568C27.0576 30.0804 27.1182 29.9744 27.1381 29.8576C27.1453 29.8166 27.7691 26.1438 28.0484 23.4021C28.1766 23.4818 28.3065 23.5587 28.4476 23.6275L27.8818 29.7268C27.8753 29.7963 27.8834 29.8664 27.9056 29.9326C27.9278 29.9988 27.9635 30.0597 28.0105 30.1113C28.0575 30.1629 28.1148 30.2041 28.1787 30.2323C28.2425 30.2605 28.3116 30.2751 28.3814 30.2751H30.4148C30.5333 30.2751 30.6479 30.2332 30.7385 30.1568C30.829 30.0804 30.8896 29.9744 30.9095 29.8576C30.9571 29.5765 32.0793 22.9492 31.9394 20.9121C31.9038 20.3827 31.8502 19.9057 31.7983 19.4446C31.6549 18.1706 31.5307 17.0704 31.8843 15.4868C32.1215 14.3886 32.1971 13.2618 32.1086 12.1418C32.8852 13.0048 33.3547 15.0176 33.5093 18.1543C33.1262 18.3584 32.7295 18.8661 32.7295 20.1016C32.7709 20.9789 33.0977 21.8187 33.6602 22.4932C33.7072 22.5472 33.7653 22.5904 33.8305 22.6201C33.8957 22.6497 33.9664 22.6651 34.038 22.6651C34.1096 22.6651 34.1804 22.6497 34.2456 22.6201C34.3108 22.5904 34.3688 22.5472 34.4159 22.4932C34.9784 21.8187 35.3052 20.9789 35.3465 20.1016C35.3477 18.8061 34.9129 18.308 34.514 18.1236ZM24.7749 9.73504C25.709 9.64069 26.5158 9.55895 27.1596 9.55895C27.2546 9.55895 27.3584 9.55723 27.4691 9.55522C27.9871 9.53122 28.5062 9.56208 29.0178 9.64728C27.5938 10.6972 26.2815 12.2067 25.3617 13.2658C25.0284 13.6498 24.7408 13.9811 24.5722 14.1411C24.1382 14.5506 22.8496 14.8719 21.7352 14.4635C20.8042 14.1225 20.2688 13.3865 20.144 12.2758C20.0868 11.503 19.9289 10.7411 19.6742 10.0092C19.9278 10.0129 20.1618 10.0158 20.3743 10.0158C21.845 9.99848 23.3139 9.90476 24.7749 9.73504ZM12.51 11.0775C12.5027 10.8041 12.478 10.5314 12.4361 10.261C12.9006 10.229 13.3672 10.2797 13.8141 10.4107C13.4622 10.7672 13.005 11.001 12.51 11.0775ZM12.2967 6.5189C12.1492 7.1265 11.8863 7.70008 11.5223 8.20842C11.3512 8.02873 11.1578 7.87154 10.947 7.74066C11.4247 7.36518 11.8756 6.95694 12.2967 6.5189ZM5.53801 7.74094C5.32775 7.87191 5.13501 8.02909 4.96442 8.20871C4.60041 7.70026 4.33752 7.12659 4.19007 6.5189C4.61054 6.95697 5.06094 7.3653 5.53801 7.74094ZM4.04925 10.2613C4.00727 10.5316 3.98255 10.8044 3.97526 11.0778C3.48013 11.0013 3.0228 10.7674 2.6709 10.4107C3.11786 10.2796 3.58458 10.229 4.04925 10.2613ZM5.04042 12.3297C4.85372 10.7423 5.05677 9.60369 5.64413 8.94549C6.28741 8.22534 7.30153 8.18089 8.03544 8.18089H8.29356C8.78278 8.16078 9.27254 8.20445 9.75049 8.31081C9.77553 8.32048 9.80134 8.32806 9.82763 8.33347C10.2167 8.43749 10.5681 8.65006 10.8409 8.94635C11.4282 9.60369 11.6313 10.742 11.4432 12.3306C10.9066 16.8938 9.5503 16.8952 8.24165 16.8966C7.9889 16.9018 7.73608 16.8905 7.48479 16.8628C7.46736 16.8592 7.44974 16.8566 7.43202 16.8551C6.40816 16.6988 5.46631 15.9511 5.04042 12.3297ZM12.9867 23.3186C12.893 23.394 12.8296 23.5006 12.808 23.6189C12.6437 24.5125 11.9293 28.0642 11.6864 29.2705H11.013C11.208 26.9951 11.0173 23.9438 10.7792 21.8035C11.5023 22.3511 12.2816 22.8203 13.104 23.203C13.0337 23.2782 12.9867 23.3186 12.9867 23.3186ZM20.8639 20.6781C20.7847 20.6804 20.7018 20.6818 20.6212 20.6841C20.4388 20.6887 20.253 20.6925 20.0637 20.6956C19.9461 20.6973 19.8272 20.6987 19.7069 20.6999C19.5262 20.7019 19.3418 20.7027 19.1551 20.703C19.0502 20.703 18.9472 20.703 18.8397 20.703C18.5761 20.703 18.3062 20.6999 18.0326 20.6961L17.712 20.4911C16.3018 19.5908 15.3703 18.9957 15.1001 18.2133C15.0649 18.1043 15.0606 17.9876 15.0876 17.8762C15.1146 17.7649 15.172 17.6632 15.2533 17.5824C15.7067 16.9979 16.802 16.562 17.6446 16.6325C18.7774 16.7263 19.2942 16.769 20.448 19.6006C20.6029 19.9797 20.7589 20.3391 20.9138 20.6758L20.8639 20.6781ZM26.2184 29.2708H25.1604L25.7093 23.3605C25.7194 23.2518 25.6938 23.1429 25.6364 23.0501C25.579 22.9573 25.4929 22.8857 25.3912 22.8462C24.961 22.679 24.4075 22.1866 23.8425 21.4851C24.6012 21.4157 25.3492 21.2579 26.0712 21.0148C26.3043 21.6205 26.6583 22.1725 27.1115 22.6372C26.9256 24.8587 26.4068 28.1222 26.2184 29.2708ZM30.802 19.5561C30.8524 20.0061 30.9049 20.4716 30.939 20.9792C31.0518 22.6191 30.2372 27.7645 29.9903 29.2705H28.932L29.4804 23.3602C29.4906 23.2519 29.4653 23.1433 29.4084 23.0507C29.3515 22.958 29.2661 22.8864 29.1649 22.8465C27.5712 22.2222 26.9127 20.6692 26.925 20.3583C26.9446 20.2575 26.9329 20.1532 26.8914 20.0594C26.8499 19.9655 26.7806 19.8866 26.6929 19.8333C26.6052 19.78 26.5033 19.7548 26.4008 19.7612C26.2984 19.7676 26.2004 19.8052 26.12 19.869C25.8444 20.0884 24.9375 20.4713 22.0047 20.6296C21.7965 20.2031 21.5875 19.7316 21.3781 19.2211C20.1925 16.311 19.427 15.7738 17.728 15.6322C16.5522 15.5361 15.1182 16.1214 14.4611 16.9672C14.279 17.1812 14.155 17.4384 14.1009 17.7141C14.0468 17.9898 14.0645 18.2748 14.1522 18.5417C14.4439 19.3869 15.1532 19.9975 16.1481 20.6709C16.0819 20.684 16.0191 20.7105 15.9635 20.7487C15.908 20.7869 15.8608 20.8361 15.8248 20.8932C15.7783 20.9672 15.752 21.0522 15.7484 21.1395C15.7449 21.2269 15.7642 21.3137 15.8045 21.3913C16.0285 21.842 16.3084 22.2627 16.6376 22.6435C16.4512 24.865 15.9327 28.1239 15.7443 29.2705H14.6409C14.6361 28.2704 14.5994 25.8863 14.3828 22.961C14.3828 22.9538 14.3794 22.9475 14.3785 22.9406C14.3747 22.9076 14.3676 22.875 14.3573 22.8434C14.3544 22.8345 14.3524 22.8253 14.349 22.8167C14.3343 22.7793 14.3151 22.7438 14.2916 22.7112C14.2856 22.7026 14.2781 22.6951 14.2716 22.6871C14.253 22.6639 14.2325 22.6424 14.2102 22.6228C14.199 22.6131 14.1884 22.6039 14.1763 22.5942C14.1489 22.5741 14.1195 22.5569 14.0886 22.5428C14.0828 22.5402 14.0783 22.5356 14.0725 22.5334C12.7624 22.0066 11.5635 21.237 10.5392 20.2651C10.5346 20.2576 10.5289 20.2513 10.524 20.2444C10.1392 19.6576 9.72015 19.094 9.26895 18.5566C9.07709 18.3447 8.86572 18.121 8.64087 17.8901C10.3588 17.8132 11.8923 17.1203 12.4421 12.4461C12.4564 12.324 12.4627 12.2095 12.4728 12.0917C12.987 12.0368 13.4827 11.869 13.9245 11.6001C14.3662 11.3313 14.7431 10.9681 15.0281 10.5366C15.0834 10.4601 15.116 10.3695 15.122 10.2753C15.1281 10.181 15.1074 10.087 15.0623 10.0041C16.3445 9.95616 17.5895 9.9728 18.5468 9.99C18.7826 10.3683 18.9813 10.9172 19.1491 12.3882C19.3152 13.8649 20.1119 14.9367 21.3924 15.4062C21.8606 15.5746 22.3547 15.6597 22.8522 15.6574C23.856 15.6574 24.7798 15.3279 25.2648 14.8701C25.4695 14.6757 25.7575 14.3442 26.122 13.9237C27.0624 12.8408 28.6019 11.0692 30.1185 10.1093C31.151 10.8966 31.4157 12.6366 30.9052 15.2794C30.5152 17.0145 30.6537 18.2492 30.802 19.5561ZM34.0402 21.2453C33.8507 20.8919 33.7464 20.4991 33.7356 20.0982C33.7356 19.3149 33.9223 19.0227 34.0402 19.0227C34.1581 19.0227 34.345 19.3149 34.345 20.0982C34.334 20.4992 34.2292 20.8921 34.039 21.2453H34.0402Z" fill="black"/>
</svg>
