<svg width="22" height="22" viewBox="0 0 22 22" fill="none" xmlns="http://www.w3.org/2000/svg">
<path d="M9.83821 1.24805H7.86309C2.92531 1.24805 0.950195 3.22324 0.950195 8.16123V14.0868C0.950195 19.0248 2.92531 21 7.86309 21H13.7884C18.7262 21 20.7013 19.0248 20.7013 14.0868V12.1116" stroke="#7D7D7D" stroke-width="1.365" stroke-linecap="round" stroke-linejoin="round"/>
<path d="M14.8167 2.25546L7.03473 10.0377C6.73846 10.334 6.44219 10.9167 6.38294 11.3414L5.95829 14.314C5.80028 15.3905 6.5607 16.1411 7.63714 15.9929L10.6097 15.5683C11.0245 15.509 11.6071 15.2127 11.9133 14.9165L19.6952 7.13419C21.0383 5.79106 21.6703 4.23066 19.6952 2.25546C17.7201 0.280268 16.1598 0.91233 14.8167 2.25546Z" stroke="#7D7D7D" stroke-width="1.365" stroke-miterlimit="10" stroke-linecap="round" stroke-linejoin="round"/>
<path d="M13.7002 3.37134C14.3619 5.7317 16.2086 7.5785 18.5787 8.25007" stroke="#7D7D7D" stroke-width="1.365" stroke-miterlimit="10" stroke-linecap="round" stroke-linejoin="round"/>
</svg>
