<svg width="18" height="18" viewBox="0 0 18 18" fill="none" xmlns="http://www.w3.org/2000/svg">
<g clip-path="url(#clip0_758_2104)">
<path d="M15.8008 2.57153H1.52256C0.684744 2.57153 0 3.25327 0 4.09409V13.2294C0 14.0706 0.685184 14.752 1.52256 14.752H15.8008C16.6386 14.752 17.3233 14.0703 17.3233 13.2294V4.09409C17.3233 3.25306 16.6382 2.57153 15.8008 2.57153ZM15.567 3.58657C15.0747 4.08045 9.2925 9.88149 9.05495 10.1198C8.85654 10.3188 8.46687 10.319 8.26836 10.1198L1.75635 3.58657H15.567ZM1.01504 13.0428V4.28069L5.3819 8.66176L1.01504 13.0428ZM1.75635 13.7369L6.09848 9.38068L7.54948 10.8364C8.14409 11.4329 9.17946 11.4327 9.77387 10.8364L11.2249 9.38071L15.567 13.7369H1.75635ZM16.3083 13.0428L11.9414 8.66176L16.3083 4.28069V13.0428Z" fill="black"/>
</g>
<defs>
<clipPath id="clip0_758_2104">
<rect width="17.3233" height="17.3233" fill="white"/>
</clipPath>
</defs>
</svg>
