<svg width="18" height="18" viewBox="0 0 18 18" fill="none" xmlns="http://www.w3.org/2000/svg">
<g clip-path="url(#clip0_758_2029)">
<path d="M15.1579 0H2.16541C0.971188 0 0 0.971188 0 2.16541V15.1579C0 16.3521 0.971188 17.3233 2.16541 17.3233H15.1579C16.3521 17.3233 17.3233 16.3521 17.3233 15.1579V2.16541C17.3233 0.971188 16.3521 0 15.1579 0Z" fill="#1976D2"/>
<path d="M14.6164 8.6617H11.9096V6.49629C11.9096 5.89864 12.3947 5.95494 12.9923 5.95494H14.075V3.24817H11.9096C10.1156 3.24817 8.66151 4.70224 8.66151 6.49629V8.6617H6.49609V11.3685H8.66151V17.3234H11.9096V11.3685H13.5337L14.6164 8.6617Z" fill="#FAFAFA"/>
</g>
<defs>
<clipPath id="clip0_758_2029">
<rect width="17.3233" height="17.3233" fill="white"/>
</clipPath>
</defs>
</svg>
