<svg width="26" height="24" viewBox="0 0 26 24" fill="none" xmlns="http://www.w3.org/2000/svg">
<path d="M25.7645 8.82741C25.6783 9.33065 25.6178 9.84022 25.5011 10.3359C25.1925 11.6465 24.5727 12.8053 23.799 13.8775C22.6047 15.5327 21.1526 16.9318 19.654 18.2803C17.8871 19.8703 16.111 21.449 14.3356 23.0289C13.6541 23.6352 12.9213 23.6617 12.2643 23.0725C9.95471 21.0007 7.63897 18.9353 5.35686 16.8306C4.18402 15.7489 3.12975 14.5433 2.27105 13.1701C0.731505 10.7095 0.313463 8.07254 1.28951 5.30091C2.17204 2.79481 3.88577 1.15484 6.45819 0.64148C9.12473 0.109154 11.2724 1.09731 12.9782 3.22218C13.0613 3.32587 13.1383 3.43398 13.219 3.53956C13.2288 3.5522 13.2434 3.56105 13.2831 3.59519C13.3754 3.47317 13.4665 3.34926 13.5612 3.22914C14.5501 1.97735 15.7553 1.06064 17.2973 0.683206C19.9859 0.0244372 22.84 1.18582 24.3924 3.54714C25.1588 4.71358 25.5836 6.00077 25.7205 7.39733C25.7291 7.48774 25.7492 7.57625 25.7645 7.66603C25.7645 8.05357 25.7645 8.44049 25.7645 8.82741ZM13.2642 21.9705C13.3284 21.9187 13.3797 21.8801 13.428 21.8371C15.4027 20.0714 17.389 18.3201 19.3466 16.5347C20.7138 15.2874 22.0144 13.9667 23.0277 12.3805C23.9921 10.8707 24.4688 9.2276 24.2476 7.40871C24.0086 5.44632 23.1964 3.81647 21.5108 2.79101C19.94 1.83573 18.2831 1.71814 16.6146 2.54634C15.6282 3.03568 14.9003 3.8348 14.2916 4.75783C14.2048 4.88997 14.1266 5.02842 14.0355 5.15676C13.6334 5.72576 12.9171 5.72323 12.5088 5.16056C12.1531 4.67059 11.8273 4.15028 11.4227 3.70773C10.1142 2.27829 8.4995 1.72383 6.63604 2.14046C4.62651 2.58997 3.30698 3.90687 2.63836 5.88887C1.86156 8.19203 2.23132 10.358 3.51478 12.3779C4.31053 13.631 5.28535 14.7285 6.35612 15.7255C8.12669 17.3737 9.93331 18.9808 11.7265 20.6024C12.2332 21.0608 12.7472 21.5109 13.2642 21.9705Z" fill="black"/>
</svg>
