<svg width="24" height="25" viewBox="0 0 24 25" fill="none" xmlns="http://www.w3.org/2000/svg">
<path d="M9.16006 11.2034C9.06006 11.1934 8.94006 11.1934 8.83006 11.2034C6.45006 11.1234 4.56006 9.17337 4.56006 6.77337C4.56006 4.32337 6.54006 2.33337 9.00006 2.33337C11.4501 2.33337 13.4401 4.32337 13.4401 6.77337C13.4301 9.17337 11.5401 11.1234 9.16006 11.2034Z" stroke="#343434" stroke-width="1.5" stroke-linecap="round" stroke-linejoin="round"/>
<path d="M16.4098 4.33337C18.3498 4.33337 19.9098 5.90337 19.9098 7.83337C19.9098 9.72337 18.4098 11.2634 16.5398 11.3334C16.4598 11.3234 16.3698 11.3234 16.2798 11.3334" stroke="#343434" stroke-width="1.5" stroke-linecap="round" stroke-linejoin="round"/>
<path d="M4.16021 14.8934C1.74021 16.5134 1.74021 19.1534 4.16021 20.7634C6.91021 22.6034 11.4202 22.6034 14.1702 20.7634C16.5902 19.1434 16.5902 16.5034 14.1702 14.8934C11.4302 13.0634 6.92021 13.0634 4.16021 14.8934Z" stroke="#343434" stroke-width="1.5" stroke-linecap="round" stroke-linejoin="round"/>
<path d="M18.3398 20.3334C19.0598 20.1834 19.7398 19.8934 20.2998 19.4634C21.8598 18.2934 21.8598 16.3634 20.2998 15.1934C19.7498 14.7734 19.0798 14.4934 18.3698 14.3334" stroke="#343434" stroke-width="1.5" stroke-linecap="round" stroke-linejoin="round"/>
</svg>
