<svg width="16" height="16" viewBox="0 0 16 16" fill="none" xmlns="http://www.w3.org/2000/svg">
<path d="M7.83084 9.72601C7.82934 9.72601 7.82784 9.72601 7.82634 9.72601C7.55034 9.72351 7.32834 9.49776 7.33084 9.22151L7.33309 8.97151C7.33309 8.95726 7.33384 8.94276 7.33534 8.92851C7.40459 8.20126 7.88734 7.75551 8.27559 7.39726C8.40709 7.27576 8.53159 7.16101 8.63759 7.04126C8.76684 6.89551 8.95434 6.59701 8.75709 6.23676C8.52984 5.82076 7.97484 5.70301 7.54359 5.80176C7.09309 5.90476 6.92709 6.28951 6.86809 6.50951C6.79659 6.77626 6.52234 6.9345 6.25559 6.86326C5.98884 6.79175 5.83059 6.51751 5.90184 6.25076C6.10109 5.50651 6.61809 4.98776 7.32009 4.82701C8.26484 4.61126 9.21634 4.99301 9.63409 5.75676C9.98184 6.39276 9.88659 7.13901 9.38534 7.70451C9.24609 7.86151 9.09734 7.99901 8.95334 8.13176C8.59459 8.46301 8.37034 8.6845 8.33234 9.00425L8.33034 9.23C8.32834 9.50525 8.10484 9.72601 7.83084 9.72601Z" fill="black"/>
<path d="M7.83008 11.225C7.70008 11.225 7.57008 11.1725 7.47758 11.08C7.38258 10.9875 7.33008 10.8575 7.33008 10.725C7.33008 10.595 7.38258 10.465 7.47758 10.3725C7.66258 10.1875 7.99758 10.1875 8.18258 10.3725C8.27758 10.465 8.33008 10.595 8.33008 10.725C8.33008 10.8575 8.27758 10.985 8.18508 11.08C8.09008 11.1725 7.96258 11.225 7.83008 11.225Z" fill="black"/>
<path d="M7.98104 14.4993C7.41229 14.4993 6.84854 14.4253 6.30529 14.279C3.96429 13.6493 2.13129 11.71 1.63554 9.33825C1.13029 6.922 2.06279 4.382 4.01154 2.86725C5.13804 1.9915 6.55879 1.509 8.01229 1.509C9.01854 1.509 10.0178 1.743 10.9023 2.18525C13.0865 3.278 14.4978 5.561 14.4978 8.00175C14.4978 9.99325 13.558 11.9128 11.984 13.1363C10.8535 14.0153 9.43179 14.4993 7.98104 14.4993ZM8.01254 2.509C6.78029 2.509 5.57729 2.9165 4.62554 3.65675C2.97629 4.93875 2.18679 7.0885 2.61454 9.1335C3.03404 11.1398 4.58479 12.7805 6.56529 13.3133C7.02379 13.4365 7.50029 13.4993 7.98104 13.4993C9.21054 13.4993 10.4143 13.09 11.3705 12.3468C12.7028 11.3113 13.498 9.687 13.498 8.00175C13.498 5.9365 12.3038 4.0045 10.4553 3.07975C9.70879 2.7065 8.86429 2.509 8.01254 2.509Z" fill="black"/>
</svg>
