<svg width="26" height="26" viewBox="0 0 26 26" fill="none" xmlns="http://www.w3.org/2000/svg">
<path d="M23.118 15.2712C23.118 15.4128 23.118 15.5105 23.118 15.6078C23.118 17.9572 23.1189 20.3066 23.1175 22.6555C23.1165 24.3469 21.9681 25.4982 20.2823 25.4992C19.0441 25.5002 17.806 25.4997 16.5673 25.4992C15.969 25.4987 15.6913 25.2181 15.6913 24.6113C15.6908 22.7435 15.6917 20.8751 15.6908 19.0073C15.6903 18.1238 15.1975 17.6319 14.3127 17.6309C13.6119 17.6299 12.9116 17.6285 12.2108 17.6314C11.3892 17.6349 10.8837 18.1385 10.8828 18.9582C10.8803 20.8344 10.8823 22.7105 10.8818 24.5867C10.8818 25.227 10.6124 25.4992 9.98075 25.4992C8.74255 25.4997 7.50436 25.5007 6.26568 25.4992C4.61181 25.4973 3.45754 24.34 3.45606 22.6796C3.4541 20.3223 3.45557 17.9646 3.45557 15.6073C3.45557 15.51 3.45557 15.4123 3.45557 15.2722C3.3427 15.2722 3.2416 15.2727 3.14001 15.2722C2.13542 15.2678 1.29622 14.7366 0.94974 13.8427C0.579706 12.8889 0.767668 12.026 1.48516 11.3012C3.02223 9.74839 4.57058 8.20736 6.11452 6.66142C7.92347 4.85012 9.76039 3.06584 11.5296 1.2172C12.4444 0.260935 14.1071 0.2629 15.0381 1.2113C18.3561 4.59115 21.7095 7.93611 25.0736 11.2698C26.116 12.3027 25.9776 14.2211 24.6683 14.9548C24.3203 15.1499 23.9532 15.2648 23.5533 15.2707C23.4178 15.2727 23.2814 15.2712 23.118 15.2712ZM17.1577 24.0314C18.2167 24.0314 19.2346 24.0314 20.2529 24.0314C21.1711 24.0314 21.6506 23.5503 21.6511 22.628C21.6516 19.9685 21.6506 17.3091 21.6516 14.6496C21.6516 14.0978 21.945 13.8069 22.4976 13.8044C22.8397 13.8029 23.1823 13.8093 23.5243 13.8015C23.8953 13.7931 24.1927 13.5567 24.2978 13.201C24.419 12.7906 24.2222 12.5012 23.9473 12.2265C20.6322 8.91203 17.3206 5.59459 14.0079 2.27764C13.5005 1.76953 13.073 1.77199 12.5607 2.28452C9.6112 5.23783 6.66123 8.19114 3.71175 11.1445C3.30834 11.5484 2.90297 11.9499 2.50251 12.3562C2.23603 12.6265 2.15751 12.9489 2.31062 13.2992C2.45834 13.6373 2.73415 13.8034 3.10566 13.8034C3.38245 13.8034 3.65973 13.8034 3.93652 13.8034C4.67659 13.8034 4.92295 14.0472 4.92295 14.7793C4.92295 17.398 4.94062 20.0167 4.91314 22.6353C4.90381 23.5272 5.54818 24.0648 6.30396 24.0388C7.24769 24.0059 8.19388 24.0309 9.13909 24.0309C9.22497 24.0309 9.31086 24.0309 9.41588 24.0309C9.41588 23.8997 9.41588 23.8034 9.41588 23.7066C9.41784 22.0506 9.40214 20.3946 9.42668 18.7385C9.44631 17.4354 10.4906 16.2909 11.7902 16.2034C12.7869 16.1366 13.7915 16.1897 14.7932 16.1926C14.8736 16.1926 14.9546 16.2123 15.0336 16.2304C16.3047 16.5209 17.1473 17.567 17.1557 18.8938C17.1655 20.5007 17.1581 22.1081 17.1581 23.7149C17.1577 23.8113 17.1577 23.9076 17.1577 24.0314Z" fill="black"/>
</svg>
