<svg width="26" height="26" viewBox="0 0 26 26" fill="none" xmlns="http://www.w3.org/2000/svg">
<path d="M22.5656 8.67748L15.4698 3.00081C14.0831 1.89581 11.9165 1.88498 10.5406 2.98998L3.4448 8.67748C2.42646 9.48998 1.80896 11.115 2.02563 12.3933L3.39063 20.5616C3.7048 22.3925 5.40563 23.8333 7.25813 23.8333H18.7415C20.5723 23.8333 22.3056 22.36 22.6198 20.5508L23.9848 12.3825C24.1798 11.115 23.5623 9.48998 22.5656 8.67748ZM13.8123 19.5C13.8123 19.9441 13.444 20.3125 12.9998 20.3125C12.5556 20.3125 12.1873 19.9441 12.1873 19.5V16.25C12.1873 15.8058 12.5556 15.4375 12.9998 15.4375C13.444 15.4375 13.8123 15.8058 13.8123 16.25V19.5Z" fill="#25559D"/>
</svg>
