<svg width="35" height="35" viewBox="0 0 35 35" fill="none" xmlns="http://www.w3.org/2000/svg">
<g clip-path="url(#clip0_758_1945)">
<path d="M25.4523 29.5392C25.2506 28.7647 24.5204 28.2296 23.3947 28.0305V26.5315C23.3947 26.2531 23.1691 26.0274 22.8907 26.0274C22.6122 26.0274 22.3866 26.2531 22.3866 26.5315V28.0546C22.3866 28.5334 22.7275 28.9392 23.1973 29.0195C23.4583 29.0642 23.9943 29.1878 24.2897 29.4812H21.6301C21.6301 21.8794 21.6403 22.3279 21.6085 22.2231C21.3571 21.3903 20.7043 19.0089 20.7043 18.0032C20.7043 17.7249 20.4787 17.4992 20.2003 17.4992C19.9218 17.4992 19.6962 17.7249 19.6962 18.0032C19.6962 18.3203 19.7458 18.7281 19.822 19.1684C18.5638 19.4702 14.7438 20.1382 11.3604 18.1864C11.5231 17.482 11.5434 16.7232 11.2795 15.9773C11.1866 15.7149 10.8986 15.5773 10.6361 15.6703C10.3738 15.7632 10.2362 16.0512 10.3291 16.3137C10.9058 17.9436 9.56592 19.8539 9.14144 20.4006C8.82173 20.8124 8.84041 20.8458 7.79655 23.4005C7.59795 23.8864 7.54922 24.415 7.65561 24.929L8.28864 27.9887C8.37325 28.3972 8.70775 28.7035 9.12114 28.7509C9.64354 28.8107 10.0206 29.056 10.2446 29.4812H7.70884C7.67047 29.4812 7.63794 29.4537 7.63155 29.4158C7.63075 29.411 7.62987 29.4062 7.62893 29.4014C6.85047 25.496 6.58305 24.2244 6.56343 23.9909C6.58117 23.9237 6.62485 23.7101 6.78924 23.2411C6.78951 23.2404 6.78992 23.2398 6.79012 23.2391C7.41642 21.4526 8.00227 21.3908 6.33082 19.0541C5.80304 18.3162 5.68187 18.1054 5.68187 18.1054C5.21262 17.3556 4.82974 16.5145 4.82974 15.5186C4.82974 12.953 6.39514 11.5294 8.57515 11.5294C10.4435 11.5294 12.2156 12.4367 14.8076 12.6631C15.0841 12.6869 15.3294 12.4822 15.3536 12.2048C15.3778 11.9275 15.1727 11.6829 14.8953 11.6587C12.3915 11.4401 10.6221 10.5212 8.57528 10.5212C7.28597 10.5212 6.11166 10.9597 5.26854 11.756C5.19522 11.8253 5.12559 11.8978 5.05771 11.9718C4.06237 11.6381 2.22404 11.3455 0.80496 12.9771C-1.44306 15.5617 1.8989 21.0485 0.36045 24.7319C-0.00751036 25.6131 1.04025 26.4091 1.78431 25.8107C2.409 25.3083 2.90667 24.795 3.30037 24.2777L2.82569 28.4152C2.75424 28.9386 3.06602 29.4346 3.56981 29.5964L6.22087 30.4485C6.48298 30.5328 6.77056 30.4839 6.98999 30.3176C7.01103 30.3016 7.03045 30.284 7.04974 30.2663C7.23348 30.4066 7.46219 30.4894 7.70911 30.4894H10.4938C11.0796 30.4894 11.4884 29.9064 11.2884 29.3551C11.0963 28.8255 10.5792 27.9176 9.2698 27.7533C8.59336 24.4839 8.48784 24.3745 8.73006 23.7819C9.75679 21.2697 9.71989 21.3 9.93811 21.0188C10.236 20.6352 10.6992 19.9691 11.0405 19.1616C13.7633 20.6563 17.1173 20.8567 20.0229 20.1592C20.2555 21.1871 20.5408 22.1674 20.6223 22.4425V29.4976C20.6223 30.0445 21.0672 30.4893 21.6141 30.4893H24.7175C24.9544 30.4893 25.1734 30.3817 25.3185 30.1942C25.463 30.007 25.5119 29.7683 25.4523 29.5392ZM4.57805 21.2162C4.76146 19.7997 4.46461 18.4562 4.16284 17.3331C4.41118 17.9887 4.79661 18.5958 4.79661 18.5958C5.42413 20.5554 5.20422 20.4632 4.57805 21.2162ZM1.40875 24.8112C2.77226 20.9122 -0.156442 15.6181 1.56528 13.6388C2.31256 12.7795 3.31993 12.5449 4.44115 12.8377C4.33275 13.0383 4.22037 13.2887 4.13368 13.5386C2.05791 13.8617 2.69114 15.7949 3.05567 17.1083C3.68419 19.3725 4.46259 22.176 1.40875 24.8112ZM3.87379 14.6659C3.80671 15.194 3.79549 15.7781 3.89099 16.3411C3.62922 15.3543 3.57666 14.8484 3.87379 14.6659ZM5.86884 22.8197C5.52682 23.2396 5.28736 23.6599 5.22008 24.2864L4.88647 27.3929C4.84191 27.8077 5.06672 28.2018 5.44583 28.3733C5.92475 28.5902 6.20857 28.9391 6.29184 29.4124L3.87782 28.6365C3.84132 28.6248 3.81881 28.5887 3.82425 28.5506C3.82499 28.5458 3.8256 28.541 3.82614 28.5361L4.4437 23.1547C4.47549 22.8768 5.54241 21.6336 5.7445 21.4036C5.96488 21.153 6.08827 20.879 6.14298 20.5872C6.63917 21.4575 6.35159 21.472 5.86884 22.8197ZM6.25454 27.6706C6.14493 27.5986 6.02496 27.5308 5.89229 27.4691L6.00453 26.4242C6.01575 26.4802 6.02698 26.5361 6.03874 26.5948C6.10225 26.9111 6.17389 27.2683 6.25454 27.6706Z" fill="black"/>
<path d="M34.2483 12.2284L33.0792 10.1912L32.8619 8.88741C32.851 8.82175 32.8272 8.75898 32.7919 8.70259L31.8416 7.18619C31.8081 7.13276 31.7912 7.07073 31.7928 7.00695C31.806 6.48965 31.7303 5.17729 30.7427 4.16474C30.4272 3.84114 29.9049 3.83879 29.5849 4.16172C29.5688 4.17798 29.5518 4.19559 29.5344 4.21401C28.9873 4.25547 27.5162 4.42914 25.8121 5.1447C23.8884 5.95246 21.3053 7.6305 19.8183 11.0439C19.2569 11.2654 18.366 11.5346 17.1557 11.6494C16.8786 11.6757 16.6753 11.9217 16.7015 12.1989C16.7263 12.4599 16.9458 12.6554 17.2027 12.6554C17.2187 12.6554 17.2348 12.6547 17.2509 12.6531C18.3158 12.5521 19.4145 12.3133 20.3986 11.8945C20.7992 11.7228 21.0255 11.5832 21.0255 11.5832C21.0518 11.5674 21.0346 11.5777 21.0508 11.5678C21.0581 11.5634 21.065 11.559 21.0662 11.5583C21.0683 11.557 21.0733 11.5538 21.0737 11.5535C21.1006 11.5363 21.1256 11.5164 21.1487 11.4944C23.2379 9.49859 25.9774 7.98212 28.6877 7.21435C28.7287 7.42619 28.7882 7.64743 28.8715 7.87876C28.966 8.14067 29.255 8.27636 29.5168 8.18193C29.7786 8.08751 29.9144 7.79872 29.82 7.53674C29.4589 6.53501 29.6239 5.67745 30.1613 5.02675C30.1614 5.02661 30.1615 5.02641 30.1617 5.02621C30.7476 5.74082 30.7941 6.61896 30.7849 6.98127C30.7782 7.24378 30.8482 7.49984 30.9872 7.7217L31.884 9.15261L32.0997 10.4464C32.1095 10.5056 32.1298 10.5625 32.1597 10.6144L33.3738 12.7302C33.4253 12.8197 33.4005 12.9322 33.3162 12.9919L32.8415 13.3279C32.7532 13.3903 32.6315 13.3806 32.5516 13.3049C31.6406 12.4407 30.6319 11.9361 30.1119 11.7121C29.8045 11.5799 29.7354 11.3632 29.5134 10.9376C29.2731 10.4767 28.6865 10.3256 28.2546 10.61C25.9296 12.1407 24.7776 14.4414 24.8279 14.8795C24.8999 15.5094 24.8993 17.986 23.2388 19.928C23.1982 19.9756 23.1668 20.0301 23.1461 20.0891C22.351 22.3608 22.3864 22.227 22.3864 22.3454V24.1789C22.3864 24.4573 22.612 24.683 22.8904 24.683C23.1689 24.683 23.3945 24.4574 23.3945 24.1789V22.4312L23.7237 21.4907C24.3334 21.7678 24.8026 21.8586 25.6492 22.0271C27.7964 22.4542 27.8818 22.6317 27.8818 25.6444C27.8818 26.1699 28.3092 26.5972 28.8346 26.5972H30.8597C31.3483 26.5972 31.7322 26.1755 31.6838 25.6899C31.6096 24.9486 31.2631 24.4102 30.7062 24.1688C30.5861 23.1402 30.096 20.7657 28.1155 19.6755C26.3217 18.6881 25.8883 17.9972 25.8261 17.8834C25.8015 17.7891 25.7414 17.5735 25.6368 17.2817C25.8943 16.1558 25.8652 15.2369 25.8413 14.8991C26.5693 13.1527 27.9886 12.0134 28.6873 11.5339C28.8562 11.8576 29.0622 12.358 29.7133 12.6382C30.1717 12.8355 31.06 13.2795 31.8576 14.0362C32.2853 14.442 32.944 14.4904 33.4239 14.1508L33.8986 13.8148C34.4096 13.4532 34.5599 12.7713 34.2483 12.2284ZM28.634 6.18339C26.2725 6.81628 23.738 8.07689 21.7228 9.66365C23.3781 7.24815 25.9992 5.78303 28.8375 5.31634C28.7341 5.5851 28.663 5.88136 28.634 6.18339ZM27.6296 20.5587C29.2758 21.4649 29.6383 23.6759 29.7102 24.332C29.7472 24.669 29.9701 24.9588 30.2919 25.0882C30.4985 25.1713 30.5998 25.3802 30.6482 25.5891H28.8902C28.8902 25.5775 28.8903 24.4555 28.8899 24.4439C28.7969 21.6252 27.5593 21.3791 25.8461 21.0383C25.0154 20.873 24.5954 20.7927 24.0585 20.5347L24.0672 20.5099C24.531 19.952 24.8958 19.344 25.1718 18.7061C25.509 19.1261 26.2056 19.7749 27.6296 20.5587Z" fill="black"/>
<path d="M30.9753 10.3051C31.229 10.3051 31.4346 10.0994 31.4346 9.84582C31.4346 9.5922 31.229 9.3866 30.9753 9.3866C30.7217 9.3866 30.5161 9.5922 30.5161 9.84582C30.5161 10.0994 30.7217 10.3051 30.9753 10.3051Z" fill="black"/>
</g>
<defs>
<clipPath id="clip0_758_1945">
<rect width="34.41" height="34.41" fill="white"/>
</clipPath>
</defs>
</svg>
