<svg width="18" height="24" viewBox="0 0 18 24" fill="none" xmlns="http://www.w3.org/2000/svg">
<path d="M9.22403 0.825562C13.8081 0.825562 17.5242 4.1353 17.5242 9.80913C17.5242 14.1261 12.7192 20.3591 10.421 23.0934C9.75994 23.8517 8.65028 23.822 8.02747 23.0939C5.72948 20.3599 0.923828 14.1264 0.923828 9.80913C0.923828 4.1353 4.63996 0.825562 9.22403 0.825562ZM9.22403 6.02657C7.60612 6.02657 6.29455 7.2967 6.29455 8.86349C6.29455 10.4303 7.60612 11.7004 9.22403 11.7004C10.8419 11.7004 12.1535 10.4303 12.1535 8.86349C12.1535 7.2967 10.8419 6.02657 9.22403 6.02657Z" fill="#222222"/>
</svg>
