<svg width="14" height="14" viewBox="0 0 14 14" fill="none" xmlns="http://www.w3.org/2000/svg">
<path d="M2.91569 1.16663H6.41569C6.5704 1.16663 6.71877 1.22808 6.82817 1.33748C6.93757 1.44688 6.99902 1.59525 6.99902 1.74996C6.99902 1.90467 6.93757 2.05304 6.82817 2.16244C6.71877 2.27183 6.5704 2.33329 6.41569 2.33329H2.91569C2.76098 2.33329 2.61261 2.39475 2.50321 2.50415C2.39382 2.61354 2.33236 2.76192 2.33236 2.91663V11.0833C2.33236 11.238 2.39382 11.3864 2.50321 11.4958C2.61261 11.6052 2.76098 11.6666 2.91569 11.6666H6.41569C6.5704 11.6666 6.71877 11.7281 6.82817 11.8375C6.93757 11.9469 6.99902 12.0952 6.99902 12.25C6.99902 12.4047 6.93757 12.553 6.82817 12.6624C6.71877 12.7718 6.5704 12.8333 6.41569 12.8333H2.91569C2.45156 12.8333 2.00644 12.6489 1.67825 12.3207C1.35007 11.9925 1.16569 11.5474 1.16569 11.0833V2.91663C1.16569 2.4525 1.35007 2.00738 1.67825 1.67919C2.00644 1.351 2.45156 1.16663 2.91569 1.16663Z" fill="black"/>
<path d="M9.50307 8.92089C9.44736 8.9747 9.40292 9.03907 9.37235 9.11024C9.34177 9.18141 9.32568 9.25795 9.32501 9.33541C9.32434 9.41286 9.3391 9.48968 9.36843 9.56137C9.39776 9.63305 9.44107 9.69819 9.49584 9.75296C9.55061 9.80773 9.61574 9.85104 9.68743 9.88037C9.75912 9.9097 9.83594 9.92446 9.91339 9.92379C9.99084 9.92312 10.0674 9.90702 10.1386 9.87645C10.2097 9.84588 10.2741 9.80144 10.3279 9.74573L12.6612 7.41239C12.7706 7.303 12.832 7.15465 12.832 6.99998C12.832 6.8453 12.7706 6.69695 12.6612 6.58756L10.3279 4.25423C10.2741 4.19851 10.2097 4.15407 10.1386 4.1235C10.0674 4.09293 9.99084 4.07684 9.91339 4.07616C9.83594 4.07549 9.75912 4.09025 9.68743 4.11958C9.61574 4.14891 9.55061 4.19222 9.49584 4.247C9.44107 4.30177 9.39776 4.3669 9.36843 4.43859C9.3391 4.51028 9.32434 4.58709 9.32501 4.66454C9.32568 4.742 9.34177 4.81854 9.37235 4.88971C9.40292 4.96088 9.44736 5.02525 9.50307 5.07906L10.8407 6.41664H4.08216C3.92745 6.41664 3.77907 6.4781 3.66968 6.5875C3.56028 6.69689 3.49882 6.84527 3.49882 6.99998C3.49882 7.15469 3.56028 7.30306 3.66968 7.41245C3.77907 7.52185 3.92745 7.58331 4.08216 7.58331H10.8407L9.50307 8.92089Z" fill="black"/>
</svg>
