<svg width="23" height="14" viewBox="0 0 23 14" fill="none" xmlns="http://www.w3.org/2000/svg">
<path d="M15.9386 0.5C14.2569 0.5 12.7128 1.04145 11.5 1.94487C13.0997 3.13648 14.1228 4.95811 14.1228 7C14.1228 9.04189 13.0997 10.8635 11.5 12.0551C12.7128 12.9586 14.2569 13.5 15.9386 13.5C19.8386 13.5 23 10.5899 23 7C23 3.41005 19.8386 0.5 15.9386 0.5Z" fill="#F79F1A"/>
<path d="M8.87722 7C8.87722 4.95811 9.90033 3.13648 11.5 1.94487C10.2872 1.04145 8.74314 0.5 7.06138 0.5C3.16138 0.5 0 3.41005 0 7C0 10.5899 3.16138 13.5 7.06138 13.5C8.74314 13.5 10.2872 12.9586 11.5 12.0551C9.90033 10.8635 8.87722 9.04189 8.87722 7Z" fill="#EA0A1B"/>
<path d="M14.1225 6.99995C14.1225 4.95806 13.0994 3.13644 11.4997 1.94482C9.90006 3.13644 8.87695 4.95806 8.87695 6.99995C8.87695 9.04185 9.90006 10.8635 11.4997 12.0551C13.0994 10.8635 14.1225 9.04185 14.1225 6.99995Z" fill="#FF5F01"/>
</svg>
