<svg width="19" height="16" viewBox="0 0 19 16" fill="none" xmlns="http://www.w3.org/2000/svg">
<path d="M9.53972 8.82167C9.88211 8.82167 10.1919 8.65626 10.5424 8.27323L17.6347 0.777572C17.3332 0.464146 16.7707 0.316162 15.9637 0.316162H2.83866C2.15387 0.316162 1.67289 0.455454 1.40389 0.74273L8.53701 8.27323C8.88754 8.64757 9.20546 8.82167 9.53972 8.82167ZM0.727263 13.9146L6.49082 7.82924L0.71095 1.74389C0.588655 1.98767 0.523438 2.40554 0.523438 3.00624V12.6174C0.523438 13.2355 0.596794 13.6708 0.727263 13.9146ZM18.3359 13.9058C18.4582 13.6534 18.5234 13.2268 18.5234 12.6174V3.00624C18.5234 2.42296 18.4663 2.00509 18.344 1.77004L12.5886 7.82924L18.3359 13.9058ZM3.08322 15.3162H16.2081C16.8929 15.3162 17.3658 15.1769 17.6347 14.8983L11.7652 8.68237L11.219 9.26565C10.6647 9.84024 10.1348 10.1014 9.53972 10.1014C8.94459 10.1014 8.41471 9.84024 7.86038 9.26565L7.31419 8.68237L1.45279 14.8896C1.76256 15.1769 2.30875 15.3162 3.08322 15.3162Z" fill="black"/>
</svg>
