<svg width="19" height="24" viewBox="0 0 19 24" fill="none" xmlns="http://www.w3.org/2000/svg">
<g clip-path="url(#clip0_1619_11539)">
<path d="M18.5234 23.0503C18.5234 23.5748 18.091 24 17.5575 24H1.48936C0.955887 24 0.523438 23.5748 0.523438 23.0503V0.949733C0.523438 0.4252 0.955887 0 1.48936 0H17.5575C18.091 0 18.5234 0.4252 18.5234 0.949733V23.0503Z" fill="#231F20"/>
<path d="M14.7881 8.87086L14.7878 8.85352C14.7698 7.69392 14.3709 6.60339 13.6341 5.69966C12.7834 4.65606 11.5479 3.97459 10.21 3.80192L10.2107 3.79406L9.92649 3.77299C9.92649 3.77299 9.92635 3.77299 9.92622 3.77299C9.88743 3.77019 9.84838 3.76859 9.80933 3.76646V3.75806H9.52428H9.52401H9.23869V3.76646C9.19964 3.76846 9.16045 3.77006 9.12167 3.77299L8.83716 3.79419L8.83771 3.80179C7.54863 3.96606 6.38106 4.58619 5.52552 5.56752C4.72856 6.48166 4.27943 7.64872 4.26071 8.85352L4.26044 8.87086C4.26004 8.89192 4.25977 8.91299 4.25977 8.93419C4.25977 10.1246 4.6811 11.2871 5.44619 12.2075C6.31936 13.2581 7.58104 13.9299 8.94199 14.0786L8.94144 14.0865L9.22622 14.1021C9.23042 14.1023 9.23463 14.1025 9.23897 14.1026V14.1105H9.52401H9.52428H9.80933V14.1026C9.81353 14.1025 9.8176 14.1023 9.82167 14.1021L10.1064 14.0865L10.106 14.0789C11.5322 13.9242 12.8344 13.2025 13.7126 12.0702C14.4167 11.1625 14.7888 10.0781 14.7888 8.93432C14.7889 8.91299 14.7885 8.89192 14.7881 8.87086ZM11.2746 11.2623C11.2506 11.325 11.2257 11.3873 11.1998 11.449C11.1951 11.4603 11.1899 11.4713 11.1852 11.4825C11.1638 11.5327 11.1418 11.5827 11.1191 11.6322C11.1095 11.6531 11.0995 11.6738 11.0897 11.6946C11.071 11.7342 11.052 11.7735 11.0325 11.8126C11.0212 11.8351 11.0097 11.8577 10.9982 11.8799C10.9789 11.9173 10.9594 11.9543 10.9395 11.991C10.9275 12.0129 10.9157 12.0349 10.9035 12.0566C10.8822 12.0949 10.8603 12.1327 10.8382 12.1705C10.8269 12.1895 10.8161 12.2087 10.8047 12.2277C10.7746 12.2774 10.7439 12.3267 10.7126 12.3754C10.7088 12.3814 10.7051 12.3875 10.7012 12.3934C10.666 12.4477 10.6299 12.501 10.593 12.5537C10.5813 12.5703 10.5693 12.5866 10.5575 12.6033C10.5317 12.6393 10.5057 12.675 10.4792 12.7103C10.4647 12.7297 10.4499 12.7487 10.4351 12.7678C10.4103 12.7999 10.3852 12.8317 10.3599 12.8631C10.3444 12.8823 10.3288 12.9014 10.313 12.9203C10.2869 12.9518 10.2604 12.9826 10.2336 13.0134C10.2185 13.0307 10.2034 13.0483 10.1881 13.0654C10.1567 13.1003 10.125 13.1346 10.093 13.1685C10.0818 13.1803 10.0709 13.1925 10.0597 13.2042C10.0163 13.2493 9.97219 13.2935 9.9273 13.3367C9.91686 13.3467 9.90628 13.3563 9.89584 13.3662C9.86737 13.3933 9.83848 13.4198 9.80946 13.4461V10.873C9.82858 10.8735 9.84784 10.8735 9.86696 10.8741C9.89259 10.875 9.91835 10.8761 9.94385 10.8771C9.9985 10.8795 10.053 10.883 10.1073 10.8869C10.1291 10.8885 10.1509 10.8897 10.1728 10.8915C10.2477 10.8978 10.3225 10.9051 10.3969 10.9141C10.4061 10.9151 10.4155 10.9166 10.4247 10.9178C10.4899 10.9259 10.555 10.9353 10.6198 10.9455C10.6434 10.9491 10.6669 10.9534 10.6904 10.9574C10.7424 10.9662 10.7942 10.9758 10.8459 10.9859C10.8699 10.9907 10.894 10.9954 10.918 11.0003C10.9764 11.0126 11.0345 11.0258 11.0924 11.0399C11.1072 11.0435 11.1221 11.0467 11.1369 11.0503C11.2024 11.0667 11.2675 11.0846 11.3325 11.1031C11.3198 11.1387 11.3072 11.1743 11.2941 11.2097C11.2874 11.2271 11.2812 11.245 11.2746 11.2623ZM8.9649 13.1807C8.93236 13.1467 8.90008 13.1123 8.86835 13.0773C8.85357 13.061 8.83906 13.0443 8.82442 13.0277C8.79811 12.9978 8.77194 12.9677 8.74617 12.9371C8.73071 12.9189 8.71552 12.9003 8.70034 12.8819C8.67552 12.8517 8.65111 12.821 8.62684 12.7902C8.61233 12.7715 8.59768 12.753 8.58344 12.7342C8.55808 12.7009 8.53313 12.667 8.50845 12.633C8.49638 12.6163 8.48404 12.5999 8.47211 12.583C8.43645 12.5326 8.40132 12.4818 8.36715 12.4299C8.36579 12.4278 8.3643 12.4255 8.36281 12.4231C8.32945 12.3725 8.29691 12.3209 8.2649 12.2687C8.25392 12.2509 8.24334 12.2325 8.23249 12.2143C8.21066 12.1778 8.18896 12.1411 8.16794 12.1038C8.15588 12.0827 8.14421 12.0613 8.13242 12.0399C8.11302 12.0046 8.09377 11.9691 8.07505 11.9333C8.06353 11.9113 8.052 11.8893 8.04075 11.867C8.0219 11.8298 8.00332 11.7922 7.98515 11.7545C7.97511 11.7338 7.96508 11.7131 7.95518 11.6923C7.93375 11.6466 7.913 11.6003 7.89266 11.5539C7.88697 11.5407 7.88073 11.5278 7.87503 11.5145C7.84927 11.4546 7.82432 11.3939 7.80032 11.3329C7.79408 11.3171 7.78838 11.301 7.78228 11.2851C7.76831 11.2486 7.75475 11.2119 7.74133 11.175C7.81238 11.1514 7.88385 11.1294 7.95572 11.1085C7.97633 11.1025 7.99695 11.0969 8.01756 11.0911C8.07465 11.0753 8.13187 11.0603 8.18937 11.0461C8.21053 11.0409 8.23168 11.0355 8.25283 11.0305C8.32837 11.0127 8.40417 10.9961 8.48065 10.9813C8.48648 10.9802 8.49232 10.9793 8.49815 10.9782C8.5692 10.9647 8.64053 10.9526 8.71227 10.9417C8.73464 10.9382 8.75729 10.935 8.77967 10.9318C8.84001 10.9233 8.90049 10.9157 8.96124 10.9087C8.9805 10.9066 8.99975 10.9042 9.01901 10.9022C9.09197 10.8947 9.16506 10.8887 9.23869 10.8838V13.4459C9.21198 13.4219 9.1854 13.3977 9.15909 13.373C9.14743 13.3621 9.1355 13.3513 9.12397 13.3403C9.0799 13.2982 9.03664 13.2553 8.99406 13.2115C8.9843 13.2017 8.9748 13.1911 8.9649 13.1807ZM7.82011 6.40992C7.83652 6.36926 7.85347 6.32912 7.87083 6.28899C7.87815 6.27179 7.88521 6.25459 7.89266 6.23739C7.91761 6.18059 7.94338 6.12419 7.96982 6.06846C7.97308 6.06152 7.9766 6.05486 7.97999 6.04792C8.00345 5.99926 8.02732 5.95099 8.05187 5.90326C8.06136 5.88486 8.07112 5.86686 8.08075 5.84872C8.09973 5.81272 8.11885 5.77686 8.13852 5.74139C8.14991 5.72086 8.16157 5.70059 8.17323 5.68019C8.19195 5.64752 8.2108 5.61486 8.23005 5.58259C8.24239 5.56192 8.255 5.54126 8.26762 5.52072C8.28701 5.48912 8.30667 5.45779 8.32674 5.42672C8.33949 5.40672 8.35237 5.38672 8.36539 5.36686C8.38641 5.33499 8.4077 5.30366 8.42926 5.27232C8.44187 5.25419 8.45421 5.23579 8.46696 5.21779C8.49177 5.18272 8.517 5.14819 8.54249 5.11392C8.55253 5.10046 8.56229 5.08672 8.57232 5.07326C8.60826 5.02579 8.64487 4.97886 8.68216 4.93272C8.68772 4.92579 8.69356 4.91912 8.69939 4.91219C8.73112 4.87339 8.76326 4.83499 8.7958 4.79739C8.80896 4.78206 8.82265 4.76712 8.83608 4.75206C8.86171 4.72312 8.88747 4.69446 8.91365 4.66619C8.92924 4.64939 8.94511 4.63286 8.96084 4.61632C8.98552 4.59032 9.01047 4.56446 9.03569 4.53912C9.05237 4.52232 9.06932 4.50566 9.08614 4.48912C9.11136 4.46446 9.13685 4.44006 9.16248 4.41592C9.17957 4.39992 9.19666 4.38392 9.21388 4.36806C9.22215 4.36046 9.23069 4.35326 9.2391 4.34566V6.83152C9.16737 6.82686 9.09576 6.82099 9.02457 6.81379C9.00559 6.81179 8.98674 6.80952 8.96775 6.80739C8.90781 6.80072 8.84788 6.79326 8.78834 6.78486C8.76597 6.78179 8.74359 6.77859 8.72135 6.77526C8.64948 6.76432 8.57788 6.75246 8.50669 6.73899C8.50208 6.73806 8.49747 6.73739 8.49286 6.73659C8.41746 6.72206 8.34247 6.70579 8.26775 6.68846C8.2466 6.68352 8.22571 6.67832 8.20469 6.67326C8.1472 6.65926 8.08997 6.64446 8.03302 6.62872C8.01349 6.62339 7.99396 6.61819 7.97457 6.61259C7.90487 6.59259 7.83557 6.57139 7.76669 6.54886C7.77591 6.52432 7.78513 6.49979 7.79462 6.47552C7.80303 6.45366 7.8113 6.43166 7.82011 6.40992ZM10.2246 4.76592C10.2381 4.78139 10.2519 4.79646 10.2652 4.81206C10.3 4.85232 10.3339 4.89326 10.3675 4.93472C10.3721 4.94046 10.377 4.94592 10.3816 4.95166C10.4196 4.99899 10.4567 5.04712 10.4932 5.09606C10.5043 5.11099 10.5152 5.12632 10.5261 5.14139C10.5512 5.17566 10.5762 5.21006 10.6006 5.24499C10.614 5.26406 10.6269 5.28366 10.6401 5.30299C10.6616 5.33472 10.6829 5.36659 10.7039 5.39886C10.7173 5.41966 10.7306 5.44072 10.7439 5.46166C10.764 5.49339 10.7837 5.52539 10.8031 5.55766C10.8161 5.57912 10.829 5.60072 10.8417 5.62232C10.861 5.65539 10.8799 5.68872 10.8987 5.72232C10.9106 5.74352 10.9225 5.76472 10.9342 5.78619C10.9538 5.82246 10.9731 5.85926 10.9921 5.89619C11.0018 5.91526 11.012 5.93406 11.0216 5.95326C11.0465 6.00272 11.0706 6.05272 11.0943 6.10326C11.0976 6.11019 11.101 6.11686 11.1042 6.12379C11.1309 6.18139 11.1567 6.23952 11.1817 6.29819C11.1893 6.31592 11.1963 6.33406 11.2038 6.35192C11.221 6.39312 11.2378 6.43446 11.2541 6.47632C11.2629 6.49886 11.2713 6.52179 11.28 6.54459C11.2893 6.56952 11.2986 6.59459 11.3076 6.61966C11.2449 6.63739 11.1819 6.65459 11.1185 6.67019C11.1065 6.67312 11.0943 6.67566 11.0824 6.67859C11.0227 6.69286 10.9627 6.70632 10.9026 6.71886C10.8791 6.72379 10.8555 6.72819 10.8319 6.73286C10.7811 6.74272 10.7298 6.75206 10.6786 6.76072C10.655 6.76472 10.6314 6.76872 10.6076 6.77246C10.5455 6.78219 10.483 6.79086 10.4204 6.79859C10.4092 6.79992 10.3983 6.80179 10.3873 6.80299C10.3141 6.81166 10.2406 6.81872 10.1669 6.82486C10.1454 6.82659 10.1235 6.82792 10.102 6.82939C10.0483 6.83326 9.99443 6.83659 9.94059 6.83899C9.91551 6.84019 9.89028 6.84112 9.8652 6.84206C9.84648 6.84272 9.8279 6.84272 9.80933 6.84312V4.34579C9.81841 4.35406 9.8279 4.36206 9.83685 4.37032C9.85448 4.38646 9.87184 4.40272 9.88933 4.41912C9.91591 4.44406 9.94208 4.46926 9.96812 4.49472C9.98534 4.51166 10.0026 4.52859 10.0195 4.54579C10.0456 4.57206 10.0712 4.59872 10.0967 4.62566C10.1128 4.64259 10.129 4.65952 10.1448 4.67672C10.1717 4.70619 10.1982 4.73592 10.2246 4.76592ZM11.227 10.4949C11.1642 10.4797 11.101 10.4654 11.0376 10.4521C11.0109 10.4465 10.9842 10.4413 10.9575 10.4359C10.9015 10.4249 10.8451 10.4145 10.7887 10.4049C10.7621 10.4003 10.7355 10.3957 10.7088 10.3915C10.6425 10.3811 10.5759 10.3717 10.5092 10.3631C10.4939 10.3613 10.4788 10.3589 10.4636 10.357C10.3819 10.3471 10.2998 10.339 10.2175 10.3322C10.1954 10.3303 10.173 10.3291 10.1509 10.3275C10.0898 10.3231 10.0285 10.3193 9.96717 10.3165C9.93897 10.3151 9.91089 10.3142 9.88269 10.3133C9.85828 10.3125 9.83387 10.311 9.80933 10.3105V9.13819H11.6982C11.6981 9.13966 11.6982 9.14126 11.6981 9.14272C11.6979 9.14846 11.6975 9.15419 11.6972 9.15992C11.6947 9.22872 11.6907 9.29739 11.6861 9.36579C11.6848 9.38739 11.683 9.40899 11.6814 9.43072C11.6769 9.48792 11.6717 9.54512 11.6659 9.60206C11.664 9.62032 11.6624 9.63859 11.6604 9.65686C11.6522 9.72979 11.643 9.80259 11.6326 9.87499C11.6305 9.88939 11.6281 9.90352 11.6259 9.91779C11.617 9.97712 11.6072 10.0362 11.5968 10.095C11.593 10.1166 11.589 10.1382 11.585 10.1597C11.5738 10.2187 11.5619 10.2775 11.5492 10.3361C11.5462 10.3498 11.5435 10.3635 11.5405 10.3773C11.5264 10.4401 11.5111 10.5025 11.4952 10.5646C11.4233 10.5441 11.351 10.5249 11.2784 10.5066C11.2611 10.5026 11.244 10.499 11.227 10.4949ZM9.04491 10.3363C9.02945 10.3377 9.01413 10.3393 8.99881 10.3407C8.94239 10.3461 8.88612 10.3521 8.82998 10.359C8.82211 10.3601 8.81411 10.3609 8.80624 10.3618C8.74387 10.3697 8.68162 10.3785 8.61965 10.3881C8.60446 10.3905 8.58941 10.3929 8.57436 10.3953C8.52011 10.4041 8.46601 10.4134 8.41217 10.4235C8.40268 10.4253 8.39332 10.4269 8.38397 10.4286C8.32281 10.4403 8.26178 10.4531 8.20103 10.4665C8.18639 10.4698 8.17161 10.4731 8.15696 10.4765C8.10462 10.4885 8.05241 10.501 8.00033 10.5142C7.98989 10.5169 7.97932 10.5194 7.96887 10.5222C7.90894 10.5378 7.84927 10.5543 7.78974 10.5717C7.77564 10.5758 7.76153 10.5801 7.74743 10.5842C7.69671 10.5993 7.64627 10.615 7.59609 10.6314C7.58823 10.6339 7.58023 10.6362 7.5725 10.6387C7.55487 10.573 7.53778 10.507 7.52232 10.4406C7.5188 10.4255 7.51568 10.4105 7.51229 10.3954C7.49859 10.3351 7.48571 10.2746 7.47377 10.2138C7.4693 10.191 7.46496 10.1682 7.46062 10.1454C7.44937 10.0851 7.43892 10.0246 7.4293 9.96392C7.42672 9.94779 7.42387 9.93179 7.42143 9.91566C7.41004 9.84006 7.40001 9.76406 7.39119 9.68792C7.38902 9.66952 7.38739 9.65099 7.38536 9.63259C7.37885 9.57286 7.37329 9.51299 7.36841 9.45286C7.36651 9.42966 7.36475 9.40659 7.36298 9.38339C7.35837 9.31792 7.35471 9.25219 7.352 9.18632C7.35146 9.17392 7.35051 9.16152 7.3501 9.14912C7.34997 9.14552 7.3501 9.14192 7.34997 9.13832H9.23856V10.3214C9.2372 10.3215 9.23598 10.3217 9.23476 10.3218C9.17143 10.3258 9.1081 10.3307 9.04491 10.3363ZM7.76506 7.13672C7.77889 7.14086 7.79272 7.14499 7.80669 7.14899C7.86568 7.16592 7.9248 7.18219 7.9842 7.19752C7.9941 7.20006 8.00413 7.20246 8.01403 7.20499C8.0657 7.21806 8.1175 7.23032 8.16944 7.24219C8.18422 7.24552 8.19886 7.24899 8.21364 7.25219C8.27358 7.26539 8.33393 7.27792 8.39441 7.28939C8.40322 7.29112 8.41204 7.29259 8.42085 7.29419C8.47442 7.30419 8.52812 7.31339 8.58195 7.32192C8.59714 7.32446 8.61233 7.32686 8.62765 7.32926C8.68881 7.33859 8.75024 7.34739 8.81194 7.35499C8.81913 7.35592 8.82631 7.35659 8.8335 7.35752C8.88924 7.36432 8.94524 7.37019 9.00138 7.37566C9.01698 7.37726 9.03271 7.37872 9.04844 7.38006C9.11055 7.38552 9.17306 7.39046 9.23557 7.39432C9.23666 7.39446 9.23774 7.39446 9.23883 7.39459V8.57766H7.35349C7.35688 8.50246 7.36163 8.42739 7.3676 8.35272C7.36922 8.33206 7.37112 8.31139 7.37302 8.29072C7.37831 8.23019 7.38441 8.16992 7.39133 8.10992C7.39377 8.08846 7.39607 8.06712 7.39878 8.04579C7.40841 7.96846 7.41899 7.89126 7.43119 7.81459C7.43228 7.80819 7.4335 7.80179 7.43445 7.79552C7.44598 7.72499 7.45872 7.65472 7.47255 7.58486C7.47689 7.56272 7.4815 7.54059 7.48598 7.51846C7.49832 7.45899 7.51147 7.39979 7.52531 7.34099C7.52965 7.32299 7.53344 7.30499 7.53792 7.28712C7.5546 7.21886 7.57277 7.15099 7.59162 7.08352C7.59894 7.08592 7.6064 7.08806 7.61386 7.09032C7.6639 7.10619 7.71434 7.12179 7.76506 7.13672ZM9.96432 7.39939C10.0245 7.39659 10.0846 7.39299 10.1445 7.38859C10.1671 7.38699 10.1897 7.38579 10.2121 7.38392C10.2933 7.37726 10.3743 7.36926 10.4549 7.35979C10.47 7.35792 10.4848 7.35566 10.4997 7.35379C10.5659 7.34552 10.6316 7.33632 10.6974 7.32619C10.724 7.32192 10.7507 7.31739 10.7773 7.31299C10.8329 7.30366 10.8881 7.29352 10.9433 7.28286C10.97 7.27766 10.9967 7.27246 11.0233 7.26699C11.0857 7.25406 11.1479 7.24006 11.2097 7.22526C11.2268 7.22112 11.244 7.21752 11.2611 7.21326C11.3331 7.19539 11.405 7.17659 11.4765 7.15632C11.4937 7.22059 11.5101 7.28512 11.5253 7.35006C11.5292 7.36646 11.5326 7.38286 11.5364 7.39926C11.5494 7.45672 11.5616 7.51446 11.5732 7.57232C11.5772 7.59326 11.5814 7.61406 11.5854 7.63499C11.5985 7.70472 11.6109 7.77472 11.6218 7.84512C11.6224 7.84846 11.6229 7.85179 11.6236 7.85526C11.6349 7.92872 11.6445 8.00259 11.6534 8.07672C11.656 8.09766 11.6582 8.11859 11.6605 8.13952C11.6669 8.19779 11.6726 8.25619 11.6776 8.31486C11.6791 8.33339 11.6808 8.35166 11.6822 8.37019C11.6875 8.43912 11.6915 8.50819 11.6947 8.57752H9.80933V7.40539C9.83319 7.40486 9.85679 7.40352 9.88066 7.40272C9.90859 7.40166 9.93652 7.40059 9.96432 7.39939ZM12.2661 8.57739C12.2626 8.49632 12.2576 8.41539 12.2513 8.33472C12.2496 8.31072 12.2474 8.28686 12.2452 8.26286C12.2401 8.20246 12.2342 8.14219 12.2277 8.08219C12.225 8.05792 12.2224 8.03379 12.2196 8.00966C12.2101 7.93126 12.1998 7.85299 12.188 7.77526C12.1876 7.77272 12.1873 7.77006 12.1869 7.76752C12.1746 7.68712 12.1603 7.60739 12.1453 7.52766C12.1409 7.50446 12.1362 7.48139 12.1316 7.45832C12.1198 7.39912 12.1073 7.34019 12.094 7.28139C12.0889 7.25819 12.0837 7.23499 12.0783 7.21192C12.0596 7.13299 12.0402 7.05446 12.0189 6.97632C12.091 6.94886 12.1621 6.91966 12.2329 6.88966C12.2532 6.88099 12.2732 6.87219 12.2934 6.86339C12.3482 6.83939 12.4025 6.81486 12.4564 6.78939C12.4756 6.78032 12.4949 6.77139 12.514 6.76219C12.5837 6.72846 12.6527 6.69379 12.7209 6.65752C12.7297 6.65272 12.7384 6.64779 12.7474 6.64299C12.8069 6.61099 12.8659 6.57779 12.9242 6.54379C12.944 6.53232 12.9637 6.52059 12.9833 6.50886C13.0354 6.47779 13.0868 6.44592 13.1377 6.41339C13.1527 6.40379 13.168 6.39432 13.1829 6.38459C13.2413 6.34646 13.299 6.30766 13.356 6.26766C13.8503 6.95126 14.1401 7.74046 14.2043 8.57752H12.2661V8.57739ZM12.9966 5.82912C12.9511 5.86086 12.9055 5.89246 12.8588 5.92286C12.8533 5.92646 12.8475 5.92992 12.8419 5.93366C12.7889 5.96779 12.7352 6.00086 12.6809 6.03312C12.6649 6.04259 12.6489 6.05206 12.6329 6.06139C12.5776 6.09366 12.5216 6.12512 12.4649 6.15552C12.4598 6.15832 12.4549 6.16112 12.4497 6.16392C12.3883 6.19659 12.326 6.22779 12.2633 6.25819C12.2469 6.26619 12.2302 6.27392 12.2138 6.28179C12.1606 6.30686 12.107 6.33126 12.0529 6.35472C12.041 6.35992 12.0291 6.36539 12.017 6.37059C11.9615 6.39419 11.9053 6.41659 11.8487 6.43859C11.8427 6.42232 11.8361 6.40672 11.8301 6.39046C11.8079 6.33046 11.785 6.27086 11.7612 6.21179C11.7508 6.18579 11.7404 6.15979 11.7296 6.13406C11.7012 6.06566 11.6716 5.99806 11.6411 5.93112C11.6353 5.91832 11.6298 5.90512 11.6239 5.89246C11.5874 5.81366 11.5493 5.73619 11.51 5.65952C11.4988 5.63779 11.4872 5.61659 11.4759 5.59512C11.4462 5.53899 11.4161 5.48339 11.3851 5.42846C11.3712 5.40392 11.3574 5.37966 11.3432 5.35539C11.3099 5.29846 11.2759 5.24219 11.2412 5.18659C11.2303 5.16926 11.2199 5.15166 11.2089 5.13446C11.1634 5.06326 11.1166 4.99312 11.0684 4.92419C11.0568 4.90752 11.0447 4.89139 11.0329 4.87486C10.9952 4.82192 10.9567 4.76952 10.9175 4.71806C10.901 4.69646 10.8841 4.67499 10.8675 4.65352C10.829 4.60459 10.7898 4.55646 10.75 4.50886C10.7396 4.49646 10.7297 4.48339 10.7192 4.47099C11.5896 4.69726 12.3845 5.16859 12.9966 5.82912ZM8.30097 4.50552C8.26395 4.54966 8.22748 4.59446 8.19154 4.63992C8.1754 4.66032 8.15927 4.68072 8.1434 4.70139C8.1034 4.75339 8.06434 4.80619 8.02583 4.85966C8.01647 4.87259 8.00698 4.88526 7.99776 4.89819C7.95097 4.96459 7.90541 5.03219 7.86093 5.10072C7.84927 5.11872 7.83815 5.13726 7.82649 5.15539C7.79367 5.20712 7.76153 5.25952 7.73007 5.31246C7.71597 5.33606 7.70214 5.35992 7.68844 5.38379C7.65861 5.43552 7.62959 5.48779 7.60111 5.54059C7.58958 5.56206 7.57765 5.58339 7.56639 5.60499C7.52788 5.67846 7.49032 5.75272 7.45438 5.82806C7.45032 5.83659 7.44652 5.84539 7.44259 5.85392C7.41085 5.92139 7.38007 5.98966 7.35037 6.05846C7.3398 6.08299 7.32963 6.10779 7.31932 6.13246C7.29613 6.18792 7.27376 6.24379 7.25206 6.30006C7.24623 6.31499 7.23985 6.32952 7.23416 6.34459C7.18331 6.32219 7.13232 6.29979 7.08228 6.27606C7.07496 6.27259 7.06777 6.26886 7.06045 6.26539C7.00512 6.23886 6.95047 6.21126 6.89623 6.18299C6.88063 6.17486 6.86517 6.16672 6.84971 6.15846C6.78964 6.12632 6.72997 6.09366 6.67153 6.05952C6.66909 6.05819 6.66678 6.05672 6.66448 6.05526C6.6082 6.02232 6.55274 5.98819 6.49782 5.95339C6.4829 5.94392 6.46812 5.93432 6.4532 5.92472C6.40018 5.89032 6.34756 5.85526 6.29576 5.81899C6.2921 5.81646 6.2883 5.81392 6.28451 5.81139C6.24152 5.78112 6.19962 5.74952 6.15771 5.71806C6.75954 5.10752 7.50727 4.67926 8.33122 4.46832C8.32091 4.48059 8.31114 4.49339 8.30097 4.50552ZM5.78466 6.14512C5.83728 6.18512 5.89084 6.22406 5.94495 6.26232C5.95702 6.27086 5.96936 6.27899 5.98143 6.28739C6.03174 6.32246 6.08272 6.35659 6.13425 6.39019C6.15256 6.40206 6.17087 6.41379 6.18917 6.42552C6.24369 6.46006 6.29861 6.49379 6.35448 6.52672C6.36438 6.53259 6.37401 6.53859 6.38391 6.54432C6.44886 6.58219 6.5149 6.61859 6.58162 6.65419C6.59925 6.66366 6.61701 6.67259 6.63478 6.68192C6.68685 6.70899 6.73933 6.73539 6.79222 6.76099C6.81134 6.77032 6.83046 6.77966 6.84971 6.78872C6.91765 6.82072 6.986 6.85206 7.05556 6.88179C7.05462 6.88526 7.05367 6.88886 7.05272 6.89232C7.04865 6.90659 7.04499 6.92099 7.04105 6.93526C7.02221 7.00259 7.00444 7.07019 6.98763 7.13819C6.98125 7.16419 6.97501 7.19019 6.96891 7.21619C6.95481 7.27632 6.94138 7.33672 6.92877 7.39726C6.92376 7.42152 6.91847 7.44566 6.91372 7.46992C6.89731 7.55299 6.88199 7.63632 6.86843 7.72019C6.86761 7.72592 6.86694 7.73152 6.86599 7.73726C6.85351 7.81566 6.84266 7.89446 6.83276 7.97339C6.82951 7.99912 6.82666 8.02512 6.82381 8.05099C6.81676 8.11272 6.81052 8.17459 6.80496 8.23672C6.80266 8.26286 6.80022 8.28912 6.79818 8.31539C6.79208 8.39339 6.7872 8.47166 6.78354 8.55032C6.78313 8.55806 6.78259 8.56566 6.78218 8.57326C6.78205 8.57472 6.78205 8.57619 6.78191 8.57766H4.84477C4.91434 7.69592 5.24142 6.84912 5.78466 6.14512ZM4.83501 9.13846H6.77906C6.7792 9.14606 6.77988 9.15352 6.78015 9.16112C6.78083 9.18326 6.78218 9.20539 6.78313 9.22752C6.78598 9.29112 6.7895 9.35459 6.79398 9.41806C6.79588 9.44606 6.79818 9.47406 6.80035 9.50192C6.80537 9.56312 6.8112 9.62406 6.81758 9.68499C6.82015 9.70939 6.82246 9.73379 6.8253 9.75806C6.83507 9.84179 6.84592 9.92512 6.85853 10.0081C6.85988 10.0171 6.86165 10.0262 6.86314 10.0353C6.87467 10.1094 6.88741 10.1833 6.90138 10.2569C6.90626 10.2826 6.91142 10.3081 6.91657 10.3338C6.92837 10.3927 6.94084 10.4514 6.954 10.5099C6.95983 10.5358 6.96566 10.5618 6.97176 10.5877C6.9879 10.6555 7.00498 10.723 7.02302 10.7902C7.02668 10.8039 7.03007 10.8178 7.03387 10.8315C7.03482 10.8351 7.03563 10.8389 7.03672 10.8426C7.03522 10.8433 7.03373 10.8439 7.0321 10.8446C7.026 10.8473 7.02017 10.8501 7.01393 10.8527C6.9464 10.8822 6.87968 10.913 6.81364 10.9447C6.79276 10.9547 6.77201 10.965 6.7514 10.9751C6.69594 11.0026 6.64102 11.0307 6.5865 11.0595C6.56942 11.0686 6.55206 11.0774 6.53511 11.0866C6.46595 11.1242 6.3976 11.163 6.33034 11.203C6.31732 11.2107 6.30458 11.219 6.29156 11.2269C6.23664 11.2602 6.18239 11.2942 6.12869 11.3291C6.10917 11.3419 6.08964 11.3547 6.07038 11.3677C6.01736 11.4031 5.96488 11.4394 5.91308 11.4765C5.90074 11.4854 5.88813 11.4939 5.87579 11.5029C5.82033 11.5433 5.7654 11.5845 5.71143 11.6267C5.18175 10.9009 4.87555 10.033 4.83501 9.13846ZM6.07296 12.0619C6.12015 12.025 6.16761 11.9885 6.2163 11.953C6.22647 11.9455 6.23704 11.9385 6.24721 11.931C6.29508 11.8966 6.34349 11.8633 6.39258 11.8305C6.40791 11.8202 6.42337 11.8099 6.43883 11.7997C6.49768 11.7613 6.55708 11.7237 6.61769 11.6874C6.62054 11.6857 6.62339 11.6842 6.6261 11.6825C6.684 11.6479 6.74313 11.6147 6.80266 11.5822C6.81961 11.5729 6.83683 11.5637 6.85392 11.5546C6.90789 11.5259 6.96227 11.4979 7.01746 11.4709C7.02722 11.4659 7.03699 11.461 7.04689 11.4562C7.10045 11.4303 7.1551 11.4058 7.20975 11.3815C7.21558 11.3978 7.2225 11.4134 7.22846 11.4295C7.25233 11.4934 7.27715 11.5566 7.30278 11.6193C7.31335 11.6453 7.32393 11.6713 7.33491 11.697C7.36719 11.7733 7.40055 11.8486 7.43526 11.9229C7.4392 11.9311 7.44272 11.9397 7.44652 11.9479C7.4853 12.0301 7.52612 12.1109 7.56789 12.1906C7.57968 12.2133 7.59216 12.2355 7.60423 12.2579C7.63583 12.3165 7.66824 12.3745 7.70146 12.4317C7.71543 12.4558 7.72939 12.4798 7.74363 12.5035C7.78214 12.5681 7.82188 12.6317 7.86256 12.6943C7.87029 12.7063 7.87775 12.7189 7.88575 12.7309C7.93443 12.8046 7.9846 12.877 8.036 12.9481C8.04983 12.9673 8.06421 12.9859 8.07831 13.005C8.1175 13.0579 8.15737 13.1101 8.19819 13.1614C8.21527 13.183 8.23249 13.2046 8.24985 13.2258C8.29406 13.2799 8.33922 13.333 8.38505 13.3853C8.39441 13.3959 8.40322 13.4073 8.41271 13.4179C7.52015 13.2035 6.70272 12.7326 6.07296 12.0619ZM10.631 13.4201C10.6741 13.3714 10.7163 13.3217 10.758 13.2713C10.7689 13.2582 10.7797 13.245 10.7904 13.2318C10.8296 13.1838 10.8683 13.1353 10.9061 13.0857C10.9095 13.0813 10.913 13.077 10.9163 13.0726C10.957 13.0193 10.9964 12.9649 11.0355 12.9101C11.0454 12.8962 11.055 12.8822 11.0648 12.8683C11.1003 12.8174 11.1354 12.7658 11.1696 12.7135C11.173 12.7083 11.1766 12.703 11.1802 12.6977C11.2171 12.6407 11.253 12.583 11.2883 12.5249C11.2971 12.5102 11.3059 12.4957 11.3146 12.481C11.3463 12.4277 11.3775 12.3738 11.4079 12.3193C11.4115 12.3129 11.4152 12.3065 11.4187 12.2999C11.4518 12.2399 11.4838 12.1793 11.5151 12.1179C11.5228 12.1027 11.5306 12.0874 11.5383 12.0722C11.5661 12.0169 11.5932 11.9611 11.6195 11.9047C11.6232 11.897 11.627 11.8893 11.6305 11.8815C11.6595 11.819 11.6873 11.7557 11.7145 11.6921C11.7214 11.6761 11.7279 11.6599 11.7347 11.6439C11.7583 11.5873 11.7813 11.5301 11.8034 11.4725C11.8069 11.4633 11.8106 11.4543 11.8141 11.4451C11.8341 11.3926 11.8535 11.3398 11.8723 11.2866C11.9325 11.3103 11.9923 11.3346 12.0514 11.3602C12.0651 11.3662 12.0787 11.3725 12.0923 11.3785C12.147 11.4027 12.2012 11.4279 12.2549 11.4538C12.2728 11.4625 12.2908 11.4711 12.3087 11.4799C12.4391 11.5446 12.5663 11.6141 12.6902 11.6882C12.7071 11.6983 12.7239 11.7086 12.7406 11.719C12.7909 11.7499 12.8407 11.7815 12.8898 11.8139C12.9018 11.8219 12.9142 11.8297 12.9262 11.8378C12.9784 11.873 13.0298 11.9094 13.0807 11.9462C12.436 12.6819 11.5784 13.1946 10.631 13.4201ZM13.427 11.4993C13.3689 11.4569 13.3097 11.4159 13.2498 11.3757C13.2347 11.3657 13.2196 11.3561 13.2045 11.3461C13.152 11.3114 13.0989 11.2775 13.0452 11.2446C13.0244 11.2319 13.0038 11.2193 12.9828 11.2069C12.926 11.1729 12.8683 11.1397 12.8102 11.1075C12.7974 11.1006 12.7851 11.0933 12.7723 11.0863C12.7024 11.0482 12.6312 11.0115 12.5593 10.9761C12.5402 10.9666 12.5208 10.9575 12.5014 10.9483C12.4459 10.9217 12.3899 10.8957 12.3334 10.8705C12.3114 10.8607 12.2894 10.8509 12.2673 10.8414C12.1979 10.8114 12.1279 10.7825 12.0571 10.7549C12.0516 10.7527 12.0462 10.7503 12.0406 10.7482C12.0394 10.7478 12.0383 10.7473 12.0371 10.7469C12.0371 10.7469 12.0371 10.7467 12.0371 10.7466C12.0373 10.7458 12.0375 10.745 12.0376 10.7442C12.0575 10.6679 12.0759 10.591 12.0933 10.5141C12.0986 10.4905 12.1037 10.4669 12.1087 10.4433C12.1209 10.3866 12.1324 10.3298 12.1432 10.2729C12.148 10.2481 12.1526 10.2234 12.1571 10.1986C12.1693 10.1307 12.1805 10.0625 12.1908 9.99406C12.1926 9.98299 12.1945 9.97179 12.1961 9.96072C12.2077 9.88139 12.2176 9.80179 12.2265 9.72206C12.229 9.69966 12.231 9.67726 12.2333 9.65472C12.2394 9.59552 12.2448 9.53619 12.2494 9.47672C12.2515 9.45086 12.2534 9.42512 12.2551 9.39926C12.2595 9.33539 12.2629 9.27139 12.2654 9.20739C12.2661 9.18979 12.2673 9.17219 12.2679 9.15459C12.268 9.14926 12.2684 9.14406 12.2685 9.13859H14.2133C14.1767 9.98832 13.9074 10.7961 13.427 11.4993Z" fill="white"/>
<path d="M14.7888 17.6748H4.25977V18.5632H14.7888V17.6748Z" fill="white"/>
<path d="M12.8097 19.3539H5.78516V20.2424H12.8097V19.3539Z" fill="white"/>
<path d="M7.95237 15.9958H7.04883V16.8842H7.95237V15.9958Z" fill="white"/>
<path d="M9.74939 15.9958H8.8457V16.8842H9.74939V15.9958Z" fill="white"/>
<path d="M11.5442 15.9958H10.6406V16.8842H11.5442V15.9958Z" fill="white"/>
</g>
<defs>
<clipPath id="clip0_1619_11539">
<rect width="18" height="24" fill="white" transform="translate(0.523438)"/>
</clipPath>
</defs>
</svg>
