<svg width="25" height="24" viewBox="0 0 25 24" fill="none" xmlns="http://www.w3.org/2000/svg">
<path d="M12.4502 2C6.9402 2 2.4502 6.49 2.4502 12C2.4502 17.51 6.9402 22 12.4502 22C17.9602 22 22.4502 17.51 22.4502 12C22.4502 6.49 17.9602 2 12.4502 2ZM11.7002 8C11.7002 7.59 12.0402 7.25 12.4502 7.25C12.8602 7.25 13.2002 7.59 13.2002 8V13C13.2002 13.41 12.8602 13.75 12.4502 13.75C12.0402 13.75 11.7002 13.41 11.7002 13V8ZM13.3702 16.38C13.3202 16.51 13.2502 16.61 13.1602 16.71C13.0602 16.8 12.9502 16.87 12.8302 16.92C12.7102 16.97 12.5802 17 12.4502 17C12.3202 17 12.1902 16.97 12.0702 16.92C11.9502 16.87 11.8402 16.8 11.7402 16.71C11.6502 16.61 11.5802 16.51 11.5302 16.38C11.4802 16.26 11.4502 16.13 11.4502 16C11.4502 15.87 11.4802 15.74 11.5302 15.62C11.5802 15.5 11.6502 15.39 11.7402 15.29C11.8402 15.2 11.9502 15.13 12.0702 15.08C12.3102 14.98 12.5902 14.98 12.8302 15.08C12.9502 15.13 13.0602 15.2 13.1602 15.29C13.2502 15.39 13.3202 15.5 13.3702 15.62C13.4202 15.74 13.4502 15.87 13.4502 16C13.4502 16.13 13.4202 16.26 13.3702 16.38Z" fill="#F0B35F"/>
</svg>
