<svg width="24" height="25" viewBox="0 0 24 25" fill="none" xmlns="http://www.w3.org/2000/svg">
<path d="M12.0201 3.24341C8.71009 3.24341 6.02009 5.93341 6.02009 9.24341V12.1334C6.02009 12.7434 5.76009 13.6734 5.45009 14.1934L4.30009 16.1034C3.59009 17.2834 4.08009 18.5934 5.38009 19.0334C9.69009 20.4734 14.3401 20.4734 18.6501 19.0334C19.8601 18.6334 20.3901 17.2034 19.7301 16.1034L18.5801 14.1934C18.2801 13.6734 18.0201 12.7434 18.0201 12.1334V9.24341C18.0201 5.94341 15.3201 3.24341 12.0201 3.24341Z" stroke="#343434" stroke-width="1.5" stroke-miterlimit="10" stroke-linecap="round"/>
<path d="M13.8699 3.53332C13.5599 3.44332 13.2399 3.37332 12.9099 3.33332C11.9499 3.21332 11.0299 3.28332 10.1699 3.53332C10.4599 2.79332 11.1799 2.27332 12.0199 2.27332C12.8599 2.27332 13.5799 2.79332 13.8699 3.53332Z" stroke="#343434" stroke-width="1.5" stroke-miterlimit="10" stroke-linecap="round" stroke-linejoin="round"/>
<path d="M15.02 19.3934C15.02 21.0434 13.67 22.3934 12.02 22.3934C11.2 22.3934 10.44 22.0534 9.90002 21.5134C9.36002 20.9734 9.02002 20.2134 9.02002 19.3934" stroke="#343434" stroke-width="1.5" stroke-miterlimit="10"/>
</svg>
