<svg width="26" height="26" viewBox="0 0 26 26" fill="none" xmlns="http://www.w3.org/2000/svg">
<path d="M9.47949 3.79163V2.16663C9.47949 1.72246 9.11116 1.35413 8.66699 1.35413C8.22283 1.35413 7.85449 1.72246 7.85449 2.16663V3.85663C8.12533 3.82413 8.37449 3.79163 8.66699 3.79163H9.47949Z" fill="#204884"/>
<path d="M18.1455 3.85663V2.16663C18.1455 1.72246 17.7772 1.35413 17.333 1.35413C16.8888 1.35413 16.5205 1.72246 16.5205 2.16663V3.79163H17.333C17.6255 3.79163 17.8747 3.82413 18.1455 3.85663Z" fill="#204884"/>
<path d="M18.1458 3.85663V5.41663C18.1458 5.86079 17.7775 6.22913 17.3333 6.22913C16.8892 6.22913 16.5208 5.86079 16.5208 5.41663V3.79163H9.47917V5.41663C9.47917 5.86079 9.11083 6.22913 8.66667 6.22913C8.2225 6.22913 7.85417 5.86079 7.85417 5.41663V3.85663C4.65833 4.14913 3.25 6.20746 3.25 9.20829V18.4166C3.25 21.6666 4.875 23.8333 8.66667 23.8333H17.3333C21.125 23.8333 22.75 21.6666 22.75 18.4166V9.20829C22.75 6.20746 21.3417 4.14913 18.1458 3.85663ZM13 18.1458H8.66667C8.2225 18.1458 7.85417 17.7775 7.85417 17.3333C7.85417 16.8891 8.2225 16.5208 8.66667 16.5208H13C13.4442 16.5208 13.8125 16.8891 13.8125 17.3333C13.8125 17.7775 13.4442 18.1458 13 18.1458ZM17.3333 12.7291H8.66667C8.2225 12.7291 7.85417 12.3608 7.85417 11.9166C7.85417 11.4725 8.2225 11.1041 8.66667 11.1041H17.3333C17.7775 11.1041 18.1458 11.4725 18.1458 11.9166C18.1458 12.3608 17.7775 12.7291 17.3333 12.7291Z" fill="#25559D"/>
</svg>
