<svg width="26" height="26" viewBox="0 0 26 26" fill="none" xmlns="http://www.w3.org/2000/svg">
<g clip-path="url(#clip0_668_100)">
<path d="M21.1336 0.5H8.79849C7.42954 0.5 6.31587 1.55142 6.31587 2.84375V3.625H4.60962C3.67412 3.625 2.91309 4.38604 2.91309 5.32153V23.8035C2.91309 24.739 3.67412 25.5 4.60962 25.5H18.5169C19.4524 25.5 20.2134 24.739 20.2134 23.8035V22.375H21.1336C22.5025 22.375 23.6162 21.3236 23.6162 20.0312V2.84375C23.6162 1.55142 22.5025 0.5 21.1336 0.5ZM18.6509 23.8035C18.6509 23.8774 18.5908 23.9375 18.5169 23.9375H4.60962C4.53569 23.9375 4.47559 23.8774 4.47559 23.8035V5.32153C4.47559 5.24761 4.53569 5.1875 4.60962 5.1875H18.5169C18.5908 5.1875 18.6509 5.24761 18.6509 5.32153V23.8035ZM22.0537 20.0312C22.0537 20.462 21.6409 20.8125 21.1336 20.8125H20.2134V5.32153C20.2134 4.38604 19.4524 3.625 18.5169 3.625H7.87837V2.84375C7.87837 2.41299 8.29116 2.0625 8.79849 2.0625H21.1336C21.6409 2.0625 22.0537 2.41299 22.0537 2.84375V20.0312Z" fill="black"/>
<path d="M15.4131 11.0469H7.99121C7.55977 11.0469 7.20996 10.6971 7.20996 10.2656C7.20996 9.83418 7.55977 9.48438 7.99121 9.48438H15.4131C15.8445 9.48438 16.1943 9.83418 16.1943 10.2656C16.1943 10.6971 15.8445 11.0469 15.4131 11.0469Z" fill="black"/>
<path d="M15.4131 14.1719H7.99121C7.55977 14.1719 7.20996 13.8221 7.20996 13.3906C7.20996 12.9592 7.55977 12.6094 7.99121 12.6094H15.4131C15.8445 12.6094 16.1943 12.9592 16.1943 13.3906C16.1943 13.8221 15.8445 14.1719 15.4131 14.1719Z" fill="black"/>
<path d="M15.4131 17.2969H7.99121C7.55977 17.2969 7.20996 16.9471 7.20996 16.5156C7.20996 16.0842 7.55977 15.7344 7.99121 15.7344H15.4131C15.8445 15.7344 16.1943 16.0842 16.1943 16.5156C16.1943 16.9471 15.8445 17.2969 15.4131 17.2969Z" fill="black"/>
</g>
<defs>
<clipPath id="clip0_668_100">
<rect width="25" height="25" fill="white" transform="translate(0.764648 0.5)"/>
</clipPath>
</defs>
</svg>
