<svg width="19" height="19" viewBox="0 0 19 19" fill="none" xmlns="http://www.w3.org/2000/svg">
<path d="M5.36633 13.9976C8.18925 16.816 11.6275 18.9906 14.4309 18.9906C15.6909 18.9906 16.7947 18.5518 17.6835 17.5766C18.2011 17.0012 18.5236 16.3283 18.5236 15.6652C18.5236 15.1776 18.338 14.7095 17.8691 14.3779L14.8802 12.252C14.4211 11.9399 14.0401 11.7839 13.6885 11.7839C13.2392 11.7839 12.8485 12.0374 12.3991 12.4763L11.7056 13.1589C11.5982 13.2662 11.4614 13.315 11.3345 13.315C11.1782 13.315 11.0414 13.2565 10.934 13.2077C10.3381 12.8858 9.30275 11.9985 8.33574 11.0427C7.37849 10.087 6.48962 9.05331 6.17705 8.44869C6.11846 8.34142 6.06961 8.20486 6.06961 8.05861C6.06961 7.93183 6.10871 7.80505 6.21615 7.69778L6.89988 6.98589C7.33944 6.53727 7.59337 6.14719 7.59337 5.6986C7.59337 5.34755 7.43713 4.96721 7.11476 4.50889L5.01467 1.554C4.6728 1.0859 4.1942 0.881104 3.66675 0.881104C3.02206 0.881104 2.34808 1.17365 1.78153 1.72955C0.834073 2.63649 0.414062 3.75797 0.414062 4.99646C0.414062 7.79531 2.55321 11.189 5.36633 13.9976Z" fill="#222222"/>
</svg>
