<svg width="31" height="31" viewBox="0 0 31 31" fill="none" xmlns="http://www.w3.org/2000/svg">
<path d="M13.3223 24.3129C13.343 24.4355 13.3141 24.5614 13.2421 24.6628C13.17 24.7642 13.0607 24.8329 12.938 24.8538C11.7296 25.0582 11.0195 25.5588 10.7677 26.3847C10.7384 26.4808 10.679 26.5649 10.5982 26.6247C10.5175 26.6845 10.4197 26.7168 10.3192 26.7168C10.2728 26.7169 10.2266 26.7099 10.1823 26.6962C10.0634 26.6599 9.96374 26.5778 9.90532 26.468C9.84691 26.3582 9.83448 26.2297 9.87077 26.1108C10.2313 24.9287 11.2106 24.1942 12.7813 23.9286C12.904 23.9081 13.0298 23.937 13.1312 24.009C13.2326 24.081 13.3013 24.1903 13.3223 24.3129ZM16.9878 21.7128C15.4331 21.3666 14.2495 21.6776 13.4694 22.6372C13.4285 22.6847 13.3976 22.74 13.3785 22.7996C13.3594 22.8593 13.3524 22.9222 13.3579 22.9846C13.3635 23.047 13.3815 23.1077 13.4109 23.163C13.4403 23.2183 13.4805 23.2672 13.5291 23.3068C13.5777 23.3463 13.6337 23.3757 13.6939 23.3932C13.754 23.4108 13.8171 23.4161 13.8793 23.4088C13.9416 23.4016 14.0017 23.382 14.0563 23.3511C14.1108 23.3202 14.1586 23.2787 14.1968 23.2291C14.7419 22.5589 15.5889 22.3624 16.7844 22.629C16.9059 22.656 17.0331 22.6336 17.1381 22.5668C17.2431 22.4999 17.3172 22.3941 17.3442 22.2726C17.3712 22.1511 17.3488 22.0239 17.2819 21.9189C17.2151 21.8139 17.1093 21.7398 16.9878 21.7128ZM11.5459 22.269C11.5243 22.1465 11.455 22.0377 11.3533 21.9662C11.2516 21.8947 11.1257 21.8663 11.0031 21.8874C9.43379 22.1618 8.45856 22.9015 8.10433 24.0861C8.08536 24.1455 8.07843 24.2081 8.08393 24.2702C8.08943 24.3323 8.10725 24.3926 8.13635 24.4478C8.16546 24.5029 8.20526 24.5517 8.25343 24.5913C8.3016 24.6308 8.35718 24.6604 8.41691 24.6782C8.47665 24.6961 8.53934 24.7018 8.60132 24.6952C8.66331 24.6885 8.72334 24.6695 8.77791 24.6394C8.83248 24.6093 8.8805 24.5686 8.91916 24.5196C8.95782 24.4707 8.98633 24.4146 9.00305 24.3546C9.25043 23.5273 9.95722 23.0224 11.1643 22.8118C11.2868 22.7903 11.3958 22.7211 11.4674 22.6193C11.539 22.5176 11.5672 22.3915 11.5459 22.269ZM29.0781 28.6704C29.064 28.784 29.0089 28.8884 28.9232 28.9642C28.8375 29.04 28.7271 29.0818 28.6127 29.0818H1.40705C1.28265 29.0818 1.16334 29.0324 1.07537 28.9444C0.987407 28.8565 0.937988 28.7372 0.937988 28.6128C0.937988 25.4448 2.89942 23.2684 5.86497 23.0731C6.0821 21.3963 7.46546 19.7006 9.38111 19.7006H10.3797C10.5351 19.2018 10.8353 18.7604 11.2421 18.4326C11.649 18.1049 12.1441 17.9055 12.6646 17.8598V16.7622C12.0729 16.9267 11.4623 17.0132 10.8483 17.0195C10.3476 17.0418 9.8475 16.9637 9.37746 16.7897C8.90742 16.6158 8.47694 16.3495 8.11136 16.0067C6.40046 14.296 3.77802 14.2679 3.75143 14.2679C3.65874 14.2677 3.56819 14.24 3.4912 14.1884C3.41422 14.1368 3.35425 14.0635 3.31887 13.9779C3.28349 13.8922 3.27428 13.798 3.29241 13.7071C3.31054 13.6162 3.3552 13.5327 3.42074 13.4671C3.52332 13.3646 5.97398 10.9609 9.45532 11.5119C10.925 11.7455 11.9836 12.2558 12.6646 13.0671V10.2933C12.1177 10.5293 11.5293 10.6536 10.9337 10.6587C10.5133 10.6592 10.0956 10.5915 9.69693 10.4581C9.0325 10.2459 8.41693 9.90355 7.8861 9.45107C7.35526 8.9986 6.91976 8.44502 6.60497 7.82259C6.56138 7.72173 6.55456 7.60877 6.58569 7.5034C6.61682 7.39802 6.68393 7.30691 6.77533 7.24592C7.87651 6.59293 9.19098 6.40112 10.4328 6.71222C11.2448 6.8908 12.007 7.24733 12.6646 7.75612V5.41503C12.3841 5.22601 12.1528 4.97265 11.9902 4.67608C11.8276 4.37951 11.7382 4.04835 11.7296 3.71022C11.7716 2.73981 12.1465 1.81345 12.7912 1.08694C12.8352 1.03896 12.8889 1.00088 12.9488 0.975209C13.0086 0.949543 13.0732 0.936882 13.1383 0.938064C13.2033 0.938682 13.2674 0.952809 13.3266 0.979545C13.3859 1.00628 13.4389 1.04504 13.4823 1.09337C14.1212 1.83726 14.4937 2.773 14.5408 3.75244C14.5199 4.08088 14.4246 4.40026 14.2621 4.68643C14.0996 4.97259 13.8741 5.21804 13.6027 5.4042V6.29542C14.2605 5.71306 15.0799 5.34472 15.9521 5.23937C16.7037 5.06788 17.4882 5.10914 18.2177 5.35852C18.9472 5.6079 19.5927 6.05554 20.0821 6.65125C20.131 6.71996 20.1605 6.80059 20.1675 6.88466C20.1744 6.96872 20.1586 7.05311 20.1216 7.12893C20.0846 7.20475 20.0279 7.2692 19.9574 7.31548C19.8869 7.36177 19.8052 7.38818 19.7209 7.39194C18.693 7.52598 17.7389 7.99834 17.0091 8.73454C16.3973 9.29035 15.5908 9.58228 14.765 9.54691C14.374 9.54452 13.9844 9.50046 13.6027 9.41548V12.4263C14.3403 11.6878 15.2812 11.1858 16.3053 10.9842C18.1379 10.5531 20.061 10.7301 21.7843 11.4883C21.8424 11.517 21.8939 11.5574 21.9357 11.6071C21.9774 11.6567 22.0084 11.7144 22.0267 11.7766C22.045 11.8388 22.0502 11.9041 22.0419 11.9684C22.0337 12.0327 22.0123 12.0946 21.9789 12.1502C20.911 13.7729 19.3381 14.9984 17.5036 15.637C16.8925 15.843 16.252 15.9485 15.6072 15.9494C14.9233 15.9496 14.2448 15.8292 13.6027 15.5938V17.8563C14.071 17.9023 14.5192 18.07 14.9028 18.3426C15.2864 18.6152 15.5921 18.9834 15.7895 19.4106C16.3338 19.0693 16.9752 18.9162 17.6151 18.9749C18.2549 19.0336 18.8577 19.3008 19.3309 19.7355L20.3661 15.5857C20.4571 15.2231 20.6883 14.9114 21.0089 14.7191C21.3295 14.5267 21.7133 14.4694 22.0761 14.5596L23.4376 14.9001L24.0261 12.5418C23.7831 12.383 23.5958 12.1522 23.4903 11.8818C23.3848 11.6113 23.3665 11.3146 23.4379 11.0332L24.4604 6.93737C24.535 6.63853 24.6678 6.3573 24.851 6.10975C25.0343 5.86219 25.2646 5.65316 25.5286 5.49459C25.7927 5.33602 26.0854 5.23101 26.39 5.18556C26.6947 5.14011 27.0053 5.15511 27.3041 5.2297C27.603 5.3043 27.8842 5.43702 28.1318 5.6203C28.3793 5.80358 28.5883 6.03382 28.7469 6.29788C28.9055 6.56194 29.0105 6.85465 29.0559 7.15929C29.1014 7.46394 29.0864 7.77455 29.0118 8.0734L27.9892 12.1692C27.9181 12.4502 27.762 12.7023 27.5421 12.8912C27.3222 13.08 27.0494 13.1964 26.7609 13.2243L26.1702 15.5837L27.5348 15.9249C27.8951 16.0167 28.2047 16.2466 28.3969 16.5648C28.5891 16.8831 28.6483 17.2641 28.5618 17.6257L27.0081 23.8441C28.6174 24.7799 29.3508 26.4785 29.0781 28.6704ZM13.6151 14.5892C14.7491 15.0946 16.0326 15.1512 17.2068 14.7475C18.6458 14.2389 19.9091 13.3287 20.847 12.1245C19.4573 11.6463 17.9614 11.567 16.5288 11.8956C14.7373 12.3341 13.736 13.2626 13.6151 14.5892ZM13.6214 8.4561C14.2344 8.6123 15.5646 8.83103 16.3548 8.06209C17.0183 7.41053 17.8269 6.92568 18.7141 6.64735C18.3337 6.39961 17.9082 6.22936 17.4619 6.14635C17.0155 6.06334 16.5572 6.06921 16.1132 6.16361C14.1721 6.50316 13.7135 7.43669 13.6214 8.4561ZM23.5166 19.1554C23.5568 19.2116 23.6089 19.2581 23.6691 19.2918C23.7294 19.3254 23.7964 19.3454 23.8652 19.3501C23.9828 19.3502 24.0968 19.3094 24.1876 19.2347C24.2784 19.16 24.3404 19.0561 24.363 18.9407L25.8301 13.0807L24.9157 12.8523L23.4389 18.7684C23.4231 18.8347 23.4219 18.9036 23.4353 18.9705C23.4487 19.0373 23.4765 19.1004 23.5166 19.1554ZM24.4012 11.6156C24.4328 11.6685 24.4746 11.7146 24.5241 11.7512C24.5736 11.7879 24.6299 11.8143 24.6898 11.8291L26.5102 12.2835C26.6308 12.3132 26.7583 12.294 26.8648 12.2301C26.9714 12.1662 27.0483 12.0627 27.0788 11.9423L28.1014 7.84642C28.1484 7.66642 28.1592 7.47889 28.1332 7.29469C28.1073 7.11048 28.045 6.93325 27.9501 6.77325C27.8552 6.61326 27.7295 6.47367 27.5803 6.36257C27.4311 6.25147 27.2614 6.17106 27.0809 6.126C26.9004 6.08094 26.7128 6.07211 26.5288 6.10004C26.3449 6.12797 26.1684 6.19209 26.0094 6.2887C25.8504 6.38531 25.7122 6.51249 25.6027 6.66287C25.4932 6.81326 25.4146 6.98386 25.3715 7.16482L24.3489 11.2606C24.3336 11.3203 24.3304 11.3824 24.3394 11.4434C24.3483 11.5044 24.3694 11.5629 24.4012 11.6156ZM20.2448 19.9492H20.5495C21.4232 19.9557 22.266 20.2735 22.9266 20.8455C23.5871 21.4175 24.0222 22.2062 24.1536 23.07C24.8307 23.0995 25.5 23.2266 26.1409 23.4472L27.6512 17.401C27.6794 17.2802 27.659 17.1532 27.5945 17.0472C27.53 16.9412 27.4265 16.8648 27.3063 16.8343L25.9425 16.4932L25.273 19.1674C25.1993 19.4803 25.0241 19.7601 24.7748 19.9631C24.5255 20.1661 24.216 20.2809 23.8946 20.2897C23.8598 20.2897 23.8254 20.2883 23.7902 20.2855C23.5862 20.2696 23.388 20.2094 23.2095 20.1093C23.031 20.0092 22.8764 19.8715 22.7564 19.7057C22.6364 19.5399 22.5538 19.35 22.5145 19.1492C22.4751 18.9484 22.4799 18.7414 22.5284 18.5425L23.2102 15.8103L21.8479 15.4696C21.7877 15.4545 21.7252 15.4514 21.6638 15.4605C21.6024 15.4697 21.5434 15.4909 21.4903 15.5229C21.4372 15.555 21.3909 15.5972 21.3542 15.6472C21.3174 15.6972 21.2909 15.754 21.2763 15.8143L20.2448 19.9492ZM12.6677 3.71022C12.6743 3.8812 12.7188 4.04859 12.7978 4.20034C12.8769 4.35209 12.9886 4.48443 13.1249 4.58784C13.2586 4.48985 13.3703 4.36485 13.4526 4.22093C13.5349 4.07701 13.586 3.9174 13.6027 3.75244C13.5848 3.2047 13.4216 2.67156 13.13 2.20758C12.8441 2.65803 12.6845 3.17699 12.6677 3.71022ZM12.6288 9.27138C12.4419 8.57487 11.5469 7.9574 10.2056 7.62211C9.36474 7.41624 8.4797 7.4893 7.68395 7.83028C8.23864 8.65073 9.05155 9.26234 9.99357 9.56797C10.43 9.69942 10.8886 9.74091 11.3416 9.68995C11.7946 9.63899 12.2325 9.49653 12.6288 9.27138ZM12.657 15.7886C12.5621 13.7772 11.5709 12.7981 9.30785 12.4385C7.78236 12.2305 6.23379 12.5934 4.95964 13.4577C6.39142 13.6899 7.72044 14.3468 8.77443 15.3433C9.9166 16.4854 11.9025 16.0218 12.657 15.7886ZM26.2609 24.5089C25.4606 24.1528 24.5914 23.978 23.7157 23.9972C23.6541 23.9972 23.593 23.9851 23.5361 23.9615C23.4792 23.938 23.4275 23.9034 23.3839 23.8599C23.3403 23.8163 23.3058 23.7646 23.2822 23.7077C23.2587 23.6507 23.2466 23.5897 23.2466 23.5281C23.2299 22.8232 22.9386 22.1528 22.4348 21.6595C21.931 21.1662 21.2546 20.8891 20.5495 20.8873H19.3346C19.2641 20.8873 19.1945 20.8714 19.131 20.8408C19.0675 20.8102 19.0117 20.7656 18.9677 20.7105C18.6668 20.333 17.5468 19.2062 15.7603 20.5446C15.6906 20.5969 15.6078 20.6287 15.5211 20.6365C15.4343 20.6443 15.3471 20.6279 15.2692 20.5889C15.1914 20.55 15.1258 20.4902 15.08 20.4161C15.0342 20.3421 15.0099 20.2567 15.0099 20.1696C15.0099 19.4931 14.2925 18.7624 13.1336 18.7624C11.9747 18.7624 11.2574 19.4931 11.2574 20.1696C11.2574 20.294 11.2079 20.4133 11.12 20.5013C11.032 20.5893 10.9127 20.6387 10.7883 20.6387H9.38111C7.84428 20.6387 6.77313 22.1613 6.77313 23.5281C6.77316 23.5897 6.76106 23.6507 6.7375 23.7077C6.71394 23.7646 6.67939 23.8163 6.63582 23.8599C6.59226 23.9034 6.54054 23.938 6.48361 23.9615C6.42668 23.9851 6.36567 23.9972 6.30406 23.9972C3.76728 23.9972 2.07701 25.6086 1.89286 28.1437H28.1862C28.297 26.3984 27.6507 25.1768 26.2609 24.5089Z" fill="black"/>
</svg>
