<svg width="17" height="16" viewBox="0 0 17 16" fill="none" xmlns="http://www.w3.org/2000/svg">
<path d="M6.78438 8.02517C5.76592 7.62018 4.78752 7.22888 3.80695 6.84377C3.67719 6.79298 3.59011 6.71658 3.52088 6.59468C2.53682 4.8577 1.54884 3.12292 0.561732 1.3877C0.545621 1.35899 0.529511 1.33028 0.512965 1.30202C0.448957 1.19028 0.447651 1.07943 0.53343 0.980501C0.623998 0.875831 0.735466 0.865673 0.859127 0.920437C1.35638 1.13993 1.85407 1.35811 2.35176 1.57672C7.01385 3.62595 11.6764 5.67518 16.3385 7.72441C16.3533 7.73103 16.3685 7.73678 16.3837 7.74296C16.5157 7.79596 16.6337 7.86397 16.6315 8.03179C16.6293 8.20006 16.5052 8.26057 16.3763 8.31666C15.9431 8.50568 15.5103 8.69647 15.077 8.88638C10.3701 10.955 5.66273 13.0241 0.955791 15.0928C0.906153 15.1149 0.853466 15.1551 0.80557 15.1507C0.714566 15.1418 0.598308 15.133 0.545186 15.0747C0.4925 15.0168 0.493371 14.898 0.492935 14.8057C0.4925 14.7576 0.538219 14.7081 0.565216 14.6604C1.54623 12.9345 2.52898 11.209 3.50738 9.48127C3.58488 9.34436 3.68285 9.25912 3.82916 9.20171C4.76009 8.8378 5.68798 8.46549 6.61674 8.09583C6.66072 8.07905 6.70383 8.05962 6.78438 8.02517Z" fill="white"/>
</svg>
