<svg width="34" height="34" viewBox="0 0 34 34" fill="none" xmlns="http://www.w3.org/2000/svg">
<g clip-path="url(#clip0_758_1988)">
<mask id="mask0_758_1988" style="mask-type:luminance" maskUnits="userSpaceOnUse" x="0" y="0" width="34" height="34">
<path d="M0 -3.05176e-05H33.84V33.84H0V-3.05176e-05Z" fill="white"/>
</mask>
<g mask="url(#mask0_758_1988)">
<path d="M17.7388 24.1921V27.7469C17.7388 28.4836 18.3433 29.088 19.0817 29.088C19.8203 29.088 20.4228 28.4836 20.4228 27.7469V24.1732" stroke="black" stroke-miterlimit="10" stroke-linecap="round" stroke-linejoin="round"/>
<path d="M20.4229 24.1732V27.7469C20.4229 28.4836 21.0273 29.088 21.7657 29.088C22.5043 29.088 23.1088 28.4836 23.1088 27.7469V22.2088" stroke="black" stroke-miterlimit="10" stroke-linecap="round" stroke-linejoin="round"/>
<path d="M25.0692 4.75196C23.526 4.75196 22.2605 5.94006 22.1377 7.45301C21.9243 7.39637 21.7014 7.36617 21.471 7.36617C20.026 7.36617 18.855 8.53722 18.855 9.98222C18.855 11.4272 20.026 12.5983 21.471 12.5983C21.9696 12.5983 22.4343 12.4586 22.831 12.2167C23.3712 12.8476 24.1739 13.248 25.0692 13.248C25.9645 13.248 26.7672 12.8476 27.3055 12.2167C27.7022 12.4586 28.1687 12.5983 28.6673 12.5983C30.1104 12.5983 31.2815 11.4272 31.2815 9.98222C31.2815 8.53722 30.1104 7.36617 28.6673 7.36617C28.4369 7.36617 28.2122 7.39637 28.0006 7.45301C27.8778 5.94006 26.6123 4.75196 25.0692 4.75196Z" stroke="black" stroke-miterlimit="10" stroke-linecap="round" stroke-linejoin="round"/>
<path d="M29.0639 19.5435C29.8572 18.6199 30.337 17.4223 30.337 16.1172V11.9938C29.8856 12.3715 29.3019 12.5982 28.6672 12.5982C28.1686 12.5982 27.7021 12.4585 27.3055 12.2167C26.7671 12.8475 25.9644 13.2498 25.0691 13.2498C24.1738 13.2498 23.371 12.8475 22.8308 12.2167C22.4341 12.4585 21.9696 12.5982 21.4709 12.5982C20.8363 12.5982 20.2527 12.3715 19.7993 11.9938V16.1172C19.7993 19.0147 22.1717 21.3871 25.0691 21.3871C25.8567 21.3871 26.6047 21.2114 27.2771 20.8979" stroke="black" stroke-miterlimit="10" stroke-linecap="round" stroke-linejoin="round"/>
<path d="M31.1529 10.7944C31.5382 11.0815 31.9122 11.446 32.2446 11.8748C33.4743 13.4615 33.699 15.3465 32.747 16.0851C32.152 16.544 31.2398 16.4496 30.3369 15.9264V11.9938C30.7129 11.6822 30.998 11.2685 31.1529 10.7944Z" stroke="black" stroke-miterlimit="10" stroke-linecap="round" stroke-linejoin="round"/>
<path d="M18.9854 10.7944C18.6001 11.0815 18.2261 11.446 17.8937 11.8748C16.664 13.4615 16.4393 15.3465 17.3913 16.0851C17.9862 16.544 18.8985 16.4496 19.7995 15.9264V11.9938C19.4255 11.6822 19.1384 11.2685 18.9854 10.7944Z" stroke="black" stroke-miterlimit="10" stroke-linecap="round" stroke-linejoin="round"/>
<path d="M12.5179 5.49042C11.7114 5.75677 10.9974 6.2271 10.4383 6.84097C10.0021 6.71447 9.54112 6.64454 9.06326 6.64454C6.43974 6.64454 4.29599 8.70905 4.17127 11.3025C2.74331 12.1582 1.7876 13.7202 1.7876 15.5071C1.7876 17.292 2.74331 18.856 4.17127 19.7117C4.29599 22.3051 6.43974 24.3696 9.06326 24.3696C9.54112 24.3696 10.0021 24.2997 10.4383 24.1731C11.3337 25.1534 12.6218 25.7692 14.0554 25.7692C15.4871 25.7692 16.7771 25.1534 17.6724 24.1731C18.1088 24.2997 18.5697 24.3696 19.0457 24.3696C21.1478 24.3696 22.9403 23.0454 23.6354 21.1868C21.4274 20.5579 19.7993 18.5198 19.7993 16.1172V11.9938C19.2231 11.514 18.8549 10.7905 18.8549 9.98215C18.8549 8.5372 20.0259 7.36609 21.4708 7.36609C21.5181 7.36609 21.5653 7.36794 21.6126 7.36986C20.8664 6.91084 19.9881 6.64454 19.0457 6.64454C18.5697 6.64454 18.1088 6.71447 17.6724 6.84097C16.949 6.04957 15.9687 5.4961 14.8638 5.31097" stroke="black" stroke-miterlimit="10" stroke-linecap="round" stroke-linejoin="round"/>
<path d="M10.5614 24.3035V27.745C10.5614 28.4835 9.95893 29.088 9.2204 29.088C8.48187 29.088 7.87744 28.4835 7.87744 27.745V24.2242C8.25708 24.3186 8.65378 24.3696 9.06363 24.3696C9.54142 24.3696 10.0024 24.2997 10.4387 24.1731C10.4783 24.2166 10.5199 24.262 10.5614 24.3035Z" stroke="black" stroke-miterlimit="10" stroke-linecap="round" stroke-linejoin="round"/>
<path d="M7.87732 24.2242V27.7469C7.87732 28.4835 7.2729 29.088 6.53443 29.088C5.7959 29.088 5.19141 28.4835 5.19141 27.7469V22.4713C5.85446 23.325 6.79504 23.954 7.87732 24.2242Z" stroke="black" stroke-miterlimit="10" stroke-linecap="round" stroke-linejoin="round"/>
<path d="M3.74274 7.98379C1.95411 7.98379 0.503418 9.43442 0.503418 11.2251C0.503418 12.3868 1.11353 13.4049 2.03151 13.9772C2.4017 12.8495 3.17043 11.9032 4.17149 11.3026C4.22443 10.1957 4.64558 9.18511 5.31617 8.38994C4.84961 8.13111 4.31319 7.98379 3.74274 7.98379Z" stroke="black" stroke-miterlimit="10" stroke-linecap="round" stroke-linejoin="round"/>
<path d="M27.6152 15.1634V15.5449" stroke="black" stroke-miterlimit="10" stroke-linecap="round" stroke-linejoin="round"/>
<path d="M22.8271 15.1634V15.5449" stroke="black" stroke-miterlimit="10" stroke-linecap="round" stroke-linejoin="round"/>
<path d="M11.5698 10.6981C12.2271 11.3554 13.2924 11.3554 13.9498 10.6981" stroke="black" stroke-miterlimit="10" stroke-linecap="round" stroke-linejoin="round"/>
<path d="M9.18994 10.6981C9.84724 11.3554 10.9125 11.3554 11.5698 10.6981" stroke="black" stroke-miterlimit="10" stroke-linecap="round" stroke-linejoin="round"/>
<path d="M14.7222 19.8156C15.4796 20.5712 16.7054 20.5712 17.461 19.8156" stroke="black" stroke-miterlimit="10" stroke-linecap="round" stroke-linejoin="round"/>
<path d="M11.9834 19.8156C12.7408 20.5712 13.9667 20.5712 14.7222 19.8156" stroke="black" stroke-miterlimit="10" stroke-linecap="round" stroke-linejoin="round"/>
<path d="M6.02246 15.9831C6.67976 16.6404 7.74698 16.6404 8.40428 15.9831" stroke="black" stroke-miterlimit="10" stroke-linecap="round" stroke-linejoin="round"/>
</g>
</g>
<defs>
<clipPath id="clip0_758_1988">
<rect width="33.84" height="33.84" fill="white"/>
</clipPath>
</defs>
</svg>
