<svg width="30" height="30" viewBox="0 0 30 30" fill="none" xmlns="http://www.w3.org/2000/svg">
<g clip-path="url(#clip0_758_1929)">
<path d="M19.7148 16.6742C19.426 16.6187 18.6423 16.4678 18.2847 16.399C17.8532 16.316 17.5401 15.9368 17.5401 15.4975V14.9603C17.8525 14.7688 18.1537 14.5463 18.4429 14.2922C19.4688 13.3904 20.1026 12.1114 20.2305 10.687C20.9799 10.6613 21.5801 10.0368 21.577 9.27563L21.5725 8.19491C21.5711 7.85992 21.4506 7.53918 21.237 7.28752V5.96296C21.237 5.72492 21.044 5.53194 20.806 5.53194C20.5679 5.53194 20.3749 5.72492 20.3749 5.96296V6.88613C16.4478 5.78207 12.612 5.78202 8.68533 6.88613V4.65112C8.68533 3.20408 9.66554 1.94723 11.069 1.59465L13.4619 0.993588C14.1608 0.818093 14.8995 0.818093 15.5983 0.993588L17.9912 1.59465C19.1645 1.88934 20.076 2.84548 20.3135 4.03053C20.3602 4.26392 20.5874 4.41518 20.8208 4.36846C21.0542 4.3217 21.2055 4.09455 21.1587 3.86116C20.8562 2.35169 19.6953 1.13389 18.2012 0.758611L15.8083 0.157545C14.9721 -0.0525152 14.0881 -0.0525152 13.2518 0.157545L10.8589 0.758611C9.07157 1.20757 7.82324 2.80825 7.82324 4.65112V7.28758C7.6096 7.53924 7.48916 7.85998 7.48774 8.19496L7.48326 9.27569C7.48008 10.0368 8.08029 10.6613 8.82967 10.6871C8.95765 12.1115 9.59141 13.3905 10.6174 14.2923C10.9064 14.5464 11.2077 14.7688 11.5202 14.9603V15.4975C11.5202 15.899 11.2737 16.2728 10.7795 16.3979L9.34542 16.6744C5.38838 17.4359 2.53369 20.9142 2.53369 24.922V26.6761C2.53369 27.9906 3.60312 29.0601 4.91769 29.0601H24.1426C25.4571 29.0601 26.5266 27.9907 26.5266 26.6761V24.922C26.5266 20.8984 23.6567 17.4329 19.7148 16.6742ZM19.8608 17.5871C20.3261 17.697 20.773 17.8494 21.1981 18.0393V22.8886C20.9149 22.6968 20.5735 22.5845 20.2065 22.5845H19.8609L19.8608 17.5871ZM19.9653 7.66632C19.5203 8.10455 19.0017 8.79296 17.9499 8.61128C16.7993 8.41286 15.6648 8.31364 14.5301 8.31364C13.3957 8.31364 12.2611 8.41286 11.1106 8.61122C10.0666 8.79143 9.54322 8.10835 9.09319 7.66677C12.7435 6.67192 16.3146 6.67175 19.9653 7.66632ZM11.1866 13.6447C10.3189 12.882 9.78569 11.7912 9.68518 10.5731C9.65016 10.1489 9.30212 9.8276 8.87564 9.82578C8.58197 9.82454 8.3441 9.57934 8.34535 9.27921L8.34983 8.19848C8.34989 8.18202 8.35114 8.16573 8.35267 8.1495C9.01316 8.78859 9.75414 9.71999 11.2571 9.46078C13.4596 9.08095 15.6009 9.08095 17.8034 9.46083C19.3615 9.72947 20.1545 8.68234 20.7075 8.14723C20.7091 8.1642 20.7104 8.18128 20.7104 8.19848L20.7149 9.27921C20.7162 9.57934 20.4783 9.82448 20.1847 9.82578C19.7582 9.8276 19.4102 10.1489 19.3752 10.5732C19.2746 11.7912 18.7415 12.8821 17.8737 13.6448C15.8887 15.3896 13.1917 15.4073 11.1866 13.6447ZM17.5074 17.0016L16.779 17.5868C15.5411 18.5813 13.7493 18.5749 12.5185 17.5714L11.6971 16.9017C12.464 16.3071 12.3757 15.4258 12.3822 15.3965C13.7862 15.9681 15.2571 15.9749 16.678 15.3965C16.683 15.4161 16.5928 16.422 17.5074 17.0016ZM10.1719 17.3931L10.7897 17.2742L11.9738 18.2396C13.5185 19.4991 15.7484 19.5206 17.3189 18.2588L18.4915 17.3167L18.9987 17.4144V22.5846H10.1719V17.3931ZM6.71952 25.249C6.45668 25.5663 6.31195 25.9679 6.31195 26.3799V28.1979H4.91769C4.07853 28.1979 3.39579 27.5152 3.39579 26.676V25.2322H6.73349L6.71952 25.249ZM7.11053 24.3701H3.41628C3.59943 21.8689 5.01707 19.6625 7.11047 18.4274V19.6738C7.11047 19.9119 7.30345 20.1049 7.54149 20.1049C7.77953 20.1049 7.97251 19.9119 7.97251 19.6738V17.991C8.39819 17.809 8.84516 17.6645 9.30978 17.5621V22.5846H8.95907C8.59418 22.5846 8.25471 22.6955 7.97251 22.8853V21.6888C7.97251 21.4508 7.77953 21.2578 7.54149 21.2578C7.30345 21.2578 7.11047 21.4508 7.11047 21.6888L7.11053 24.3701ZM21.8863 28.1979H7.17393V26.3799C7.17393 25.9147 7.49279 25.7038 7.64104 25.4879C7.90605 25.168 8.04862 24.7627 8.04862 24.3571C8.04862 23.8551 8.45705 23.4466 8.95907 23.4466H20.2064C20.7084 23.4466 21.1168 23.8551 21.1168 24.3571C21.1216 24.3894 21.0712 24.9184 21.4569 25.4476C21.6187 25.7084 21.8862 25.9069 21.8862 26.3333V28.1979H21.8863ZM22.0601 24.3701V18.4938C24.0929 19.7406 25.4641 21.9131 25.644 24.3701H22.0601ZM25.6645 26.676C25.6645 27.5152 24.9817 28.1979 24.1426 28.1979H22.7484V26.3333C22.7484 25.9557 22.6308 25.5947 22.4083 25.2894L22.3666 25.2322H25.6645V26.676Z" fill="black"/>
<path d="M12.9298 2.35303C12.3702 2.35303 11.915 2.80822 11.915 3.36774V4.11604C11.915 4.67556 12.3702 5.13075 12.9298 5.13075H16.1301C16.6896 5.13075 17.1448 4.67556 17.1448 4.11604V3.36774C17.1448 2.80822 16.6896 2.35303 16.1301 2.35303H12.9298ZM16.2828 3.36774V4.11604C16.2828 4.20021 16.2143 4.26872 16.1301 4.26872H12.9298C12.8456 4.26872 12.7771 4.20027 12.7771 4.11604V3.36774C12.7771 3.28357 12.8455 3.21507 12.9298 3.21507H16.1301C16.2143 3.21507 16.2828 3.28357 16.2828 3.36774Z" fill="black"/>
</g>
<defs>
<clipPath id="clip0_758_1929">
<rect width="29.06" height="29.06" fill="white"/>
</clipPath>
</defs>
</svg>
