<svg width="33" height="33" viewBox="0 0 33 33" fill="none" xmlns="http://www.w3.org/2000/svg">
<path d="M14.1323 18.3262L15.065 17.9228L15.4681 18.855L14.5355 19.2584L14.1323 18.3262Z" fill="black"/>
<path d="M14.9531 20.1862L15.8859 19.7817L16.2516 20.625L15.3187 21.0295L14.9531 20.1862Z" fill="black"/>
<path d="M13.3242 16.4618L14.2569 16.0585L14.66 16.9906L13.7274 17.394L13.3242 16.4618Z" fill="black"/>
<path d="M20.8203 8.63281V9.64844H23.2385L24.9275 13.4159L25.8537 13.0005L23.8961 8.63281H20.8203Z" fill="black"/>
<path d="M4.0625 7.61719C6.02215 7.61719 7.61719 6.02215 7.61719 4.0625C7.61719 2.10285 6.02215 0.507812 4.0625 0.507812H3.55469V1.39953L3.68215 1.54324C3.92742 1.82102 4.0625 2.17445 4.0625 2.53906C4.0625 3.37898 3.37898 4.0625 2.53906 4.0625C2.17445 4.0625 1.82102 3.92742 1.54324 3.68215L1.39953 3.55469H0.507812V4.0625C0.507812 6.02215 2.10285 7.61719 4.0625 7.61719ZM2.53906 5.07812C3.9391 5.07812 5.07812 3.9391 5.07812 2.53906C5.07812 2.24148 5.02531 1.94898 4.92324 1.67375C5.90078 2.02719 6.60156 2.96461 6.60156 4.0625C6.60156 5.46254 5.46254 6.60156 4.0625 6.60156C2.96461 6.60156 2.02719 5.90078 1.67375 4.92324C1.94898 5.02531 2.24148 5.07812 2.53906 5.07812Z" fill="black"/>
<path d="M30.4693 10.7184L30.4703 10.6641C30.4703 10.2593 30.3728 9.87086 30.1981 9.52402C31.233 9.20359 31.9922 8.2484 31.9922 7.10938C31.9922 6.47918 31.7556 5.87945 31.333 5.41531C31.4336 5.14109 31.4844 4.85773 31.4844 4.57031C31.4844 3.17027 30.3454 2.03125 28.9453 2.03125C28.6564 2.03125 28.3745 2.08559 28.1059 2.17953C27.6022 1.1893 26.5759 0.507812 25.3906 0.507812C24.7137 0.507812 24.0581 0.739375 23.5259 1.15629C23.0648 0.743437 22.4636 0.507812 21.8359 0.507812C20.7629 0.507812 19.8433 1.17813 19.4746 2.13738C19.2552 2.07492 19.0282 2.03125 18.7891 2.03125C17.389 2.03125 16.25 3.17027 16.25 4.57031C16.25 4.86078 16.3033 5.1482 16.3998 5.41988C16.1032 5.74945 15.8854 6.15113 15.7935 6.60156H7.28863L0.507812 21.7273V22.8516H18.1304C17.9192 23.3055 17.7734 23.8113 17.7734 24.3999C17.7734 25.1845 18.0309 25.9005 18.4778 26.5073L13.8597 31.1254L14.5778 31.8434L19.177 27.2441C19.4314 27.4529 19.7158 27.6382 20.0256 27.7971L17.8532 31.2117L18.7104 31.7571L20.9884 28.177C21.4068 28.2999 21.8522 28.3847 22.3224 28.4187L22.3438 31.9952L23.3594 31.9891L23.3375 28.4223C23.9053 28.3918 24.4268 28.31 24.8991 28.18L27.5189 31.783L28.34 31.1858L25.8822 27.8058C26.1513 27.6692 26.3956 27.5107 26.6145 27.3325L31.1254 31.8434L31.8434 31.1254L27.301 26.583C27.7093 25.9817 27.9297 25.25 27.9297 24.3999C27.9297 23.8728 27.8114 23.3563 27.6301 22.8516H31.9922V21.7273L28.1577 13.1732C29.4404 13.0254 30.454 11.9803 30.4693 10.7184ZM18.2813 5.58594V4.57031C17.9298 4.57031 17.5952 4.64242 17.2905 4.77191C17.2814 4.70488 17.2656 4.63938 17.2656 4.57031C17.2656 3.73039 17.9491 3.04688 18.7891 3.04688C19.629 3.04688 20.3125 3.73039 20.3125 4.57031H21.3281C21.3281 3.77457 20.9529 3.07227 20.378 2.60609C20.5674 1.97336 21.1524 1.52344 21.8359 1.52344C22.3285 1.52344 22.7937 1.76668 23.0801 2.17293L23.4503 2.6975L23.8753 2.2166C24.2709 1.76973 24.8087 1.52344 25.3906 1.52344C26.5109 1.52344 27.4219 2.43445 27.4219 3.55469C27.4219 4.67492 26.5109 5.58594 25.3906 5.58594V6.60156C27.071 6.60156 28.4375 5.23504 28.4375 3.55469C28.4375 3.41656 28.4253 3.28199 28.407 3.14895C28.5782 3.08395 28.7589 3.04688 28.9453 3.04688C29.7852 3.04688 30.4688 3.73039 30.4688 4.57031C30.4688 4.81508 30.4038 5.05832 30.2763 5.29242L30.0737 5.66414L30.4032 5.93023C30.7679 6.22477 30.9766 6.65438 30.9766 7.10938C30.9766 7.9493 30.2931 8.63281 29.4531 8.63281V8.63434C29.2536 8.48402 29.0306 8.36062 28.7874 8.27328L28.4451 9.22949C29.0484 9.44582 29.4541 10.0227 29.4536 10.6869C29.4435 11.5146 28.7254 12.1875 27.853 12.1875H27.7159L25.2119 6.60156H16.8513C17.0615 6.01199 17.6201 5.58594 18.2813 5.58594ZM11.9087 20.606C9.46867 17.678 8.125 13.9669 8.125 10.1562V9.55906L13.4448 21.8359H12.933L11.9087 20.606ZM11.6111 21.8359H3.62324L4.10617 21.2565C5.79922 19.2248 6.99106 16.837 7.61719 14.2975C8.24332 16.8365 9.43516 19.2243 11.1282 21.256L11.6111 21.8359ZM7.10938 9.4834V10.1562C7.10938 13.9669 5.7657 17.678 3.32566 20.6065L2.30141 21.8359H1.57219L7.10938 9.4834ZM18.7891 24.3999C18.7891 23.4777 19.2877 22.7962 19.8154 22.0746C20.1637 21.5998 20.5197 21.1133 20.6995 20.5623C21.0153 20.7477 21.3281 21.0158 21.3281 21.3281V21.8359H22.3438V21.3281C22.3438 20.962 22.2153 20.6517 22.0259 20.3932C22.4301 19.4228 23.3924 18.8023 24.0028 18.492C24.2216 19.1196 24.6802 19.8016 25.1885 20.5578C25.997 21.7608 26.9141 23.1238 26.9141 24.3999C26.9141 25.8482 26.1361 26.6155 25.1829 27.0151C25.3145 26.7191 25.3906 26.3941 25.3906 26.0503C25.3906 25.5105 25.2048 24.9803 24.8676 24.5583L22.8516 22.0386L20.8361 24.5583C20.4984 24.9798 20.3125 25.51 20.3125 26.0503C20.3125 26.3443 20.3729 26.6226 20.4709 26.8831C19.4401 26.3463 18.7891 25.4531 18.7891 24.3999ZM22.8267 27.4219C22.7607 27.4219 22.6967 27.4173 22.6317 27.4148C21.9075 27.3787 21.3281 26.783 21.3281 26.0503C21.3281 25.74 21.4348 25.4353 21.6293 25.1931L22.8516 23.6646L24.0744 25.1936C24.2684 25.4353 24.375 25.74 24.375 26.0503C24.375 26.7942 23.7783 27.399 23.0389 27.4183C22.9668 27.4198 22.8947 27.4219 22.8267 27.4219ZM27.1751 21.8359C26.8333 21.1925 26.423 20.574 26.031 19.9911C25.4663 19.1516 24.8828 18.2838 24.8828 17.7734V17.0635L24.211 17.293C24.116 17.325 22.1147 18.0263 21.2311 19.7001C20.8447 19.4685 20.4989 19.3558 20.4659 19.3456L19.8047 19.1359V19.8296C19.8047 20.3704 19.4304 20.8823 18.9963 21.4749C18.9104 21.5922 18.8231 21.713 18.7363 21.8359H14.5524L8.39109 7.61719H24.5543L30.9283 21.8359H27.1751Z" fill="black"/>
<path d="M18.7891 8.63281H19.8047V9.64844H18.7891V8.63281Z" fill="black"/>
<path d="M16.7578 8.63281H17.7734V9.64844H16.7578V8.63281Z" fill="black"/>
</svg>
