<svg width="22" height="24" viewBox="0 0 22 24" fill="none" xmlns="http://www.w3.org/2000/svg">
<path d="M20.9502 5.47843C17.3427 5.12093 13.7135 4.93677 10.0952 4.93677C7.9502 4.93677 5.8052 5.0451 3.6602 5.26177L1.4502 5.47843" stroke="#7D7D7D" stroke-width="1.365" stroke-linecap="round" stroke-linejoin="round"/>
<path d="M7.40918 4.38425L7.64751 2.96508C7.82085 1.93591 7.95085 1.16675 9.78168 1.16675H12.62C14.4508 1.16675 14.5917 1.97925 14.7542 2.97591L14.9925 4.38425" stroke="#7D7D7D" stroke-width="1.365" stroke-linecap="round" stroke-linejoin="round"/>
<path d="M18.621 8.90186L17.9168 19.811C17.7976 21.5119 17.7001 22.8335 14.6776 22.8335H7.72263C4.70013 22.8335 4.60263 21.5119 4.48346 19.811L3.7793 8.90186" stroke="#7D7D7D" stroke-width="1.365" stroke-linecap="round" stroke-linejoin="round"/>
<path d="M9.39355 16.8752H13.0011" stroke="#7D7D7D" stroke-width="1.365" stroke-linecap="round" stroke-linejoin="round"/>
<path d="M8.49414 12.5417H13.9108" stroke="#7D7D7D" stroke-width="1.365" stroke-linecap="round" stroke-linejoin="round"/>
</svg>
