<svg width="35" height="35" viewBox="0 0 35 35" fill="none" xmlns="http://www.w3.org/2000/svg">
<g clip-path="url(#clip0_758_1877)">
<path d="M27.1177 23.3956C27.4332 23.3956 27.7416 23.4892 28.004 23.6645C28.2663 23.8397 28.4707 24.0889 28.5915 24.3803C28.7122 24.6718 28.7438 24.9926 28.6822 25.302C28.6207 25.6114 28.4688 25.8956 28.2457 26.1187C28.0226 26.3418 27.7384 26.4937 27.4289 26.5553C27.1195 26.6168 26.7988 26.5853 26.5073 26.4645C26.2158 26.3438 25.9667 26.1393 25.7914 25.877C25.6161 25.6147 25.5226 25.3063 25.5226 24.9908C25.5226 24.5677 25.6906 24.162 25.9898 23.8628C26.2889 23.5637 26.6947 23.3956 27.1177 23.3956ZM27.1177 25.5225C27.2229 25.5225 27.3257 25.4913 27.4131 25.4329C27.5006 25.3745 27.5687 25.2914 27.609 25.1943C27.6492 25.0971 27.6598 24.9902 27.6392 24.8871C27.6187 24.7839 27.5681 24.6892 27.4937 24.6148C27.4194 24.5404 27.3246 24.4898 27.2215 24.4693C27.1183 24.4488 27.0114 24.4593 26.9143 24.4995C26.8171 24.5398 26.7341 24.6079 26.6756 24.6954C26.6172 24.7828 26.586 24.8856 26.586 24.9908C26.586 25.1318 26.642 25.2671 26.7418 25.3668C26.8415 25.4665 26.9767 25.5225 27.1177 25.5225Z" fill="black"/>
<path d="M14.3565 23.3956C14.672 23.3956 14.9804 23.4892 15.2427 23.6645C15.505 23.8397 15.7095 24.0889 15.8302 24.3803C15.951 24.6718 15.9826 24.9926 15.921 25.302C15.8595 25.6114 15.7075 25.8956 15.4844 26.1187C15.2614 26.3418 14.9771 26.4937 14.6677 26.5553C14.3583 26.6168 14.0375 26.5853 13.7461 26.4645C13.4546 26.3438 13.2055 26.1393 13.0302 25.877C12.8549 25.6147 12.7613 25.3063 12.7613 24.9908C12.7613 24.5677 12.9294 24.162 13.2286 23.8628C13.5277 23.5637 13.9334 23.3956 14.3565 23.3956ZM14.3565 25.5225C14.4617 25.5225 14.5645 25.4913 14.6519 25.4329C14.7394 25.3745 14.8075 25.2914 14.8477 25.1943C14.888 25.0971 14.8985 24.9902 14.878 24.8871C14.8575 24.7839 14.8068 24.6892 14.7325 24.6148C14.6581 24.5404 14.5634 24.4898 14.4602 24.4693C14.3571 24.4488 14.2502 24.4593 14.153 24.4995C14.0559 24.5398 13.9728 24.6079 13.9144 24.6954C13.856 24.7828 13.8248 24.8856 13.8248 24.9908C13.8248 25.1318 13.8808 25.2671 13.9805 25.3668C14.0802 25.4665 14.2155 25.5225 14.3565 25.5225Z" fill="black"/>
<path d="M5.84918 23.3956C6.16467 23.3956 6.47308 23.4892 6.7354 23.6645C6.99772 23.8397 7.20218 24.0889 7.32291 24.3803C7.44364 24.6718 7.47523 24.9926 7.41369 25.302C7.35214 25.6114 7.20021 25.8956 6.97712 26.1187C6.75404 26.3418 6.46981 26.4937 6.16038 26.5553C5.85095 26.6168 5.53022 26.5853 5.23874 26.4645C4.94726 26.3438 4.69813 26.1393 4.52286 25.877C4.34758 25.6147 4.25402 25.3063 4.25402 24.9908C4.25402 24.5677 4.42208 24.162 4.72123 23.8628C5.02038 23.5637 5.42612 23.3956 5.84918 23.3956ZM5.84918 25.5225C5.95434 25.5225 6.05714 25.4913 6.14459 25.4329C6.23203 25.3745 6.30018 25.2914 6.34042 25.1943C6.38067 25.0971 6.3912 24.9902 6.37068 24.8871C6.35016 24.7839 6.29952 24.6892 6.22516 24.6148C6.1508 24.5404 6.05606 24.4898 5.95291 24.4693C5.84977 24.4488 5.74286 24.4593 5.6457 24.4995C5.54854 24.5398 5.4655 24.6079 5.40707 24.6954C5.34864 24.7828 5.31746 24.8856 5.31746 24.9908C5.31746 25.1318 5.37348 25.2671 5.4732 25.3668C5.57291 25.4665 5.70816 25.5225 5.84918 25.5225Z" fill="black"/>
<path d="M28.1812 18.0785H27.1177C26.9767 18.0785 26.8415 18.0224 26.7418 17.9227C26.642 17.823 26.586 17.6878 26.586 17.5467C26.586 17.4057 26.642 17.2705 26.7418 17.1708C26.8415 17.071 26.9767 17.015 27.1177 17.015H28.1812C28.3222 17.015 28.4574 17.071 28.5572 17.1708C28.6569 17.2705 28.7129 17.4057 28.7129 17.5467C28.7129 17.6878 28.6569 17.823 28.5572 17.9227C28.4574 18.0224 28.3222 18.0785 28.1812 18.0785Z" fill="black"/>
<path d="M0.531994 20.2053C0.390972 20.2053 0.255726 20.1492 0.15601 20.0495C0.0562935 19.9498 0.000274658 19.8146 0.000274658 19.6735V10.1026C0.000274658 9.96159 0.0562935 9.82634 0.15601 9.72662C0.255726 9.62691 0.390972 9.57089 0.531994 9.57089H4.78574C4.92676 9.57089 5.06201 9.62691 5.16173 9.72662C5.26144 9.82634 5.31746 9.96159 5.31746 10.1026C5.31746 10.2436 5.26144 10.3789 5.16173 10.4786C5.06201 10.5783 4.92676 10.6343 4.78574 10.6343H1.06371V19.1418H22.3325V7.44401C22.3325 7.30299 22.3885 7.16775 22.4882 7.06803C22.5879 6.96832 22.7232 6.91229 22.8642 6.91229H25.5228V6.38058H21.5679C21.4492 6.38049 21.3338 6.42012 21.2403 6.49316C21.1467 6.5662 21.0803 6.66845 21.0516 6.78362L20.3912 9.42626C20.3048 9.7714 20.1056 10.0778 19.8251 10.2967C19.5447 10.5156 19.1991 10.6344 18.8433 10.6343H6.91262C6.7716 10.6343 6.63635 10.5783 6.53664 10.4786C6.43692 10.3789 6.3809 10.2436 6.3809 10.1026C6.3809 9.96159 6.43692 9.82634 6.53664 9.72662C6.63635 9.62691 6.7716 9.57089 6.91262 9.57089H18.8433C18.962 9.57097 19.0773 9.53134 19.1709 9.4583C19.2645 9.38526 19.3309 9.28302 19.3596 9.16785L20.02 6.5252C20.1063 6.18007 20.3056 5.8737 20.586 5.65481C20.8665 5.43591 21.2121 5.31706 21.5679 5.31714H26.0545C26.1955 5.31714 26.3308 5.37316 26.4305 5.47288C26.5302 5.57259 26.5862 5.70784 26.5862 5.84886V7.44401C26.5862 7.58503 26.5302 7.72028 26.4305 7.82C26.3308 7.91971 26.1955 7.97573 26.0545 7.97573H23.3959V19.1418H24.4593V10.1026C24.4593 9.67955 24.6274 9.27381 24.9265 8.97466C25.2257 8.67551 25.6314 8.50745 26.0545 8.50745H30.5411C30.8969 8.50737 31.2425 8.62623 31.5229 8.84512C31.8034 9.06401 32.0026 9.37038 32.089 9.71552L33.9516 17.1638C34.0038 17.3747 34.0302 17.5911 34.0303 17.8083V23.9273C34.0303 24.3504 33.8622 24.7561 33.5631 25.0552C33.2639 25.3544 32.8582 25.5224 32.4351 25.5224H30.7974C30.6703 26.4077 30.2283 27.2174 29.5524 27.8031C28.8766 28.3888 28.0123 28.7113 27.1179 28.7113C26.2236 28.7113 25.3593 28.3888 24.6834 27.8031C24.0076 27.2174 23.5656 26.4077 23.4384 25.5224H18.0362C17.909 26.4077 17.467 27.2174 16.7912 27.8031C16.1153 28.3888 15.251 28.7113 14.3567 28.7113C13.4624 28.7113 12.598 28.3888 11.9222 27.8031C11.2463 27.2174 10.8043 26.4077 10.6772 25.5224H9.52867C9.40154 26.4077 8.95952 27.2174 8.28368 27.8031C7.60785 28.3888 6.7435 28.7113 5.84918 28.7113C4.95486 28.7113 4.09052 28.3888 3.41468 27.8031C2.73884 27.2174 2.29682 26.4077 2.16969 25.5224H1.59543C1.17237 25.5224 0.766636 25.3544 0.467487 25.0552C0.168335 24.7561 0.000274658 24.3504 0.000274658 23.9273V21.8004C0.000274658 21.6594 0.0562935 21.5242 0.15601 21.4244C0.255726 21.3247 0.390972 21.2687 0.531994 21.2687H1.06371V20.2053H0.531994ZM18.0362 24.459H23.4384C23.551 23.6739 23.9122 22.9455 24.4689 22.3805C24.4689 22.3635 24.4593 22.3492 24.4593 22.3321H16.9563C17.5405 22.9029 17.9201 23.6505 18.0362 24.459ZM32.9668 23.9273V17.8083C32.9668 17.678 32.9509 17.5482 32.9195 17.4217L31.4887 11.6978H28.1814C28.0403 11.6978 27.9051 11.7538 27.8054 11.8535C27.7057 11.9532 27.6496 12.0885 27.6496 12.2295V13.6311C27.6491 14.0068 27.7814 14.3706 28.0232 14.6581C28.265 14.9457 28.6007 15.1384 28.971 15.2023L31.4626 15.6357C31.5327 15.6462 31.6 15.6706 31.6605 15.7075C31.721 15.7443 31.7735 15.7929 31.815 15.8504C31.8564 15.9078 31.886 15.973 31.9019 16.0421C31.9178 16.1111 31.9198 16.1826 31.9077 16.2525C31.8955 16.3223 31.8696 16.389 31.8313 16.4486C31.7931 16.5083 31.7433 16.5597 31.6849 16.5998C31.6265 16.6399 31.5606 16.6679 31.4912 16.6823C31.4218 16.6966 31.3503 16.6969 31.2808 16.6832L28.7891 16.2503C28.1719 16.1439 27.6122 15.8226 27.209 15.3433C26.8059 14.8639 26.5853 14.2574 26.5862 13.6311V12.2295C26.5862 11.8064 26.7543 11.4007 27.0534 11.1015C27.3526 10.8024 27.7583 10.6343 28.1814 10.6343H31.2228L31.0574 9.97393C31.0287 9.85876 30.9623 9.75652 30.8687 9.68348C30.7751 9.61044 30.6598 9.5708 30.5411 9.57089H26.0545C25.9135 9.57089 25.7782 9.62691 25.6785 9.72662C25.5788 9.82634 25.5228 9.96159 25.5228 10.1026V21.6329C26.0484 21.381 26.6261 21.2565 27.2088 21.2696C27.7916 21.2827 28.363 21.433 28.8768 21.7083C29.3906 21.9835 29.8323 22.3761 30.166 22.854C30.4997 23.3319 30.716 23.8818 30.7974 24.459H32.4351C32.5761 24.459 32.7114 24.403 32.8111 24.3033C32.9108 24.2036 32.9668 24.0683 32.9668 23.9273ZM27.1179 27.6493C27.6438 27.6493 28.1578 27.4934 28.595 27.2013C29.0322 26.9091 29.3729 26.4939 29.5742 26.0081C29.7754 25.5223 29.828 24.9878 29.7254 24.4721C29.6229 23.9563 29.3697 23.4826 28.9978 23.1108C28.626 22.739 28.1523 22.4858 27.6366 22.3832C27.1209 22.2806 26.5863 22.3333 26.1005 22.5345C25.6147 22.7357 25.1995 23.0765 24.9074 23.5137C24.6153 23.9509 24.4593 24.4649 24.4593 24.9907C24.4602 25.6956 24.7406 26.3713 25.239 26.8697C25.7374 27.3681 26.4131 27.6485 27.1179 27.6493ZM14.3567 27.6493C14.8825 27.6493 15.3965 27.4934 15.8337 27.2013C16.2709 26.9091 16.6117 26.4939 16.8129 26.0081C17.0141 25.5223 17.0668 24.9878 16.9642 24.4721C16.8616 23.9563 16.6084 23.4826 16.2366 23.1108C15.8648 22.739 15.3911 22.4858 14.8753 22.3832C14.3596 22.2806 13.8251 22.3333 13.3393 22.5345C12.8535 22.7357 12.4383 23.0765 12.1461 23.5137C11.854 23.9509 11.6981 24.4649 11.6981 24.9907C11.6989 25.6956 11.9793 26.3713 12.4777 26.8697C12.9761 27.3681 13.6518 27.6485 14.3567 27.6493ZM9.52867 24.459H10.6772C10.7932 23.6505 11.1728 22.9029 11.7571 22.3321H8.44875C9.03302 22.9029 9.41261 23.6505 9.52867 24.459ZM5.84918 27.6493C6.375 27.6493 6.88901 27.4934 7.32622 27.2013C7.76342 26.9091 8.10418 26.4939 8.3054 26.0081C8.50662 25.5223 8.55927 24.9878 8.45669 24.4721C8.35411 23.9563 8.1009 23.4826 7.72909 23.1108C7.35728 22.739 6.88356 22.4858 6.36785 22.3832C5.85213 22.2806 5.31758 22.3333 4.83178 22.5345C4.34599 22.7357 3.93077 23.0765 3.63864 23.5137C3.34651 23.9509 3.19059 24.4649 3.19059 24.9907C3.19143 25.6956 3.4718 26.3713 3.9702 26.8697C4.46861 27.3681 5.14434 27.6485 5.84918 27.6493ZM1.06371 23.9273C1.06371 24.0683 1.11973 24.2036 1.21945 24.3033C1.31916 24.403 1.45441 24.459 1.59543 24.459H2.16969C2.28575 23.6505 2.66534 22.9029 3.24961 22.3321H1.06371V23.9273ZM2.12715 21.2687H24.4593V20.2053H2.12715V21.2687Z" fill="black"/>
<path d="M20.7373 11.6978C20.8783 11.6978 21.0136 11.7538 21.1133 11.8535C21.213 11.9532 21.269 12.0885 21.269 12.2295V17.5467C21.269 17.6877 21.213 17.8229 21.1133 17.9226C21.0136 18.0224 20.8783 18.0784 20.7373 18.0784H18.6104C18.4694 18.0784 18.3342 18.0224 18.2345 17.9226C18.1348 17.8229 18.0787 17.6877 18.0787 17.5467V12.2295C18.0787 12.0885 18.1348 11.9532 18.2345 11.8535C18.3342 11.7538 18.4694 11.6978 18.6104 11.6978H20.7373ZM19.1422 17.0149H20.2056V12.7612H19.1422V17.0149Z" fill="black"/>
<path d="M15.4199 15.9515C15.561 15.9515 15.6962 16.0075 15.7959 16.1072C15.8956 16.207 15.9517 16.3422 15.9517 16.4832V17.5467C15.9517 17.6877 15.8956 17.8229 15.7959 17.9226C15.6962 18.0224 15.561 18.0784 15.4199 18.0784H13.2931C13.152 18.0784 13.0168 18.0224 12.9171 17.9226C12.8174 17.8229 12.7613 17.6877 12.7613 17.5467V12.2295C12.7613 12.0885 12.8174 11.9532 12.9171 11.8535C13.0168 11.7538 13.152 11.6978 13.2931 11.6978H15.4199C15.561 11.6978 15.6962 11.7538 15.7959 11.8535C15.8956 11.9532 15.9517 12.0885 15.9517 12.2295V14.3563C15.9517 14.4974 15.8956 14.6326 15.7959 14.7323C15.6962 14.832 15.561 14.8881 15.4199 14.8881C15.2789 14.8881 15.1437 14.832 15.044 14.7323C14.9442 14.6326 14.8882 14.4974 14.8882 14.3563V12.7612H13.8248V17.0149H14.8882V16.4832C14.8882 16.3422 14.9442 16.207 15.044 16.1072C15.1437 16.0075 15.2789 15.9515 15.4199 15.9515Z" fill="black"/>
<path d="M10.103 11.6978C10.2441 11.6978 10.3793 11.7538 10.479 11.8535C10.5787 11.9532 10.6348 12.0885 10.6348 12.2295V17.5467C10.6348 17.6877 10.5787 17.8229 10.479 17.9226C10.3793 18.0224 10.2441 18.0784 10.103 18.0784H7.97617C7.83515 18.0784 7.69991 18.0224 7.60019 17.9226C7.50047 17.8229 7.44445 17.6877 7.44445 17.5467V12.2295C7.44445 12.0885 7.50047 11.9532 7.60019 11.8535C7.69991 11.7538 7.83515 11.6978 7.97617 11.6978H10.103ZM8.50789 17.0149H9.57133V12.7612H8.50789V17.0149Z" fill="black"/>
<path d="M4.78566 18.0784H2.65879C2.51777 18.0784 2.38252 18.0224 2.28281 17.9226C2.18309 17.8229 2.12707 17.6877 2.12707 17.5467V12.2295C2.12707 12.0885 2.18309 11.9532 2.28281 11.8535C2.38252 11.7538 2.51777 11.6978 2.65879 11.6978H4.78566C4.92668 11.6978 5.06193 11.7538 5.16165 11.8535C5.26136 11.9532 5.31738 12.0885 5.31738 12.2295V17.5467C5.31738 17.6877 5.26136 17.8229 5.16165 17.9226C5.06193 18.0224 4.92668 18.0784 4.78566 18.0784ZM4.25395 12.7612H3.19051V17.0149H4.25395V12.7612Z" fill="black"/>
</g>
<defs>
<clipPath id="clip0_758_1877">
<rect width="34.03" height="34.03" fill="white" transform="matrix(-1 0 0 1 34.0303 0)"/>
</clipPath>
</defs>
</svg>
