<svg width="56" height="34" viewBox="0 0 56 34" fill="none" xmlns="http://www.w3.org/2000/svg">
<path d="M15.0837 26.4351C14.6387 26.4351 14.278 26.7924 14.278 27.233C14.278 28.2037 13.4805 28.9933 12.5003 28.9933C11.52 28.9933 10.7227 28.2037 10.7227 27.233C10.7227 26.2623 11.52 25.4726 12.5003 25.4726C12.9452 25.4726 13.3059 25.1154 13.3059 24.6748C13.3059 24.2342 12.9452 23.877 12.5003 23.877C10.6316 23.877 9.11133 25.3824 9.11133 27.233C9.11133 29.0835 10.6316 30.589 12.5003 30.589C14.369 30.589 15.8893 29.0835 15.8893 27.233C15.8893 26.7924 15.5286 26.4351 15.0837 26.4351Z" fill="black"/>
<path d="M48.6675 26.4351C48.2226 26.4351 47.8619 26.7924 47.8619 27.233C47.8619 28.2037 47.0645 28.9933 46.0843 28.9933C45.104 28.9933 44.3066 28.2037 44.3066 27.233C44.3066 26.2623 45.104 25.4726 46.0843 25.4726C46.5292 25.4726 46.8899 25.1154 46.8899 24.6748C46.8899 24.2342 46.5292 23.877 46.0843 23.877C44.2155 23.877 42.6953 25.3824 42.6953 27.233C42.6953 29.0835 44.2155 30.589 46.0843 30.589C47.953 30.589 49.4732 29.0835 49.4732 27.233C49.4732 26.7924 49.1125 26.4351 48.6675 26.4351Z" fill="black"/>
<path d="M53.3877 12.5646L44.9477 11.1716L41.2286 1.59568H41.7777C42.2227 1.59568 42.5834 1.23846 42.5834 0.79784C42.5834 0.357219 42.2227 0 41.7777 0H29.7222C28.3283 0 27.1943 1.12304 27.1943 2.5033V11.9385H1.30566C0.860723 11.9385 0.5 12.2957 0.5 12.7363V24.6747C0.5 26.0551 1.63405 27.178 3.02785 27.178H5.66807C5.66796 27.1964 5.66667 27.2145 5.66667 27.2329C5.66667 30.9644 8.73217 34 12.5001 34C16.2681 34 19.3335 30.9643 19.3335 27.2329C19.3335 27.2145 19.3322 27.1964 19.3321 27.178H39.2513C39.2512 27.1964 39.2499 27.2145 39.2499 27.2329C39.2499 30.9644 42.3154 34 46.0833 34C49.8512 34 52.9167 30.9643 52.9167 27.2329C52.9167 27.2145 52.9154 27.1964 52.9153 27.178H53.8332C54.7523 27.178 55.5 26.4376 55.5 25.5275V15.0337C55.5 13.8051 54.6116 12.7666 53.3877 12.5646ZM43.1879 11.0857H34.0277C33.5222 11.0857 33.1111 10.6785 33.1111 10.1781V5.00671H40.8269L43.1879 11.0857ZM12.5 32.4044C9.62055 32.4044 7.27789 30.0845 7.27789 27.233C7.27789 24.3816 9.62055 22.0617 12.5 22.0617C15.3795 22.0617 17.7221 24.3816 17.7221 27.233C17.7222 30.0845 15.3795 32.4044 12.5 32.4044ZM46.0833 32.4044C43.2037 32.4044 40.8612 30.0845 40.8612 27.233C40.8612 24.3816 43.2038 22.0617 46.0833 22.0617C48.9627 22.0617 51.3054 24.3816 51.3054 27.233C51.3054 30.0845 48.9627 32.4044 46.0833 32.4044ZM53.8887 25.5275C53.8887 25.5578 53.8639 25.5824 53.8332 25.5824H52.7103C51.9642 22.6463 49.2764 20.4659 46.0833 20.4659C42.8902 20.4659 40.2024 22.6463 39.4563 25.5824H19.1271C18.381 22.6463 15.6932 20.4659 12.5001 20.4659C9.30698 20.4659 6.61918 22.6463 5.87314 25.5824H3.02785C2.52243 25.5824 2.11133 25.1751 2.11133 24.6747V13.5341H27.1943V22.9692C27.1943 23.4098 27.5551 23.767 28 23.767C28.4449 23.767 28.8057 23.4098 28.8057 22.9692V2.50341C28.8057 2.0029 29.2169 1.59579 29.7222 1.59579H39.5021L40.2071 3.41114H32.3054C31.8604 3.41114 31.4997 3.76836 31.4997 4.20898V10.1782C31.4997 11.5586 32.6338 12.6815 34.0275 12.6815H44.2942L53.1226 14.1386C53.5664 14.2118 53.8885 14.5883 53.8885 15.0339V15.3495H51.2497C50.8048 15.3495 50.4441 15.7067 50.4441 16.1473V18.7055C50.4441 20.0859 51.5781 21.2088 52.9719 21.2088H53.8887V25.5275ZM53.8887 19.6131H52.9721C52.4667 19.6131 52.0556 19.2059 52.0556 18.7055V16.9452H53.8887V19.6131Z" fill="black"/>
<path d="M42.6389 15.3496H32.3057C31.8607 15.3496 31.5 15.7068 31.5 16.1474C31.5 16.5881 31.8607 16.9453 32.3057 16.9453H42.6389C43.0838 16.9453 43.4446 16.5881 43.4446 16.1474C43.4446 15.7068 43.0838 15.3496 42.6389 15.3496Z" fill="black"/>
<path d="M47.8052 15.3496H46.083C45.6381 15.3496 45.2773 15.7068 45.2773 16.1474C45.2773 16.5881 45.6381 16.9453 46.083 16.9453H47.8052C48.2501 16.9453 48.6109 16.5881 48.6109 16.1474C48.6109 15.7068 48.2501 15.3496 47.8052 15.3496Z" fill="black"/>
<path d="M24.5546 15.3496H4.74902C4.30408 15.3496 3.94336 15.7068 3.94336 16.1474C3.94336 16.5881 4.30408 16.9453 4.74902 16.9453H24.5545C24.9994 16.9453 25.3602 16.5881 25.3602 16.1474C25.3602 15.7068 24.9996 15.3496 24.5546 15.3496Z" fill="black"/>
</svg>
