<svg width="37" height="12" viewBox="0 0 37 12" fill="none" xmlns="http://www.w3.org/2000/svg">
<path d="M14.0487 0.211026L9.20534 11.8164H6.04415L3.66242 2.5556C3.51579 1.98449 3.39049 1.77666 2.95082 1.53414C2.23062 1.14315 1.04597 0.776396 0 0.547954L0.0732051 0.211098H5.15919C5.80784 0.211098 6.39103 0.645557 6.53765 1.39452L7.79703 8.11149L10.9076 0.211098L14.0487 0.211026ZM26.4311 8.02564C26.4451 4.96432 22.2127 4.79771 22.2431 3.42815C22.2514 3.01009 22.646 2.56772 23.5101 2.45604C23.9392 2.39871 25.1201 2.35669 26.4585 2.97373L26.9831 0.513848C26.263 0.251372 25.3373 0 24.1869 0C21.232 0 19.1518 1.57826 19.1343 3.83648C19.1149 5.5064 20.6184 6.4383 21.7525 6.99446C22.9169 7.56353 23.3063 7.92688 23.3022 8.43724C23.2946 9.21618 22.3731 9.55659 21.5135 9.5719C20.0101 9.59541 19.138 9.16393 18.4416 8.83825L17.9003 11.3827C18.5979 11.7043 19.8895 11.9835 21.2261 12C24.3667 11.9999 26.4212 10.4384 26.4311 8.02564ZM34.2342 11.8165H37L34.5867 0.211098H32.0335C31.4598 0.211098 30.9761 0.547084 30.7606 1.0618L26.2771 11.8165H29.4152L30.0381 10.0833H33.8741L34.2342 11.8165ZM30.8982 7.7046L32.4726 3.34694L33.3783 7.7046H30.8982ZM18.3211 0.211026L15.8475 11.8164H12.8572L15.3314 0.211026H18.3211Z" fill="#1A2ADF"/>
</svg>
